<?xml version="1.0" encoding="UTF-8" standalone="no"?>
<svg
   xmlns:dc="http://purl.org/dc/elements/1.1/"
   xmlns:cc="http://creativecommons.org/ns#"
   xmlns:rdf="http://www.w3.org/1999/02/22-rdf-syntax-ns#"
   xmlns:svg="http://www.w3.org/2000/svg"
   xmlns="http://www.w3.org/2000/svg"
   xmlns:sodipodi="http://sodipodi.sourceforge.net/DTD/sodipodi-0.dtd"
   xmlns:inkscape="http://www.inkscape.org/namespaces/inkscape"
   viewBox="0 0 64 64"
   enable-background="new 0 0 64 64"
   id="svg3089"
   version="1.1"
   inkscape:version="0.48.2 r9819"
   width="100%"
   height="100%"
   sodipodi:docname="calendar.svg">
  <metadata
     id="metadata3153">
    <rdf:RDF>
      <cc:Work
         rdf:about="">
        <dc:format>image/svg+xml</dc:format>
        <dc:type
           rdf:resource="http://purl.org/dc/dcmitype/StillImage" />
      </cc:Work>
    </rdf:RDF>
  </metadata>
  <defs
     id="defs3151" />
  <sodipodi:namedview
     pagecolor="#ffffff"
     bordercolor="#666666"
     borderopacity="1"
     objecttolerance="10"
     gridtolerance="10"
     guidetolerance="10"
     inkscape:pageopacity="0"
     inkscape:pageshadow="2"
     inkscape:window-width="1132"
     inkscape:window-height="669"
     id="namedview3149"
     showgrid="false"
     inkscape:zoom="7.1738682"
     inkscape:cx="32"
     inkscape:cy="30.678306"
     inkscape:window-x="0"
     inkscape:window-y="0"
     inkscape:window-maximized="0"
     inkscape:current-layer="svg3089" />
  <path
     d="m60 58.2c0 2.1-1.7 3.8-3.9 3.8h-45.3c-2.1 0-3.9-1.7-3.9-3.8v-44.3c0-2.1 1.7-3.8 3.9-3.8h45.4c2.1 0 3.9 1.7 3.9 3.8v44.3z"
     fill="#93a2aa"
     id="path3091" />
  <path
     d="M57.1,13.9c0-2.1-1.7-3.8-3.9-3.8H7.9c-2.1,0-3.9,1.7-3.9,3.8v21.3h53.1V13.9z"
     fill="#ed4c5c"
     id="path3093" />
  <path
     d="M4,35.1v23.1C4,60.3,5.7,62,7.9,62h45.4c2.1,0,3.9-1.7,3.9-3.8V35.1H4z"
     fill="#d9e3e8"
     id="path3095" />
  <g
     fill="#3e4347"
     id="g3097">
    <ellipse
       cx="13.1"
       cy="17"
       rx="2.9"
       ry="2.8"
       id="ellipse3099" />
    <ellipse
       cx="24.8"
       cy="17"
       rx="2.9"
       ry="2.8"
       id="ellipse3101" />
    <ellipse
       cx="36.3"
       cy="17"
       rx="2.9"
       ry="2.8"
       id="ellipse3103" />
    <ellipse
       cx="47.9"
       cy="17"
       rx="2.9"
       ry="2.8"
       id="ellipse3105" />
    <path
       d="m40.6 4.6c-.7-1.2-1.7-2.5-3.6-2.6-1.8-.1-1.9 2.1-.1 2.2 0 0 .4.3.3.2.4.4.6.9.9 1.4.6 1.4.8 2.9.8 4.4h2.9c-.1-1.9-.4-3.9-1.2-5.6m-3.7-.4c.1 0 .1 0 0 0"
       id="path3107" />
    <path
       d="m29 4.6c-.6-1.2-1.7-2.5-3.6-2.6-1.8-.1-1.9 2.1-.1 2.2 0 0 .4.3.3.2.4.4.6.9.9 1.4.6 1.4.8 2.9.8 4.4h2.9c-.1-1.9-.3-3.9-1.2-5.6m-3.6-.4c0 0 0 0 0 0"
       id="path3109" />
    <path
       d="m17.4 4.6c-.6-1.2-1.7-2.5-3.6-2.6-1.8-.1-1.8 2.1 0 2.2 0 0 .4.3.3.2.4.4.6.9.9 1.4.6 1.4.8 2.9.8 4.4h2.9c-.1-1.9-.4-3.9-1.3-5.6m-3.6-.4c0 0 0 0 0 0"
       id="path3111" />
    <path
       d="m52.1 4.6c-.6-1.2-1.7-2.5-3.6-2.6-1.8-.1-1.9 2.1-.1 2.2 0 0 .4.3.3.2.4.4.6.9.9 1.4.6 1.4.8 2.9.8 4.4h2.9c0-1.9-.3-3.9-1.2-5.6m-3.6-.4c0 0 0 0 0 0"
       id="path3113" />
  </g>
  <g
     fill="#94989b"
     id="g3115">
    <path
       d="m36.3 16c-.3 0 .4.1 0 0 .3.1-.4-.3-.2-.2-.4-.4-.6-.9-.8-1.4-.6-1.4-.8-2.9-.8-4.4 0-1.5.2-3 .8-4.4.2-.5.4-.8.8-1.3.1-.1.1-.1.4-.3-.3.2 0 0 .1 0-.2.1-.2.1-.1 0-.2 0-.3 0-.1 0 1.9-.1 1.9-2.3 0-2.2-1.9.1-2.9 1.4-3.6 2.6-.9 1.7-1.1 3.7-1.1 5.5 0 1.8.3 3.8 1.1 5.5.6 1.2 1.7 2.5 3.6 2.6 1.8.3 1.8-1.9-.1-2"
       id="path3117" />
    <path
       d="m24.8 16c-.4 0 .3.1 0 0 .3.1-.4-.3-.2-.2-.4-.4-.6-.9-.9-1.4-.6-1.4-.8-2.9-.8-4.4 0-1.5.2-3 .8-4.4.2-.5.4-.8.8-1.3 0-.1.1-.1.4-.3-.3.2 0 0 .1 0-.2.1-.2.1-.1 0-.2 0-.3 0-.1 0 1.9-.1 1.9-2.3 0-2.2-1.9.1-2.9 1.4-3.6 2.6-.9 1.7-1.1 3.7-1.1 5.5 0 1.8.3 3.8 1.1 5.5.6 1.2 1.7 2.5 3.6 2.6 1.8.3 1.8-1.9 0-2"
       id="path3119" />
    <path
       d="m13.2 16c-.3 0 .3.1 0 0 .3.1-.4-.3-.2-.2-.4-.4-.6-.9-.9-1.4-.6-1.4-.8-2.9-.8-4.4 0-1.5.2-3 .8-4.4.2-.5.4-.8.8-1.3 0-.1.1-.1.4-.3-.3.2 0 0 .1 0-.2.1-.2.1-.1 0-.2 0-.3 0-.1 0 1.9-.1 1.9-2.3 0-2.2-1.9.1-2.9 1.4-3.6 2.6-.9 1.7-1.1 3.7-1.1 5.5 0 1.8.3 3.8 1.1 5.5.6 1.2 1.7 2.5 3.6 2.6 1.9.3 1.9-1.9 0-2"
       id="path3121" />
    <path
       d="m47.9 16c-.3 0 .3.1 0 0 .3.1-.4-.3-.2-.2-.4-.4-.6-.9-.9-1.4-.6-1.4-.8-2.9-.8-4.4 0-1.5.2-3 .8-4.4.2-.5.4-.8.8-1.3 0-.1.1-.1.4-.3-.3.2 0 0 .1 0-.2.1-.2.1-.1 0-.2 0-.3 0-.1 0 1.9-.1 1.9-2.3 0-2.2-1.9.3-2.9 1.6-3.6 2.8-.9 1.7-1.1 3.7-1.1 5.5 0 1.8.3 3.8 1.1 5.5.6 1.2 1.7 2.5 3.6 2.6 1.9.1 1.9-2.1 0-2.2"
       id="path3123" />
  </g>
  <g
     fill="#d0d0d0"
     id="g3125">
    <path
       d="m33.5 10.1c0-1.5.2-3.1.8-4.6.3-.7.9-2.1 2-2.1.6 0 .6-.7 0-.7-1.4 0-2.1 1.2-2.6 2-.9 1.7-1.1 3.5-1.1 5.3 0 .6.9.6.9.1"
       id="path3127" />
    <path
       d="m21.9 10.1c0-1.5.2-3.1.8-4.6.3-.7.9-2.1 2-2.1.6 0 .6-.7 0-.7-1.4 0-2.1 1.2-2.6 2-.9 1.7-1.1 3.5-1.1 5.3.1.6.9.6.9.1"
       id="path3129" />
    <path
       d="m10.4 10.1c0-1.5.2-3.1.8-4.6.3-.7.9-2.1 2-2.1.6 0 .6-.7 0-.7-1.4 0-2.1 1.2-2.6 2-.9 1.7-1.1 3.5-1.1 5.3 0 .6.9.6.9.1"
       id="path3131" />
    <path
       d="m45.1 10.1c0-1.5.2-3.1.8-4.6.3-.7.9-2.1 2-2.1.6 0 .6-.7 0-.7-1.4 0-2.1 1.2-2.6 2-.9 1.7-1.1 3.5-1.1 5.3 0 .6.9.6.9.1"
       id="path3133" />
  </g>
  <g
     style="font-size:25.0377388px;font-style:normal;font-variant:normal;font-weight:bold;font-stretch:normal;text-align:center;line-height:125%;letter-spacing:0px;word-spacing:0px;text-anchor:middle;fill:#000000;fill-opacity:1;stroke:none;font-family:Futura LT Book;-inkscape-font-specification:Futura LT Book"
     id="text3155">
    <path
       d="m 29.393629,53.869359 0,4.156264 -15.17287,0 7.711624,-8.387642 c 0.550821,-0.600897 1.043229,-1.301953 1.477226,-2.10317 0.450669,-0.817888 0.676008,-1.660825 0.676019,-2.528812 -1.1e-5,-0.300439 -0.05009,-0.592546 -0.150226,-0.876321 -0.100162,-0.300438 -0.250388,-0.567507 -0.45068,-0.801207 -0.18362,-0.233671 -0.408959,-0.417281 -0.676019,-0.550831 -0.267078,-0.150211 -0.559185,-0.225324 -0.87632,-0.225339 -0.667681,1.5e-5 -1.176782,0.225355 -1.527302,0.676019 -0.350535,0.450693 -0.525799,0.993177 -0.525793,1.627453 -6e-6,0.267082 0.02503,0.534151 0.07511,0.801207 l -5.408151,0 c 0.03338,-1.084955 0.225338,-2.069772 0.575868,-2.954453 0.367218,-0.901342 0.859626,-1.669165 1.477226,-2.303472 0.634286,-0.634271 1.393763,-1.126679 2.278434,-1.477226 0.901353,-0.350509 1.911207,-0.525773 3.029567,-0.525793 0.984808,2e-5 1.919549,0.158592 2.804227,0.475717 0.884654,0.317164 1.652477,0.767843 2.303472,1.352038 0.667658,0.567539 1.19345,1.268595 1.577377,2.10317 0.400588,0.834606 0.60089,1.761002 0.600906,2.779189 -1.6e-5,0.684377 -0.06678,1.301974 -0.200302,1.852793 -0.13355,0.534149 -0.333852,1.043249 -0.600906,1.527302 -0.267084,0.46738 -0.592574,0.918059 -0.976472,1.352038 -0.367233,0.433995 -0.792875,0.867982 -1.276924,1.301962 l -2.929416,2.729114 6.184322,0"
       style=""
       id="path3164" />
    <path
       d="m 39.147001,42.727565 c -0.634297,1.5e-5 -1.151743,0.217009 -1.55234,0.650981 -0.40061,0.434002 -0.717754,0.959794 -0.951434,1.577378 -0.233691,0.61761 -0.400609,1.260244 -0.500754,1.927906 -0.08347,0.667683 -0.125195,1.226859 -0.125189,1.677528 -6e-6,0.450688 0.04172,1.01821 0.125189,1.702566 0.100145,0.66768 0.267063,1.310315 0.500754,1.927906 0.23368,0.617603 0.550824,1.151741 0.951434,1.602415 0.400597,0.433992 0.918043,0.650985 1.55234,0.650982 0.63428,3e-6 1.151726,-0.21699 1.55234,-0.650982 0.400593,-0.450674 0.717738,-0.984812 0.951434,-1.602415 0.233674,-0.617591 0.392247,-1.260226 0.475717,-1.927906 0.100139,-0.684356 0.150215,-1.251878 0.150227,-1.702566 -1.2e-5,-0.450669 -0.05009,-1.009845 -0.150227,-1.677528 -0.08347,-0.667662 -0.242043,-1.310296 -0.475717,-1.927906 -0.233696,-0.617584 -0.550841,-1.143376 -0.951434,-1.577378 -0.400614,-0.433972 -0.91806,-0.650966 -1.55234,-0.650981 m 0,-4.331529 c 1.402104,2e-5 2.603914,0.300472 3.605435,0.901359 1.018188,0.600924 1.852778,1.385439 2.503773,2.353547 0.650966,0.968141 1.126683,2.061455 1.427152,3.279944 0.317128,1.218515 0.4757,2.437017 0.475717,3.65551 -1.7e-5,1.235203 -0.158589,2.462051 -0.475717,3.680547 -0.300469,1.201816 -0.776186,2.286784 -1.427152,3.254906 -0.650995,0.968128 -1.485585,1.752643 -2.503773,2.353548 -1.001521,0.600905 -2.203331,0.901358 -3.605435,0.901358 -1.40212,0 -2.612277,-0.300453 -3.630472,-0.901358 -1.001513,-0.600905 -1.827758,-1.38542 -2.478736,-2.353548 -0.650983,-0.968122 -1.135046,-2.05309 -1.452189,-3.254906 -0.300454,-1.218496 -0.45068,-2.445344 -0.450679,-3.680547 -10e-7,-1.218493 0.150225,-2.436995 0.450679,-3.65551 0.317143,-1.218489 0.801206,-2.311803 1.452189,-3.279944 0.650978,-0.968108 1.477223,-1.752623 2.478736,-2.353547 1.018195,-0.600887 2.228352,-0.901339 3.630472,-0.901359"
       style=""
       id="path3166" />
  </g>
  <g
     style="font-size:16.01435852px;font-style:normal;font-variant:normal;font-weight:normal;font-stretch:normal;text-align:center;line-height:125%;letter-spacing:0px;word-spacing:0px;text-anchor:middle;fill:#eeeeee;fill-opacity:1;stroke:none;font-family:Futura LT Medium;-inkscape-font-specification:Futura LT Medium"
     id="text3159">
    <path
       d="m 18.307551,25.462971 -0.03203,0 -1.409263,7.975151 -1.553393,0 2.466211,-12.587286 4.147719,9.512529 4.147719,-9.512529 2.466211,12.587286 -1.553393,0 -1.409263,-7.975151 -0.03203,0 -3.619245,8.231381 -3.619245,-8.231381"
       style=""
       id="path3169" />
    <path
       d="m 34.378961,24.149794 -2.145925,4.884379 4.291849,0 -2.145924,-4.884379 m -2.770485,6.261614 -1.377234,3.026714 -1.617451,0 5.76517,-12.587286 5.765169,12.587286 -1.617451,0 -1.377234,-3.026714 -5.540969,0"
       style=""
       id="path3171" />
    <path
       d="m 38.310736,21.363295 1.729551,0 2.962656,5.156624 2.962657,-5.156624 1.72955,0 -3.939532,6.822117 0,5.25271 -1.50535,0 0,-5.25271 -3.939532,-6.822117"
       style=""
       id="path3173" />
  </g>
</svg>
