<?xml version="1.0" encoding="UTF-8" standalone="no"?>
<svg
   xmlns:dc="http://purl.org/dc/elements/1.1/"
   xmlns:cc="http://creativecommons.org/ns#"
   xmlns:rdf="http://www.w3.org/1999/02/22-rdf-syntax-ns#"
   xmlns:svg="http://www.w3.org/2000/svg"
   xmlns="http://www.w3.org/2000/svg"
   xmlns:sodipodi="http://sodipodi.sourceforge.net/DTD/sodipodi-0.dtd"
   xmlns:inkscape="http://www.inkscape.org/namespaces/inkscape"
   viewBox="0 0 64 64"
   enable-background="new 0 0 64 64"
   id="svg3089"
   version="1.1"
   inkscape:version="0.48.2 r9819"
   width="100%"
   height="100%"
   sodipodi:docname="scottish-flag.svg">
  <metadata
     id="metadata3153">
    <rdf:RDF>
      <cc:Work
         rdf:about="">
        <dc:format>image/svg+xml</dc:format>
        <dc:type
           rdf:resource="http://purl.org/dc/dcmitype/StillImage" />
        <dc:title></dc:title>
      </cc:Work>
    </rdf:RDF>
  </metadata>
  <defs
     id="defs3151">
    <clipPath
       clipPathUnits="userSpaceOnUse"
       id="clipPath4090">
      <path
         style="fill:#014397;fill-opacity:1;stroke:none"
         d="M 1.2178653,50.967594 C 12.840539,55.817798 17.738012,55.801381 26.722439,52.527707 35.017021,49.505394 45.887698,48.995071 56.803617,52.748906 59.72011,42.862512 63.30173,20.621002 63.116563,11.91307 50.938516,8.497091 44.894714,7.942574 36.236114,9.988093 30.288966,11.393054 27.042028,17.977558 14.213558,11.216686 9.1809819,21.905027 8.4152884,31.505737 1.2178653,50.967594 z"
         id="path4092"
         inkscape:connector-curvature="0"
         sodipodi:nodetypes="csccscc" />
    </clipPath>
  </defs>
  <sodipodi:namedview
     pagecolor="#16595c"
     bordercolor="#666666"
     borderopacity="1"
     objecttolerance="10"
     gridtolerance="10"
     guidetolerance="10"
     inkscape:pageopacity="0.90588235"
     inkscape:pageshadow="2"
     inkscape:window-width="1132"
     inkscape:window-height="669"
     id="namedview3149"
     showgrid="false"
     inkscape:zoom="4.3280201"
     inkscape:cx="38.851561"
     inkscape:cy="46.683279"
     inkscape:window-x="39"
     inkscape:window-y="0"
     inkscape:window-maximized="0"
     inkscape:current-layer="svg3089" />
	<g clip-path="url(#clipPath4090)" >
		<rect
     style="fill:#014397;fill-opacity:1;stroke:none"
     id="rect4098"
     width="76.940491"
     height="63.077339"
     x="-4.389998"
     y="0.2295019" />
  <path
     style="fill:#eeeeee;stroke:none"
     d="m 4.0642457,43.57735 c 0,0 10.7495633,-0.343087 16.8240973,-5.254609 C 26.962874,33.411219 36.031579,21.510705 41.9525,17.33971 47.873421,13.168715 54.673482,10.424535 54.673482,10.424535 l 8.478511,1.758153 -1.227847,6.554759 c 0,0 -6.95286,2.242092 -14.009345,7.373142 -7.056486,5.131047 -14.643707,15.621292 -21.042446,20.803112 -6.398732,5.18182 -14.923081,7.238266 -14.923081,7.238266 L 1.3735434,50.862106 z"
     id="path3291"
     inkscape:connector-curvature="0"
     sodipodi:nodetypes="czzccczzccc"
     />
  <path
     sodipodi:nodetypes="czzccczzccc"
     inkscape:connector-curvature="0"
     id="path3293"
     d="m 46.564954,49.488931 c 0,0 -4.286852,-4.921966 -8.659259,-7.710347 C 33.533283,38.990207 26.566041,31.953043 21.684261,28.345527 16.802479,24.738013 11.260696,19.839041 11.260696,19.839041 l 2.953843,-7.766885 9.474538,3.387709 c 0,0 3.143821,4.377859 9.070913,8.054374 5.927098,3.676512 6.823304,6.53188 12.67257,9.633219 5.849271,3.101339 13.465737,9.101445 13.465737,9.101445 l -2.032706,10.052544 z"
     style="fill:#eeeeee;stroke:none"
     clip-path="url(#clipPath4090)" />
	</g>
</svg>
