<?xml version="1.0" encoding="UTF-8" standalone="no"?>
<svg
   xmlns:dc="http://purl.org/dc/elements/1.1/"
   xmlns:cc="http://creativecommons.org/ns#"
   xmlns:rdf="http://www.w3.org/1999/02/22-rdf-syntax-ns#"
   xmlns:svg="http://www.w3.org/2000/svg"
   xmlns="http://www.w3.org/2000/svg"
   xmlns:sodipodi="http://sodipodi.sourceforge.net/DTD/sodipodi-0.dtd"
   xmlns:inkscape="http://www.inkscape.org/namespaces/inkscape"
   viewBox="0 0 64 64"
   enable-background="new 0 0 64 64"
   id="svg3089"
   version="1.1"
   inkscape:version="0.48.2 r9819"
   width="100%"
   height="100%"
   sodipodi:docname="scottish-flag.svg">
  <metadata
     id="metadata3153">
    <rdf:RDF>
      <cc:Work
         rdf:about="">
        <dc:format>image/svg+xml</dc:format>
        <dc:type
           rdf:resource="http://purl.org/dc/dcmitype/StillImage" />
        <dc:title />
      </cc:Work>
    </rdf:RDF>
  </metadata>
  <defs
     id="defs3151">
    <clipPath
       clipPathUnits="userSpaceOnUse"
       id="clipPath4090">
      <path
         style="fill:#014397;fill-opacity:1;stroke:none"
         d="M 1.2178653,50.967594 C 12.840539,55.817798 17.738012,55.801381 26.722439,52.527707 35.017021,49.505394 45.887698,48.995071 56.803617,52.748906 59.72011,42.862512 63.30173,20.621002 63.116563,11.91307 50.938516,8.497091 44.894714,7.942574 36.236114,9.988093 30.288966,11.393054 24.088485,17.150566 11.260015,10.389694 6.2274388,21.078035 8.4152884,31.505737 1.2178653,50.967594 z"
         id="path4092"
         inkscape:connector-curvature="0"
         sodipodi:nodetypes="csccscc" />
    </clipPath>
  </defs>
  <sodipodi:namedview
     pagecolor="#16595c"
     bordercolor="#666666"
     borderopacity="1"
     objecttolerance="10"
     gridtolerance="10"
     guidetolerance="10"
     inkscape:pageopacity="0.90588235"
     inkscape:pageshadow="2"
     inkscape:window-width="1132"
     inkscape:window-height="669"
     id="namedview3149"
     showgrid="false"
     inkscape:zoom="8.46441"
     inkscape:cx="32.187927"
     inkscape:cy="33.602781"
     inkscape:window-x="94"
     inkscape:window-y="20"
     inkscape:window-maximized="0"
     inkscape:current-layer="svg3089" />
  <g
     clip-path="url(#clipPath4090)"
     id="g4117">
    <rect
       style="fill:#014397;fill-opacity:1;stroke:none"
       id="rect4098"
       width="65.975372"
       height="50.343651"
       x="-0.85286313"
       y="5.8889174" />
    <path
       style="fill:#eeeeee;stroke:none"
       d="M -1.9384711,44.077577 C 7.4024756,45.447328 23.785534,35.837869 29.947067,28.969974 36.108599,22.102079 46.079008,10.587963 61.801708,6.5477804 l 6.125155,9.9386476 C 58.093781,19.788831 44.323242,26.745371 37.28499,35.99006 30.246739,45.234749 15.568152,55.867664 0.9442932,56.778156 z"
       id="path3291"
       inkscape:connector-curvature="0"
       sodipodi:nodetypes="czcczcc" />
    <path
       sodipodi:nodetypes="czcczcc"
       inkscape:connector-curvature="0"
       id="path3293"
       d="M 52.07377,58.021028 C 46.000379,49.590602 38.887081,42.865381 30.676993,36.120063 22.466905,29.374745 12.580495,21.781184 5.0700999,12.648581 L 14.058541,7.2407038 C 19.229135,13.831322 29.48091,21.493258 37.140926,27.33308 c 7.660015,5.839822 17.731776,14.752023 24.793303,22.837056 z"
       style="fill:#eeeeee;stroke:none"
       clip-path="url(#clipPath4090)" />
  </g>
</svg>
