<?xml version="1.0" standalone="no"?>
<!DOCTYPE svg PUBLIC "-//W3C//DTD SVG 1.1//EN" "http://www.w3.org/Graphics/SVG/1.1/DTD/svg11.dtd" >
<svg xmlns="http://www.w3.org/2000/svg" xmlns:xlink="http://www.w3.org/1999/xlink" version="1.1">
<metadata>
Created by FontForge 20150526 at Tue Jul 19 14:47:22 2016
 By Wray Bowling
Copyright (c) 2015 by mysunday. All rights reserved.
</metadata>
<defs>
<font id="arabella" horiz-adv-x="285" >
  <font-face 
    font-family="arabella"
    font-weight="400"
    font-stretch="normal"
    units-per-em="1000"
    panose-1="0 0 0 0 0 0 0 0 0 0"
    ascent="750"
    descent="-250"
    x-height="347"
    cap-height="777"
    bbox="-219 -353 1188.12 891.182"
    underline-thickness="50"
    underline-position="-100"
    unicode-range="U+000D-2022"
  />
<missing-glyph horiz-adv-x="200" 
 />
    <glyph glyph-name=".notdef" horiz-adv-x="200" 
 />
    <glyph glyph-name="NULL" horiz-adv-x="0" 
 />
    <glyph glyph-name="NULL" horiz-adv-x="0" 
 />
    <glyph glyph-name="nonmarkingreturn" unicode="&#xd;" horiz-adv-x="200" 
 />
    <glyph glyph-name="space" unicode=" " horiz-adv-x="200" 
 />
    <glyph glyph-name="E" unicode="E" horiz-adv-x="470" 
d="M144 598q15 33 40 57.5t59 35.5q25 8 46 10q10 1 21 1l27 -2q24 -4 45 -14q24 -12 39 -29q16 -18 22 -37q6 -18 6 -36v-5q0 -19 -9 -41q-9 -21 -24 -37q-16 -17 -30 -25q-9 -5 -21 -9.5t-23 -2.5q-22 4 -30 24q-5 12 -5 23q1 10 3 18t7.5 19.5t13.5 15.5q12 5 13.5 -2.5
t-3.5 -15.5q-6 -10 -10.5 -18t-5.5 -20q-1 -11 2 -19t14 -12q10 -4 20 -1t19 7q11 5 19.5 14t15.5 18q14 17 22 41q5 14 5 30q0 7 -1 15q-3 22 -19 39q-14 15 -33 24q-22 10 -41 12q-12 1 -24 1q-11 0 -19 -1q-23 -3 -43 -12q-20 -11 -38 -25q-17 -14 -31 -39
q-15 -26 -18 -45q-3 -17 -3 -31v-16q2 -22 15 -46q8 -15 16 -24q7 -7 13.5 -11t12.5 -7.5t14 -12.5q6 -8 1 -15q-3 -3 -11.5 -5t-18 -3.5l-19 -3t-14.5 -4.5q-27 -15 -45.5 -31t-30.5 -34t-19.5 -39.5t-11.5 -46.5q-2 -13 -2.5 -25.5t0.5 -25.5q2 -25 10 -48t23 -41
q8 -10 22.5 -24t34.5 -25t46 -16q8 -1 17 -1q18 0 38 6q24 9 41.5 19t36.5 27q18 13 31 33t21 44q6 18 6 39v6q0 18 -13 43q-12 22 -32 25q-8 1 -15 1q-12 1 -27 -5q-5 -2 -8 -2.5t-7 3.5t-0.5 8.5t9.5 8.5t12 7q1 0 10 2t15 2q12 0 21 -6q16 -9 27 -25q10 -14 14 -33
q4 -18 4 -37t-4.5 -36.5t-11.5 -32.5q-14 -32 -39.5 -56.5t-56.5 -37.5q-25 -10 -49.5 -16.5t-51.5 -6.5q-53 0 -95 24q-20 12 -38 27.5t-30 35.5q-8 12 -15.5 29t-12.5 35t-6.5 35t1.5 30l4 24t7 24q9 21 21.5 40t30.5 33q16 13 31.5 24t33.5 19q20 8 40 13t37 14
q-11 18 -25 32q-19 18 -26 32q-9 19 -15 40q-4 15 -4 31q1 9 1 13q2 14 3 24t5 20z" />
    <glyph glyph-name="F" unicode="F" horiz-adv-x="559" 
d="M279 636q-30 2 -61 2q-2 1 -4 1q-27 0 -56 -6t-48 -15q-23 -9 -39 -31q-18 -25 -25 -37q-9 -16 -9 -36v-8q0 -42 40 -67q19 -12 42 -12q1 0 2 1q24 0 43 14q18 13 25 33q2 5 4.5 11t2.5 13q0 10 10 13q7 1 9 -3t1.5 -10t-2.5 -12.5t-3 -9.5q-7 -28 -25 -42
q-15 -12 -40 -17q-11 -2 -22 -2q-12 0 -22 2q-26 5 -44 22t-25 40q-5 16 -5 34q0 5 1 16q2 22 17 46q13 20 33 35t45 22q50 14 100 14h18q59 -3 119 -6q14 -1 29 -1.5t29 -1.5q16 -2 20 6l10 20q22 47 63 80q31 25 71 25q7 0 16 -1t23 -6q11 -3 22 -11q13 -10 16 -25
q2 -13 -3 -26.5t-14.5 -25.5t-19.5 -19q-20 -14 -48.5 -18.5t-51.5 -6.5q-5 0 -9.5 -0.5t-8.5 -5.5t-6 -12.5t-4 -13.5q-5 -14 -9 -27.5t-9 -27.5q-10 -28 -17.5 -55.5t-15.5 -56.5q-2 -8 -7 -21t-3 -20q2 -4 7 -3.5t7 0.5q7 -1 14 -1.5t14 -1.5q14 -1 26.5 1t25.5 6
q6 2 9.5 7.5t6 11t5.5 9t9 1.5t6.5 -6.5t-2.5 -9.5t-8.5 -10t-11.5 -8q-13 -7 -27 -9t-28 -2q-11 1 -25 3.5t-25 -0.5q-5 -1 -7.5 -5.5t-4 -10t-2 -11.5t-1.5 -9q-14 -56 -30.5 -111t-45.5 -106q-14 -24 -34 -46q-21 -23 -43 -38t-50 -27q-30 -12 -54 -12h-12h-7h-3h-3
q-6 -1 -30 5q-28 7 -49 24q-20 16 -33 39q-12 19 -19 48q-3 12 -3 26t3 27q6 28 20 49q15 25 36 36q11 6 24 12q17 9 25 9h10h7h5q6 1 28 -6q24 -8 38 -29q10 -15 10 -34q0 -5 -1 -10q-2 -11 -10 -11q-7 1 -7.5 6.5t-0.5 10.5q0 11 -1.5 21.5t-9.5 18.5q-9 8 -20 14
q-16 8 -23 8q-3 0 -14 1h-3h-2h-2h-2q-9 1 -28 -11q-27 -17 -42 -32q-18 -20 -26 -48q-4 -14 -4 -27t4 -25q10 -30 19 -48q11 -22 33 -39q32 -25 72 -25h3q41 0 74 26q18 14 30.5 32t23.5 38q11 21 21.5 42t18.5 44q4 12 12.5 41t16.5 60q10 33 15 57t5 30v2q0 3 -9 4
t-19.5 2t-20 1h-11.5q-11 -1 -22 -3.5t-20 -8.5q-4 -3 -8 -7.5t-7.5 -9t-8 -6.5t-8.5 1q-5 4 -2 8t8 9q4 3 7 6.5t8 6.5q13 9 26.5 12t28 2.5t28.5 -2.5t27 -1t15 15t5 24l16 60t16 59q5 15 9 30.5t10 29.5q2 5 -14.5 9t-41 6t-51.5 3.5t-46 1.5zM599 655q8 4 19.5 14
t19 22.5t9 25.5t-10.5 24q-8 6 -18 7t-20.5 -1t-20 -7t-15.5 -10q-10 -8 -15.5 -19t-11.5 -21q-7 -13 -13 -24.5t-9 -25.5q6 -1 12 -1q23 2 32 4q24 5 42 12z" />
    <glyph glyph-name="G" unicode="G" horiz-adv-x="494" 
d="M414 183q-5 -31 -18 -81q-3 -11 -25 -76q-12 -35 -41 -56q-27 -21 -61 -33q-22 -8 -49 -13q-3 -1 -20 -2q-12 -1 -28 3q-20 5 -45 16q-11 5 -21 11t-17 15q-30 39 -30 78v5v4v4v3q-0.129032 1.54839 -0.129032 3.1051q0 22.5723 27.129 46.8949q11 10 29 15q11 3 24 3
q12 0 23 -2q28 -5 43 -18q8 -7 13.5 -15.5t5.5 -19.5q0 -19 -11 -36l-11 -11t-13 -8q-13 0 -13 6.5t7 14.5q4 5 8.5 8.5t7.5 8.5q5 8 4 18q-1 13 -4 18q-4 8 -13 14q-12 7 -18 9q-9 3 -22 3q-6 1 -16 -1q-20 -6 -32 -17q-10 -9 -14 -15l-10 -16q-8 -13 -8 -30q0 -6 2 -12
q5 -18 17 -39q11 -19 31 -30q19 -10 40 -16q15 -4 32 -4q10 0 19 1q29 5 47 16q22 13 27 19q10 11 20 25q4 6 7 11.5t5 12.5q20 51 32 103q4 15 7 30t8 30q4 14 11.5 30t5.5 30q-17 -5 -32 -17t-29 -20q-21 -12 -48 -21q-21 -7 -41 -7h-9q-12 0 -24 -1t-24 0q-25 2 -49.5 10
t-45.5 20q-33 19 -51 53q-16 31 -23 73q-3 19 -3 39t3 39q7 43 18 69q10 23 20.5 47t26.5 42q14 20 31.5 36.5t34.5 29.5q20 16 43 27t46 19q26 9 52 12t52.5 3t50.5 -9q19 -6 43 -23q32 -22 45 -55q14 -34 14 -61v-7q0 -9 -4 -25q-3 -16 -6 -26q-7 -23 -22 -44
q-16 -24 -27 -39q-13 -17 -35 -31q-26 -15 -45 -18q-6 -1 -14 -1q-12 -1 -29 5q-23 8 -35 27q-10 16 -10 33q0 6 1 12q3 23 18 45q6 9 11 14q6 6 15 11q8 5 17 7q13 3 18 3q17 0 23 -2t10 -3q11 -3 6 -11q-5 -10 -12 -9t-12 3q-10 2 -13 2h-8q-10 2 -24 -4q-16 -8 -25 -20
q-14 -19 -14 -34v-8q0 -15 7 -27q12 -21 31 -29q11 -5 23 -5q10 0 20 4q25 10 41 25q16 16 28 37q16 28 21 49q6 22 9 45t3 49t-13 46t-35 31t-45 16q-26 5 -53 5t-49 -9q-24 -11 -45 -24.5t-38 -32.5q-26 -30 -48 -60.5t-36 -66.5q-19 -52 -19 -100q0 -27 6 -51
q6 -26 17 -48t29 -40q8 -9 17 -17.5t19 -14.5q18 -10 40 -12q11 -2 22 0t22 3q6 1 12 1.5t12 2.5q7 2 13 4.5t12 4.5l22 10t21 13q9 7 17 15l16 16q15 19 29 40.5t24 42.5q4 8 7 16.5t11 13.5q4 2 10.5 1.5t14 -3t13.5 -5.5t8 -6q2 -2 2.5 -5.5t-0.5 -5.5q-2 -8 -8 -16
q-9 -12 -10 -14q-9 -17 -16 -35q-1 -3 -12 -38l-12 -38q-5 -18 -8 -37z" />
    <glyph glyph-name="H" unicode="H" horiz-adv-x="878" 
d="M654 741q2 -5 4 -18q1 -8 -2 -15q-9 -19 -20 -32q-14 -14 -31 -24.5t-30 -14.5q-14 -4 -28.5 -6t-28.5 -5q-6 -1 -7.5 -8t-2.5 -12q-17 -65 -27.5 -130.5t-22.5 -131.5q0 -2 -1.5 -6.5t-2 -10t-0.5 -9t3 -3.5l66 8t67 8q16 2 32 5.5t32 7.5q6 2 9 8.5t4.5 14.5t2 16.5
t1.5 14.5q7 32 17 64t24 58q14 28 28.5 53.5t37.5 47.5q9 9 20 18t23 16t25 10t27 0q15 -4 23 -13.5t11 -21.5t3 -26t-1 -27q-2 -28 -13 -55t-26 -50q-17 -23 -38 -45.5t-44 -39.5q-18 -12 -33 -24q-16 -13 -35 -19q-6 -2 -10 -4t-5 -11q-6 -52 -7 -65q-3 -26 -3 -51v-15
q0 -66 25 -121q11 -23 29 -37.5t44 -19.5q12 -2 21.5 0.5t17.5 12.5q4 5 6.5 11.5t4.5 12.5t3.5 13t7.5 5q11 -3 14 -12.5t-1.5 -20.5t-15.5 -21.5t-27 -16.5q-13 -5 -29 -5q-5 0 -8 1q-23 4 -44 14q-12 6 -22 20q-11 16 -19 25q-22 26 -30 52q-6 19 -12 60q-4 27 -4 54v8
q1 31 2 59q0 7 1 14q1 8 -2 13q-2 4 -9.5 2.5t-10.5 -2.5q-6 -1 -22 -2.5t-36.5 -3t-43.5 -4.5t-42 -6.5t-32.5 -9t-15.5 -12.5q-18 -61 -38 -121.5t-57 -113.5q-16 -22 -34.5 -42t-41.5 -34q-24 -16 -51 -21.5t-56 -7.5q-7 -1 -14 -1l-34 4q-24 5 -46 17q-21 12 -40 31
t-24 43q-3 13 -6 27t-4 28q-1 11 1 25t5.5 27.5t9 25.5t12.5 21t15.5 18t18.5 16q22 15 45 19q11 2 21 2q14 0 25 -4q18 -6 31 -26q8 -10 11.5 -21.5t9.5 -21.5q5 5 8.5 11t7.5 12q14 21 37.5 39.5t44.5 29.5q14 8 30 16.5t32 12.5q14 4 20.5 6.5t8.5 17.5q7 38 15.5 76.5
t17.5 76.5q11 38 23 76t16 74q-33 -2 -65.5 -9t-63.5 -16q-15 -5 -41.5 -15.5t-48.5 -28.5q-20 -16 -31 -41q-4 -9 -4 -18q1 -19 12 -37q10 -17 33 -17q14 0 20.5 9.5t16.5 16.5q2 2 9 2t9 -6q2 -5 -0.5 -9.5t-6.5 -7.5q-10 -9 -24 -13t-26 -2q-33 5 -46 31q-9 18 -9 37
q0 9 2 18q7 32 28 51q22 20 50.5 31.5t60 17.5t57.5 10q17 3 34 3.5t34 5.5q9 2 12 8.5t6 14.5q4 9 7.5 18t7.5 17q8 17 20 28t27 21q14 10 28.5 16.5t28.5 8t27 -3.5t25 -19zM190 100q-5 2 -4 6l2 8q6 24 6 33v4v3v3q0 1 0.0714286 2.32143
q0.042065 0.778203 0.042065 1.58338q0 13.6636 -12.1135 35.0952q-12 22 -40 31q-5 2 -21 3q-12 1 -27 -6q-23 -10 -37 -29q-19 -25 -26 -51q-7 -25 -7 -48v-10q0 -23 13 -57q11 -29 32 -48q17 -16 49 -25q17 -5 35 -5l21 2q29 3 54.5 15.5t48.5 31.5q24 20 38 46t25 55
q16 43 27.5 87t15.5 87q-31 -8 -60.5 -21t-52.5 -30q-20 -15 -38 -42t-24 -55q-1 -3 -1 -9t-1.5 -11.5t-5 -8t-10.5 1.5zM858 654q-11 1 -21.5 -6.5t-20 -18.5t-17 -23t-11.5 -20q-16 -29 -26.5 -56.5t-18.5 -54.5t-15 -54t-15 -55q17 4 33.5 15t30.5 22q31 25 60.5 54
t44.5 65q8 20 13 41q4 18 4 35v6q0 19 -11 34q-9 14 -30 16zM547 713q-12 -17 -18.5 -33.5t-11.5 -34.5q-2 -8 2.5 -8t9.5 2q26 6 55 14t46 31q7 8 11.5 19.5t2.5 22.5q-3 10 -11.5 18t-19.5 7q-1 0 -8.5 -2t-18 -6.5t-21.5 -11.5t-18 -18z" />
    <glyph glyph-name="I" unicode="I" horiz-adv-x="482" 
d="M49 303q14 12 49 27q14 6 30 6q15 -1 25 -4q7 -2 25 -8q11 -3 22 -12t19 -20t12 -24q4 -14 1.5 -26.5t-5.5 -24.5q-2 -5 -4.5 -12.5t-7 -14t-10.5 -10t-13 -1.5q-5 1 -4 6.5t4 11.5t7 12t6 8q7 13 11 26.5t1 27.5q-4 14 -13 24t-21.5 17t-26.5 10t-27 3q-32 0 -56 -16
t-40 -41q-17 -26 -22 -55q-3 -16 -3 -32q0 -12 2 -26q4 -28 21 -56q16 -26 39.5 -43.5t51.5 -25.5q18 -5 37 -5q11 0 23 2q6 1 28 7q14 3 26 11t23.5 17t21.5 20q20 20 32 45t21 51q45 120 72 250q8 33 16 65.5t15 65.5q6 30 15 61q1 3 3.5 9t4 12t1 10.5t-6.5 4.5h-19
l-49 -2q-34 -2 -67 -4q-17 -1 -65 -7q-32 -4 -63 -16q-26 -9 -47 -19t-32 -37q-4 -11 -4 -23.5t4.5 -23.5t13 -19.5t21.5 -10.5q11 -2 21 0t18 9q6 5 11 10t11 10q7 5 12 5.5t8 -7.5q5 -14 -4.5 -22t-19.5 -13q-13 -8 -25.5 -11.5t-28.5 0.5q-29 7 -43 29q-10 16 -10 36
q0 6 1 15q3 28 24 47q19 17 46 29t62 17q46 9 64 11q15 2 68 4q38 1 67 4q10 1 23 -1q15 -1 20 11q5 13 13 27q5 8 17 24q18 24 39 36q22 13 47 13h4q25 0 46 -19q4 -3 9 -8t4 -11q0 -14 -3 -27q-4 -15 -13.5 -24t-22 -14t-26.5 -7.5t-27 -3.5q-8 -2 -16.5 -2.5t-16.5 -1.5
q-13 0 -15 -8q-4 -15 -7 -30.5t-6 -30.5q-6 -34 -12 -64.5t-14 -61.5q-7 -30 -13 -60t-14 -59q-4 -14 -7.5 -29t-8.5 -29t-11 -28q-6 -18 -10 -28l-22 -55q-14 -29 -29 -53t-33 -45q-18 -24 -40 -39q-51 -35 -101 -35h-10h-9l-85 26q-46 28 -66 81q-5 12 -8 25t-5 26
q-1 7 -2 13t-1 13q0 19 5.5 37t13.5 33.5t17 27t16 17.5zM581 676q11 2 21 4t18 10q6 6 12 14t8 17t0.5 17.5t-10.5 14.5q-6 5 -29 9q-5 1 -13 -1q-25 -7 -38 -19t-20 -33q-7 -19 -11 -38z" />
    <glyph glyph-name="J" unicode="J" horiz-adv-x="543" 
d="M712 802q8 -9 6 -24q-1 -12 -4 -23q-4 -15 -12 -25.5t-19 -18.5t-24 -14l-26 -12q-13 -7 -27 -9.5t-28 -5.5l-30 -7q-9 -2 -13 -5.5t-8 -13.5q-11 -32 -19.5 -63.5t-16.5 -64.5t-13.5 -65.5t-10.5 -65.5l-11 -64q-1 -3 -2.5 -10t3.5 -9q7 -1 15 1t15 3q13 2 30 5.5
t34.5 8.5t32.5 12t25 17q5 5 8.5 -2t2.5 -12v-1q0 -10 -12 -17t-30 -12t-39.5 -8.5t-40.5 -6t-32.5 -5.5t-15.5 -7q-6 -11 -7 -22.5t-3 -23.5q-3 -18 -6 -35.5t-8 -34.5q-8 -29 -23 -57.5t-32 -54.5q-14 -22 -33.5 -43.5t-42 -38.5t-48.5 -27t-54 -10q-31 0 -59 5
q-26 6 -54 23q-24 14 -39 43q-14 25 -22 53q-4 14 -4 29q1 8 1 11q0 15 8 39q3 9 8 16q7 11 10 15q10 13 11 15q3 4 13 12q15 12 34 16q13 3 25 3q8 -1 11 -1q18 0 32 -12q12 -10 24 -24q8 11 13 22t14 22t20 20.5t22 17.5q21 14 40 23t38 14q8 2 16 2t16 2q5 1 8 7
t4.5 13.5t2 15t1.5 11.5l16 69l27 132q4 16 9 31t11 30l12 28q3 6 6 13t-8 7q-33 -2 -66 -3.5t-66 -3.5q-64 -3 -129.5 -11.5t-123.5 -37.5q-12 -6 -25 -12q-13 -7 -20 -18q-8 -13 -13 -36q-2 -10 -2 -20t2 -19q4 -19 17 -35q10 -14 35 -22q10 -3 18 -3q19 1 35 11
q27 15 41 38q6 10 7 22v24q0 3 -2 11q-2 6 0 11q3 8 9 8q4 1 10 -5q7 -7 7 -23q-1 -16 -3 -26q-5 -24 -23 -45t-45 -32q-17 -7 -33 -7q-10 0 -21 3q-22 6 -43 23t-26 41q-3 14 -2 25q0 15 2 26q3 17 12 26q10 11 21 22q13 13 35 22q28 12 40 17q24 10 48 13q23 3 49 7
q41 7 99 11q49 4 98 7l48 3q8 0 16.5 1.5t15.5 6.5q8 6 12 14t9 15q8 9 15.5 17t14.5 17q13 17 25.5 31t32.5 24q14 7 31 14q15 7 32 10q13 2 18 2q10 -1 14 -2q14 -1 26 -14zM173 180q-9 11 -18 16q-12 8 -23 8q-25 0 -44 -14q-19 -16 -30 -36q-16 -29 -16 -54v-11
q-0.4 -3.8 -0.4 -7.8q0 -16 6.4 -35.2q8 -23 26 -48q18 -24 42 -37q3 -1 49 -13q4 -1 9 0q41 7 59 15q21 9 24 11q11 6 20 17q10 11 18.5 23t15.5 26q6 13 10.5 26.5t9.5 27.5q6 16 9.5 32t7.5 33l15 64q1 3 3.5 12t5 18.5t3.5 18t-2 10.5q-5 2 -17.5 -2.5t-17.5 -6.5
q-11 -3 -20 -6.5t-18 -9.5q-17 -11 -35 -22.5t-32 -26.5q-12 -12 -21.5 -29.5t-11.5 -34.5q-1 -6 1 -13t-1 -13q-5 -10 -12 -5l-4 16q-2 8 -4 25q-1 19 -7 26zM588 753q-11 -12 -18.5 -25.5t-15.5 -26.5q-1 -2 -3 -5.5l-4 -7t-2 -6.5t4 -3q7 -1 14.5 1.5t14.5 4.5
q13 3 26.5 6t26.5 8q11 5 21.5 12.5t20.5 13.5q11 8 19.5 17.5t11.5 22.5q2 5 3 11.5t-1 11.5q-8 13 -25 12t-35.5 -9.5t-34.5 -19.5t-23 -18z" />
    <glyph glyph-name="K" unicode="K" horiz-adv-x="641" 
d="M236 45q-16 -20 -37.5 -37t-45.5 -26t-50 -9t-51 14q-24 12 -36.5 34t-16 47.5q-1.44118 10.5 -1.44118 21.1696q0 15.2422 2.94118 30.8304q5 26.5 17 47.5q11 21 29.5 36t42.5 18q5.71429 0.571429 11.5918 0.571429q14.6939 0 30.4082 -3.57143q22 -5 31 -26
q5 -13 4 -27.5t-6 -27.5q-5 -16 -16 -27q-3 -3 -6 -5.5t-6 -5.5q-4 -3 -10 -4t-8 2q-4 5 -1 10t8 10t9 10l8 10q9.375 16.875 9.375 33.3594q0 9.89062 -3.375 19.6406q-4 15 -15.5 18.5t-25.5 1.5t-27.5 -8t-21.5 -11q-22 -14 -32 -35.5t-13 -45.5
q-0.857143 -7.42857 -0.857143 -15.1429q0 -19.2857 5.35714 -40.3571q7.5 -29.5 27.5 -46.5q21.4359 -18.5128 49.9921 -18.5128q0.751479 0 1.50789 0.0128205q29.5 0.5 53.5 12.5q27 14 40.5 36t24.5 48q24 63 43 127t34 130q7 29 13 58t14 58q7 29 15 59t14 60
q0 2 2 7.5t0 7.5q-2 3 -9.5 1.5t-9.5 -2.5q-17 -2 -32.5 -4.5t-31.5 -4.5q-30 -5 -59.5 -11.5t-58.5 -17.5q-24 -8 -48.5 -24t-32.5 -42q-3.6 -12.6 -3.6 -27q0 -9.6 1.6 -20q4 -26 24 -39q17 -11 39 -11t37 15q13 12 13 32q0 6 -1 11.5t-2 10.5q-1 7 1 13t8 8q8 2 9.5 -4.5
t3.5 -14.5q3 -16 -1 -30q-6 -24 -25 -39q-17 -13 -38.5 -16.5q-5.18966 -0.844828 -10.1754 -0.844828q-15.6694 0 -29.3246 8.34483q-23 12 -33 36.5q-8.33333 20.4167 -8.33333 41.1806q0 4.15278 0.333333 8.31944q3 26 18.5 46t37.5 33q27 17 58.5 24t62.5 14
q47 11 96 16q7 1 15.5 1t13.5 5q5 4 6 10.5t3 11.5q3 6 6 12.5t6 11.5q14 26 35 48q17 18 43 23.5q8.17143 1.72857 15.9478 1.72857q16.9665 0 32.0522 -8.22857q14 -8 17.5 -20.5t0 -26t-12 -26t-18.5 -19.5q-14 -10 -31 -15t-34 -7q-14 -2 -21 -11q-10 -17 -11.5 -37
t-5.5 -40q-9 -41 -16.5 -80t-16.5 -78l-2.5 -7.5t-2 -9t0 -8t4.5 -4.5q13 -5 28.5 -5.5t29.5 0.5q29 2 56.5 13t48.5 32q22 22 35 47.5t24 53.5q13 30 24.5 60.5t25.5 60.5q10 21 24 44t33 39.5t42 23q8.54286 2.41429 17.6376 2.41429q15.391 0 32.3624 -6.91429
q5 -3 10.5 -6t9.5 -8q3 -5 -0.5 -7t-7.5 0q-5 2 -10 6t-11 6q-9.5 4 -18.125 4t-16.375 -4q-15.5 -8 -26.5 -23q-26 -38 -39 -81.5t-29 -85.5q-16 -39 -33 -74t-49 -64q-30 -28 -65 -40q-21 -8 -42 -8t-42 -5q8 -9 18.5 -16.5t18.5 -16.5q20 -21 30 -46q5 -14 9 -29t9 -29
q5 -17 11 -34l12 -34q3 -9 9 -23.5t14.5 -26.5t20 -18t25.5 0q9 4 18 16q3 4 7 7.5t9 -1.5q4 -4 1 -10t-8 -11.5t-11 -10t-9 -6.5q-18.375 -12.25 -39.8125 -12.25q-3.0625 0 -6.1875 0.25q-25 2 -45 16q-24 17 -36.5 44.5t-19.5 54.5q-7 31 -13 62t-17 60q-4 10 -11.5 21
t-17 21t-21 17t-23.5 9q-4 -14 -12 -47t-20.5 -72.5t-29.5 -79t-38 -66.5zM488 717q-10 3 -18.5 -3.5t-15.5 -13.5q-15 -14 -25 -32t-17 -38q-4 -11 -2.5 -13.5t12.5 -0.5q10 2 19.5 3.5t19.5 5.5q20 8 34.5 25.5q12.7424 15.3788 12.7424 33.4605
q0 2.49403 -0.242424 5.03949q-1 9 -6 17t-14 11z" />
    <glyph glyph-name="L" unicode="L" horiz-adv-x="529" 
d="M635 509q-11 -26 -25.5 -51.5t-35.5 -46.5t-45 -38t-52 -29q-13 -5 -26.5 -8.5t-26.5 -9.5q-15 -7 -18 -18t-7 -25q-8 -32 -16.5 -63t-21.5 -61q-14 -29 -29 -57t-33 -55q-4 -6 7.5 -15.5t28.5 -19.5t34 -18.5t24 -11.5q28 -12 56 -22q33 -13 58 -13h6h5q18 -2 39 14
q2 1 7 8q4 6 9 11t9.5 7.5t8.5 -2.5q8 -11 5.5 -21.5t-11 -18.5t-19.5 -14q-11 -5 -22 -7t-25 -2q-18 0 -33 4q-28 9 -55 21q-36 16 -55 27q-27 15 -53 32q-3 2 -8 6.5t-10.5 8.5t-11 6.5t-9.5 0.5t-7 -6q-4 -7 -6 -9q-5 -6 -11 -11q-1 -2 -12 -11q-29 -23 -48 -23h-7
q-24 1 -42 14q-11 8 -15 18q-5 12 -4 23.5t7.5 22t17.5 16.5q12 7 27 8.5t28 -0.5q5 -1 12.5 -4t15 -5t14 -1.5t8.5 7.5q11 32 22.5 65t22.5 65q1 4 7 22t12 37.5t10 35.5q3 17 -1 17q-19 2 -38 2q-15 0 -25 -1h-9h-4q-19 -1 -46 9q-65 24 -106 50q-48 31 -79 82
q-23 38 -23 81q0 20 5 40q8 34 19 53q11 21 35 42q21 19 50 19q1 1 3 1q27 0 51 -11q26 -12 35.5 -37.5t14.5 -50.5q2 -9 -4 -17t-17 -2q-5 3 -5.5 9t-0.5 11q0 8 -1 17q0 12 -2 17q-12 30 -28 43t-38 13q-7 0 -11 -1q-13 -3 -25 -10q-13 -7 -24 -17.5t-19.5 -22.5
t-12.5 -23q-13 -35 -13 -62v-9q0 -23 11 -53q19 -51 62 -86q26 -21 52 -33q31 -14 55 -22q23 -7 62 -12q17 -2 35 -2q15 0 28 1q9 0 17 0.5t12 10.5q9 23 16.5 50.5t15 56.5t15.5 59t19 58q8 23 18 43.5t22 41.5q9 16 21 33t27 30q14 13 33 22q17 8 36 8h4q41 0 71 -38
q14 -18 17 -45q1 -9 1 -19v-6q1 -8 -3 -28q-7 -36 -13 -52q-9 -25 -16 -43zM636 692q-10 16 -16 21q-9 7 -24 13q-11 4 -24 0t-24 -13t-20.5 -20t-15.5 -20q-17 -23 -29 -54t-21 -65t-15 -66.5t-11 -57.5q-4 -15 -7.5 -30t-7.5 -31q-1 -5 -3 -11.5t0 -11.5q1 -2 5 -2t8 1.5
l8 3t6 1.5q28 11 56 30t47 40q19 23 37 49q20 30 31 53q20 42 30 84q2 3 3 28q0 2.74132 -0.263784 5.39622q-3.73622 37.6038 -12.7362 52.6038zM148 32q-0.782609 -5.86957 -0.782609 -11.0926q0 -34.8204 34.7826 -40.9074q3.67742 -0.580645 7.1488 -0.580645
q14.4641 0 25.3512 10.0806q13.5 12.5 23.5 26.5q1 1 4 6t5.5 10t4 9.5t-1.5 5.5q-11 4 -21 7l-20 6q-1 0 -9.5 0.5t-19 -2t-20 -8.5t-12.5 -18z" />
    <glyph glyph-name="a" unicode="a" horiz-adv-x="343" 
d="M12 154q5 14 9 28.5t11 28.5q13 29 29.5 53.5t40.5 45.5q21 19 46.5 32q23.6786 12.0714 50.375 12.0714q2.05357 0 4.125 -0.0714286q12 -1 26 -6q6 -3 9.5 -4.5t9.5 3.5q6 4 12.5 9.5t13.5 10t14 6t15 -1.5q10 -4 6.5 -16.5t-12.5 -27.5t-19 -28.5t-13 -17.5
q-16 -28 -21.5 -60.5t-11.5 -62.5q-6 -32 -8.5 -65q-0.431034 -5.68966 -0.431034 -11.3199q0 -27.025 9.93103 -52.6801q5 -12 13.5 -20.5t22.5 -4.5q14 5 24 14t17 20q10 16 18 32t14 33q3 9 6 21.5t6.5 23.5t7.5 19t8 8q3 0 2 -6.5t-3.5 -15t-6 -17.5t-5.5 -15
q-4 -12 -8 -25t-10 -25t-12.5 -24t-14.5 -23t-18 -19.5t-24 -12.5q-8 -3 -20.5 -1t-20.5 5q-11 5 -18.5 13.5t-13.5 18.5q-12 21 -15 44q-2 14 0 28t-3 27q-14 -16 -22.5 -37.5t-20.5 -39.5q-10 -15 -24.5 -30t-32.5 -18q-6.4 -1.2 -12.96 -1.2q-9.84 0 -20.04 2.7
q-17 4.5 -27 18.5q-5 7 -7 15l-4 16q-5.52381 30.9333 -5.52381 53.1995q0 22.0862 9.52381 47.8005zM62 19q6 -8 18 -3t20 10q20 14 31.5 38.5t22.5 46.5q7 12 12.5 24.5t9.5 26.5q4 12 10 23.5t9 23.5q7 26 13 53t19 51q2 4 5 9t3 9q-1 5 -6.5 6t-8.5 2q-10 2 -20.5 -0.5
t-19.5 -6.5q-11 -5 -18.5 -12.5l-15.5 -15.5q-10 -11 -18.5 -21t-16.5 -22q-6 -11 -13 -22t-13 -22q-6 -12 -9.5 -24.5t-8.5 -25.5q-20 -55 -23.5 -89q-0.480392 -4.66667 -0.480392 -9.16378q0 -28.2676 18.9804 -49.8362zM292 338q3 5 6.5 10.5t2.5 12.5q-11 -6 -16 -18
q-2 -5 -4.5 -12.5t-0.5 -12.5q2 2 6 8.5t6 11.5z" />
    <glyph glyph-name="b" unicode="b" horiz-adv-x="327" 
d="M24 333q6 32 13.5 64t18.5 61q11 32 24.5 59l27.5 55q15 28 34 54t42 45q9 7 20.5 15t24 13t25.5 4.5t24 -9.5q10 -9 12 -22t-1 -27t-8 -28t-8 -24q-11 -30 -25.5 -59t-28.5 -58q-11 -23 -23.5 -47t-26.5 -44q-16 -23 -32.5 -46.5t-34.5 -44.5q-9 -11 -19 -20.5
t-21 -19.5q-9 -8 -9 -25t-2 -29q-2 -15 -3 -30l-2 -30q-1 -14 -2.5 -29t3.5 -28q5 6 8 13t5 15q20 47 41.5 91t50.5 82q11 14 24 29t29 23q13 7 28.5 6t26.5 -12q13 -14 18 -29.5t9 -32.5q2.5 -16 2.5 -31.625t-2.5 -30.875q-5 -30.5 -14 -58.5q-3 -8 -6.5 -16t-5.5 -16
q8 1 15 4.5l15 7.5q15 7 32 17q8 4 14.5 8t11.5 10t10.5 14.5t11.5 3.5q5 -4 2.5 -8.5t-8 -10t-12.5 -10t-11 -8.5q-12 -8 -24.5 -16t-25.5 -14q-12 -5 -25 -8.5t-21 -14.5q-8 -13 -15.5 -26t-18.5 -24q-10 -10 -20.5 -18.5t-23.5 -13.5t-29 -9.5t-30 1.5q-10 4 -14.5 13.5
t-0.5 19.5q4 14 13 21.5t21 13.5t25 8.5t24 7.5q12 6 16 16t10 21q15 27 26.5 55t17.5 58q3 12 5 27t0.5 28t-8.5 23t-22 13q-12 2 -21.5 -4t-16.5 -15q-11 -12 -22 -24.5t-20 -26.5q-26 -44 -48.5 -91t-33.5 -97q-3 -13 -5.5 -25.5t-5.5 -26.5q-2 -9 -9.5 -8.5t-14.5 2.5
q-10 3 -15 10t-7 15.5t-2 18v18.5h-1q0 21 1 52.5t4 67.5t7.5 73t11.5 69zM61 270q11 8 21 19t19 22q11 12 19.5 24.5t16.5 26.5q17 28 33.5 56t30.5 57q7 14 14 29t14 29q13 25 25 54t17 55q1 4 2.5 11.5t2 15t-1 13.5t-7.5 8q-11 2 -23.5 -6t-20.5 -15q-21 -18 -37 -40
q-20 -25 -35.5 -50t-27.5 -54q-11 -29 -19.5 -59t-16.5 -59q-4 -13 -9.5 -33t-10 -40.5t-6.5 -38t0 -25.5zM117 12q5 -3 11.5 1.5t10.5 7.5q12 10 21 23.5t14 27.5q-11 0 -22.5 -5t-22.5 -10q-9 -4 -15 -10.5t-7 -16.5q2 -13 10 -18z" />
    <glyph glyph-name="c" unicode="c" horiz-adv-x="251" 
d="M71 66q2 -12 6.5 -23.5t15.5 -19.5t24 -8t25.5 4.5t23.5 12t20 15.5q23 18 40 42.5t28 50.5q2 6 5 14t6 15t6.5 11.5t6.5 2.5q4 -3 3 -10t-4 -15t-7 -16.5t-7 -14.5q-13 -27 -30.5 -53.5t-43.5 -43.5q-25 -17 -54 -25.5q-13.3243 -3.90541 -26.8598 -3.90541
q-15.924 0 -32.1402 5.40541q-29 9 -45 31.5t-22 50q-4.8 22 -4.8 45.6q0 5.9 0.3 11.9q1.5 30 7.5 54q5 27 16 52t25 48q15 23 34 44.5t43 33.5q22 11 48 14q4.58824 0.529412 9.08304 0.529412q20.9758 0 39.917 -11.5294q19 -11 24 -34q2 -6 1.5 -12.5t-1.5 -13.5
q-2 -10 -4 -18t-11 -5q-6 2 -5 8.5t3 13.5t3 13.5t-1 14.5q-2 10 -8.5 20t-18.5 12q-11 2 -22 -2.5t-21 -12t-18 -17t-13 -18.5q-16 -23 -28.5 -48.5t-23.5 -51.5q-5 -13 -9 -25.5t-6 -26.5q-2 -6 -2.5 -12t-1.5 -12q0 -5 0.5 -15q0.485661 -9.71323 -4.21775 -9.99178
q0.249022 -0.930206 0.717753 -3.50822q1 -5.5 2.5 -15.5t3.5 -21.5t4 -21.5z" />
    <glyph glyph-name="r" unicode="r" horiz-adv-x="268" 
d="M122 121q1 12 3.5 24t3.5 23q1 10 5 21.5t7.5 23t6.5 22.5t2 19q-10 -5 -17 -18.5t-14 -22.5q-9 -11 -19.5 -22t-21.5 -22q-7 -7 -19 -15.5t-24 -12t-21.5 1t-11.5 22.5q-0.62069 6.62069 -0.62069 13.1772q0 25.1332 9.12069 49.3228q11.5 30.5 17.5 61.5q3 15 7.5 31.5
q3.68182 13.5 3.68182 25.9959q0 2.77686 -0.181818 5.50413q-1 14 5.5 20.5t20.5 1.5q15 -5 19.5 -16t4 -25t-5 -28t-7.5 -24q-5 -15 -10 -29.5t-8 -29.5q-1 -4 -2.5 -11.5t-1.5 -14.5t3 -10.5t12 0.5q10 5 22 17t23.5 26.5t21.5 29t16 23.5q6 10 12.5 21.5t17.5 15.5
q9 2 19.5 -1t12.5 -14q1 -8 -1.5 -23t-6.5 -31.5t-8.5 -31t-5.5 -21.5q-5 -29 -9.5 -58t-9.5 -58q-2 -14 -3 -26t7 -25q7 -12 16.5 -6t17.5 12q22 17 37 39l30 44q8 10 12 21.5t12 21.5q2 2 5.5 4.5t5.5 -1.5t-1 -9.5t-5 -8.5q-15 -26 -31.5 -52.5t-36.5 -49.5
q-14 -17 -36 -32q-14.3478 -9.78261 -29.5463 -9.78261q-8.10586 0 -16.4537 2.78261q-16 7 -26 25q-13.8378 19.8919 -13.8378 38.2878q0 2.87436 0.337838 5.7122q2.5 21 4.5 46z" />
    <glyph glyph-name="M" unicode="M" horiz-adv-x="866" 
d="M814 530q4 4 9.5 12t10 15q2.93347 4.56318 4.80456 7.42655q14.8326 20.7817 28.1954 41.0734q13.5 20.5 17.5 46.5q1 10 -2.5 15.5t-14.5 6.5q-9 1 -18 -3t-16 -9q-13 -10 -22.5 -24t-17 -30t-13.5 -33.5t-12 -33.5q-5 -12 -8.5 -12.5t-14.5 5.5q1 -4 2 -9t4 -7
q5 -2 7.5 -1.5t0.5 -7.5q-4 -12 -8.5 -24.5t-5.5 -25.5q13 5 21 16.5t22 14.5q-2 -10 -9.5 -18t-14.5 -16l-13.5 -13.5t-11.5 -14.5q-9 -18 -15.5 -51.5t-10.5 -71.5t-5 -74t-1 -58q0 -16 1.5 -35.5t6.5 -39t13.5 -37.5t22.5 -30q17 -14 36.5 -16
q5.57143 -0.571429 11.1837 -0.571429q14.0306 0 28.3163 3.57143q11 2 19 9.5t15 15.5t13.5 18.5t14.5 3.5q7 -6 0.5 -13t-12.5 -14q-10 -12 -20 -18q-22 -15 -53 -17q-3.18182 -0.181818 -6.30579 -0.181818q-31.2397 0 -56.6942 18.1818q-11 8 -19.5 21.5t-16.5 24.5
q-18 29 -24.5 68.5t-9.5 78.5q-1 20 -1 40t2 40q0 17 3 33t4 34q-12 -8 -22.5 -19.5t-20.5 -21.5q-14 -19 -31 -36t-34 -36q-9 -11 -19 -21.5t-20 -21.5q-8 -9 -1 -23.5t10 -24.5q4.41379 -13.2414 4.41379 -27.5482q0 -11.6243 -2.91379 -23.9518q-6.5 -27.5 -27.5 -44.5
q-8 -6 -19.5 -9t-21.5 1q-11 4 -16 16t-6 23q-1 13 3 25t11 23q2 3 6 8t8 11t6 11.5t0 10.5q-17 42 -37 81t-39 81q-6 11 -11.5 24.5t-13.5 23.5q-12 -40 -27 -77.5l-31 -77.5q-17 -35 -32 -70.5t-39 -69.5q-14 -20 -32.5 -41t-40.5 -37q-11 -8 -24.5 -12t-27.5 -6t-26 -3
t-26 4q-12 4 -23.5 10.5t-19.5 15.5q-7 7 -13.5 18.5t-11 24.5t-5.5 26.5t2 24.5q5 13 9.5 22t9.5 16t11.5 14.5t15.5 19.5q7 9 18 14.5t23.5 7t25 -0.5t21.5 -8q22 -13 30 -36q2 -10 0 -24.5t-13 -17.5q-7 -2 -8.5 1.5t-0.5 9.5t3 12.5t2 9.5q1 11 -4 20t-13 14
q-14 9.8 -30.205 9.8q-6.945 0 -14.295 -1.8q-24.5 -6 -40.5 -22q-12 -13 -20.5 -30t-13.5 -34q-3.04762 -11.4286 -3.04762 -22.059q0 -17.2744 8.04762 -32.441q13 -24.5 36.5 -38.5t52.5 -16q3.625 -0.25 7.17188 -0.25q24.8281 0 45.8281 12.25q23 14 41 35t32 44
q15 25 28.5 53t27.5 57q13 30 25.5 60.5t24.5 61.5q8 18 14.5 36.5t13.5 38.5q5 14 -3.5 30t-14.5 29l-34 84t-28 96q-3 17 -5.5 33t-4.5 33q-1 9.5 -1 19.25t1 19.75q2 20 9 39t19.5 35t32.5 28q11 6 27 7t28 -2q13 -4 22.5 -13t16.5 -20q15 -26 15.5 -58
q0.0714286 -4.57143 0.0714286 -9.08163q0 -27.0612 -2.57143 -51.9184q-4 -32 -8.5 -63.5t-12.5 -63.5q-5 -17 -8.5 -33.5t-7.5 -33.5q-2 -8 -3.5 -16t-3.5 -16q-2 -6 1.5 -13t5.5 -13q18 -46 41 -89.5t42 -92.5q3 -8 6.5 -15t6.5 -15q2 -3 5 -13t8 -12q6 -2 11 5.5t8 11.5
q5 6 11 12t11 12q15 17 29 35t32 36q10 11 20 20.5t20 19.5q18 16 24 41q5 14 8.5 28t8.5 28q1 4 2.5 10.5t3.5 13t5.5 10.5t9.5 3q8 -2 5 -6t0 -8q3 -3 8 -4t5 6q0 10 -7 15q-2 2 -7.5 1t-6.5 2q-1 5 3 12.5t6 12.5q16 32 32.5 63.5t39.5 61.5q6 7 17 14.5t23 11.5
t23.5 2.5t19.5 -10.5q9 -11 9.5 -23.5t-4.5 -24.5t-13 -24t-15 -21q-9 -12 -18 -25l-18 -26q-8 -10 -15.5 -21t-18.5 -18q-2 7 -1.5 9.5t5.5 8.5q4 5 7.5 9.5t7.5 9.5zM398 501q15 55 25.5 107.5t15.5 105.5q2 21 2 49.5t-12 48.5q-9 17 -25.5 28
q-8.64286 5.7619 -17.9717 5.7619q-8.48073 0 -17.5283 -4.7619q-20 -10 -28 -27.5t-10 -37.5q-1 -12 -2 -23.5t1 -22.5q11 -48 23.5 -94t30.5 -95q3 -10 6.5 -20.5t8.5 -19.5zM475 70q18 -2 25.5 7.5t8 23t-3 27.5t-6.5 21q-5 14 -13 0q-4 -6 -7.5 -12t-5.5 -12
q-3 -6 -5 -13.5t-3 -15.5t1.5 -15t8.5 -11zM838.305 564.427q0.999199 1.5291 1.69544 2.57345l-2 -3q0.152359 0.213303 0.304564 0.426553z" />
    <glyph glyph-name="N" unicode="N" horiz-adv-x="608" 
d="M641 601q-8 -14 -14 -29t-11 -30q-16 -50 -33.5 -97t-31.5 -96q-9 -32 -16.5 -64t-16.5 -64q-2 -7 -4.5 -14t-2.5 -14q1 -8 3.5 -14.5t4.5 -12.5l12 -32t12 -31q5 -11 10 -25.5t6.5 -28.5t-2.5 -26.5t-17 -19.5q-15 -8 -27 -5t-20.5 12t-14 22.5t-8.5 26.5
q-3.84615 18.4615 -3.84615 37.2189q0 5.62722 0.346154 11.2811q1.5 24.5 5.5 48.5q2 13 4.5 25.5t4.5 25.5q2 14 -2 23t-9 20q-10 23 -20 45t-21 45q-5 11 -10.5 23t-11.5 24q-5 10 -10.5 24t-13.5 22q-7 -11 -8 -27.5t-3 -29.5q-11 -51 -24 -100t-33 -94
q-12 -29 -25.5 -58.5t-31.5 -54.5q-9 -12 -19 -22.5t-21 -20.5t-22.5 -21t-25.5 -18q-29 -13 -57 -19q-7.30435 -1.56522 -14.6767 -1.56522q-20.8885 0 -42.3233 12.5652q-23 14 -37.5 38.5t-18.5 50.5q-0.486486 4.21622 -0.486486 8.37984q0 21.5121 12.9865 41.6202
q15.5 24 41.5 32q10.3871 3.16129 21.3861 3.16129q13.3559 0 27.6139 -4.66129q26 -8.5 34 -33.5q1 -2 2 -8t0.5 -12t-2.5 -10t-8 -2t-7 8.5t-2 11.5q-1 8 -2.5 14.5t-6.5 12.5q-8 11 -19.5 13.5t-23.5 -0.5t-23 -10t-18 -15q-10 -12 -13 -25t-1.5 -26.5t7 -27t13.5 -24.5
q14 -21 35 -30q11.8125 -5.0625 24.8906 -5.0625q10.1719 0 21.1094 3.0625q23 6 44 23.5t33 34.5q18 24 31 49t25 52q13 29 22 59t19 60q10 32 19 64.5t17 64.5q7 25 11 50t12 50q2.25 8.625 2.25 16.6875q0 13.4375 -6.25 25.3125q-6 13 -10.5 25.5t-9.5 25.5t-9 24t-5 25
q-1 9 -1 23.5t8 21.5q8 9 17 8.5t17.5 -6.5t15 -14.5t10.5 -15.5q11 -20 14 -48.5t3 -49.5q-1 -26 -5.5 -52.5q-1.62 -9.54 -1.62 -19.0152q0 -16.8448 5.12 -33.4848q4 -12 10.5 -23.5t11.5 -22.5q13 -26 24.5 -51.5t24.5 -51.5q5 -12 10.5 -25.5t13.5 -24.5q6 14 9.5 29
t7.5 29l18 66q17 56 33.5 96t30.5 78q11 30 25.5 58t29.5 54q8 12 17 23.5t18 22.5q17 19 41.5 33t51.5 19.5q12.913 2.63043 25.7117 2.63043q13.9622 0 27.7883 -3.13043q26.5 -6 46.5 -25q18 -16 27 -38q7.52941 -16 7.52941 -32.8858q0 -18.526 -6.52941 -38.1142
q-6 -18 -16 -33.5t-21 -26.5q-17 -19 -43.5 -30q-22.4231 -9.30769 -43.0562 -9.30769q-3.75148 0 -7.44379 0.307692q-19 2 -36 16.5t-23 32.5q-2 5 -4 13t2 13q5 8 11 2t8 -11q6 -16 15.5 -30t28.5 -18q9.16667 -2.08333 17.3785 -2.08333q11.4965 0 21.1215 4.08333
q16.5 7 33.5 21q22 19 36 41t16.5 44.5q0.462963 4.16667 0.462963 8.28189q0 18.107 -8.96296 35.2181q-11 21 -38 38q-9 7 -17.5 11t-19.5 6q-3.33333 0.333333 -6.73611 0.333333q-17.0139 0 -35.7639 -8.33333q-22.5 -10 -45 -29.5t-43.5 -47t-36 -61.5zM505 16
q12.6 -5.4 20.88 -5.4q5.52 0 9.12 2.4q9 6 11 19.5t-1.5 29.5t-7.5 28q-3 11 -7 20.5t-8 19.5q-4 8 -7 17.5t-10 15.5q-5 -15 -9.5 -35.5t-6 -41.5q-0.5 -7 -0.5 -13.7778q0 -13.5556 2 -26.2222q3 -19 14 -30zM352 652q-2 5 -4 10.5t-7 7.5q-14 4 -18 -5t-3 -22.5
t4.5 -26.5t5.5 -17q6 -15 11.5 -31t13.5 -30q5 12 5 26.5t1 28.5q0 -2 -0.5 5t-2 16.5t-3 20.5t-3.5 17z" />
    <glyph glyph-name="O" unicode="O" horiz-adv-x="595" 
d="M191 20q-26 14 -45.5 36t-33.5 47q-8 14 -13.5 28.5t-10.5 28.5q-9.52381 33.3333 -9.52381 63.0385q0 1.48526 0.0238095 2.96145q0.5 31 0.5 66q2 36 8.5 68.5t14.5 63.5q3 13 6.5 23.5t-11.5 16.5q-24 10 -42.5 30t-30.5 43q-13 25 -18.5 52.5
q-2.88095 14.4048 -2.88095 28.9467q0 13.22 2.38095 26.5533q4 26 16.5 53t35.5 41q11 6 25 10t28 4t27 -5t21 -16q1 -2 4 -7t5 -10.5t2 -10t-6 -5.5t-10 2t-7 7.5t-6 10t-7 8.5q-13.6216 10.5946 -31.5383 10.5946q-5.75895 0 -11.9617 -1.09459q-25.5 -4.5 -40.5 -20.5
q-20 -20 -26 -48.5t-6 -55.5q0 -29 12 -57t32 -48q10 -11 21.5 -19t23.5 -15q6 -4 10.5 0t8.5 11t6 14.5t4 11.5q14 27 30 53t38 47q23 23 47.5 42t53.5 34q19.1304 10.5217 41.9206 10.5217q1.03592 0 2.0794 -0.0217391q24 -0.5 44 -14.5q18 -14 25 -39q1 -5 1 -10.5
t2 -10.5q3 -6 9 -9l12 -6q26 -13 47.5 -32t35.5 -45t23 -58t11 -61q0.4 -9.8 0.4 -19.56q0 -39.04 -6.4 -77.44q-8 -48 -22 -92q-5 -16 -10 -31.5t-12 -30.5q-26 -57 -68.5 -100t-104.5 -59q-20.1481 -4.74074 -42.0521 -4.74074q-15.059 0 -30.9479 2.24074
q-39 5.5 -71 21.5zM178 440q-5 -2 -6 -8t-2 -11q-9 -32 -16 -62t-9 -63q-2 -17 -2.5 -34q-0.166667 -5.66667 -0.166667 -11.3333q0 -11.3333 0.666667 -22.6667q2 -31 6.5 -62.5t14.5 -60.5t27.5 -53t46.5 -35q24.64 -9.68 50.0544 -9.68q3.4656 0 6.9456 0.18
q29 1.5 55.5 12.5t49.5 29.5t40 41.5q19 25 33 50.5t23 56.5q10 31 17 62.5t10 63.5q4 40 6 79q0.363636 7.09091 0.363636 14.2149q0 32.0579 -7.36364 64.7851q-8 36 -28.5 66t-54.5 46q-5 3 -12 6t-10 -5q-4 -10 -7.5 -19t-8.5 -18q-17 -35 -47 -59q-33 -25 -69 -40
q-20 -9 -34 -11.5t-25.5 -3t-23 -0.5t-24.5 -4zM408 617q4 4 1 11.5t-4 12.5q-4 9 -9 16t-14 12q-15 8 -34 8t-34 -8q-27 -14 -46 -35t-33.5 -46t-25.5 -52.5t-21 -53.5q-1 -3 -3.5 -8.5t-3.5 -11t0.5 -9t8.5 -3.5q13 1 27 2t27 3q12 4 26 9.5t24 11.5q13 8 26 16.5t26 16.5
q22 13 37.5 36t22.5 47q2 7 -2 9.5t-10 2.5t-12.5 -2t-10.5 -4q-5 -2 -7 -6t-7 -9t-12 -11t-13 -3q-5 3 -2 7t8 9q4 3 7.5 7t8.5 8q10 8 17 11t12.5 4t11 0.5t13.5 1.5z" />
    <glyph glyph-name="P" unicode="P" horiz-adv-x="678" 
d="M594 840q3 -10 2 -21.5t-6 -20.5t-12 -18.5t-15 -15.5q-9 -6 -19.5 -10t-21.5 -7q-7 -3 -14 -4t-15 -2q-6 -1 -13 -1.5t-12 -5.5q-6 -6 -12.5 -21t-11.5 -32.5t-9 -34t-6 -24.5q-1 -8 -2 -15t-3 -14q-1 -7 -3.5 -13t-2.5 -13q11 8 20 19t19 22q11 11 22 21.5t24 19.5
q23 17 51 29.5t54 19.5q14 4 28.5 4t28.5 -5t27.5 -11t24.5 -16q43 -40 46 -95q0.666667 -10.6667 0.666667 -21.2222q0 -21.1111 -2.66667 -41.7778q-4 -31 -16 -62q-11 -29 -27.5 -57t-33.5 -55q-8 -13 -15.5 -25t-18.5 -21q-11 -10 -21.5 -19t-23.5 -17
q-27 -15 -56 -21.5q-16.3913 -3.67391 -33.4216 -3.67391q-13.1002 0 -26.5784 2.17391q-23 4 -43 15t-31 33q-9.94118 18.3529 -9.94118 37.8754q0 6.00692 0.941176 12.1246q4 26 26 44q11 9 24 9t26 -3q6 -2 9.5 -3.5t5.5 -7.5t-2.5 -9t-9.5 -1q-6 3 -11 6.5t-13 3.5
q-11 0 -25 -9q-10 -8 -16 -17t-5 -22q2 -17 4.5 -26t13.5 -22q8 -10 18.5 -17.5t22.5 -11.5q11.4872 -3.28205 22.7219 -3.28205q16.1499 0 31.7781 6.78205q26.5 11.5 46.5 28.5q24 21 42 46.5t31.5 53.5t23 57.5t18.5 58.5q9 30 18 59.5q8.1 26.55 8.1 55.125
q0 3.175 -0.1 6.375q-1 34 -22.5 51.5t-52.5 20.5q-6.82353 0.941176 -13.8131 0.941176q-22.7163 0 -47.1869 -9.94118q-32 -13 -56 -28q-12 -8 -23 -17.5t-22 -18.5q-24 -21 -43 -46q-8 -11 -16 -23t-10 -26q-2 -16 -6 -31.5t-7 -31.5q-5 -34 -12 -67.5t-15 -67.5
q-7 -34 -15 -65l-16 -62q-7 -29 -17 -59t-27 -56q-17 -23 -35.5 -43.5t-44.5 -34.5q-24 -12 -55.5 -15.5q-11.6053 -1.28947 -22.464 -1.28947q-18.615 0 -35.036 3.78947q-30 7 -53 26.5t-36 45.5t-16 56.5q-0.692308 7.03846 -0.692308 13.9438q0 23.0178 7.69231 44.5562
q10 27 24.5 48.5t39.5 38.5q27.5758 18.5606 55.9952 18.5606q25.1715 0 51.0048 -14.5606q12 -7 18 -19t7.5 -26t-1.5 -28.5t-9 -24.5q-3 -5 -7.5 -9.5l-9.5 -9.5q-4 -3 -7.5 -8t-8.5 -7q-3 -1 -8.5 -1t-8.5 3q-4 5 3 10t10 7q10 6 18.5 19t13.5 24q7 12 4.5 26t-13.5 25
q-8 9 -20 13.5t-25.5 5t-26 -2t-21.5 -8.5q-25 -15 -43 -36t-25 -50q-4.92308 -17.8462 -4.92308 -35.6923q0 -11.1538 1.92308 -22.3077q2 -14 6.5 -31.5t12.5 -28.5q17 -25 44 -38.5t56 -15.5q3.75 -0.25 7.46094 -0.25q25.9766 0 50.0391 12.25q27.5 14 47.5 37
q20 25 29 54t16 60q7 32 13.5 64.5t12.5 64.5q14 65 23.5 130t23.5 130q8 33 18 64.5t21 63.5q3 8 5.5 15.5t6.5 15.5l5 10t2 10q-3 2 -12.5 0t-13.5 -3q-10 -1 -19 -2l-18 -2q-33 -5 -66.5 -11.5t-64.5 -17.5q-29 -9 -58 -21.5t-49 -31.5q-21 -20 -31 -44.5
q-5.88235 -14.4118 -5.88235 -30.3806q0 -11.1782 2.88235 -23.1194q6 -26 22.5 -42.5t43.5 -18.5q13 -2 25 2t23 11q12 8 17.5 22t6.5 28q0 4 -2 10t-3.5 11.5t-0.5 9.5t8 6q8 2 10 -2t4 -10q2 -5 3 -13.5t1 -13.5q-1 -14 -8 -26.5t-17.5 -21.5t-24 -15t-26.5 -8
q-7.10526 -1.31579 -14.072 -1.31579q-19.5069 0 -37.928 10.3158q-25 14 -37 39q-8.34483 17.4483 -8.34483 38.3496q0 6.65042 0.844828 13.6504q3.5 29 16.5 50q13 23 33.5 35.5t43.5 23.5q28 14 59.5 22t62.5 14q15 4 30.5 7t31.5 6q14 2 30 4t29 8q22 11 37 30t31 38
q18 20 43 37.5t54 17.5q23 0 30 -22zM525 840q-10 -7 -18 -18.5t-13 -22.5q-3 -6 -5.5 -11.5t-5.5 -11.5q-2 -3 -6.5 -11.5t-2.5 -12.5q1 -2 7.5 -1t14 2.5t14.5 3.5t9 3q20 4 35.5 14.5t24.5 29.5q7.69231 15.3846 7.69231 25.1479q0 2.92899 -0.692308 5.35207
q-3 10.5 -13 14t-24 0.5t-24 -9z" />
    <glyph glyph-name="Q" unicode="Q" horiz-adv-x="594" 
d="M316 297q-6 -22 -15 -44t-23 -39q-15 -18 -32 -36t-39 -27q-11 -5 -24 -7t-25 -4q-9 -1.33333 -17.7778 -1.33333q-17.5556 0 -34.2222 5.33333q-22 8 -39 20.5t-30 31.5q-8 11 -12 22t-9 22t-8.5 21.5t-4.5 23.5q-2.54545 31.8182 -2.54545 55.719
q0 23.5537 4.54545 46.281q1 7 3 20t6 25.5t11 21t18 5.5q-2 -3 -0.5 -5t3.5 -4t2 -4.5t2 -4.5q3 4 1 10t-4 11t-5.5 3.5t-7.5 -1.5q-3 0 -2 6t4 14t6.5 15l4.5 9q15 26 27.5 52t33.5 47q22 22 41.5 39.5t43.5 33.5q26 17 56 23.5t61 8.5h28.5t28.5 -3q16 -4 31 -8.5
t29 -12.5q13 -7 26 -14.5t23 -18.5q35 -35 50.5 -75.5t20.5 -86.5q2.57143 -27.4286 2.57143 -55.2245q0 -4.63265 -0.0714286 -9.27551q-0.5 -32.5 -7.5 -64.5q-11 -51 -29.5 -98.5t-47.5 -90.5q-29 -42 -67.5 -79t-81.5 -65q-10 -6 -20 -10t-19 -11q8 -10 20 -16.5
t23 -13.5q13 -8 31 -20t37 -23.5t37 -20t30 -8.5q11 -1 21 -1t21 6q19 10 22 30q1 6 0.5 13t-1 13.5t1 12t6.5 7.5t8.5 -3t5 -12.5t2 -15.5t0.5 -14q1 -14 -4.5 -27t-13.5 -23q-9 -11 -22.5 -15t-28.5 -3.5t-29.5 5t-25.5 10.5q-13 7 -25.5 13.5t-25.5 14.5q-27 18 -52 35.5
t-48 36.5q-12 12 -25.5 9.5t-28.5 -6.5q-14 -4 -31 -8t-34 -5.5q-6.375 -0.5625 -12.3984 -0.5625q-10.0391 0 -19.1016 1.5625q-14.5 2.5 -21.5 10.5t-8.5 22.5t3.5 23.5q7 12 20.5 17.5t27.5 4.5q21 -2 42.5 -8.5t39.5 -15.5q8 -4 15.5 -8.5t15.5 -4.5q12 0 24 8.5
t21 15.5q26 18 47 41q21 22 38 48t33 52q34 55 51 117q5 15 8 30l6 30q7 30 8 66q0.166667 6 0.166667 11.8056q0 29.0278 -4.16667 53.1944q-5 34 -15 66q-9 29 -24 54.5t-38 45.5q-21 18 -44 28q-14 7 -28 7.5t-29 -1.5q-32 -5 -58 -15t-49 -30q-23 -19 -42.5 -40
t-32.5 -47q-7 -14 -13 -26.5t-11 -26.5q-6 -15 -9 -30.5t-6 -31.5q-7 -32 -11.5 -63.5q-3.68182 -25.7727 -3.68182 -51.8802q0 -5.80165 0.181818 -11.6198q1 -32 6 -63q3 -14 6 -29.5t11 -28.5q11 -19 32.5 -29.5q19.6304 -9.58696 39.6777 -9.58696
q1.90926 0 3.82231 0.0869565q29 0 49.5 18t34 44t21 54.5t11.5 51.5q5 32 7 65q0.4 6.6 0.4 13.16q0 26.24 -6.4 51.84q-6 26 -30 36.5q-13.6216 5.95946 -27.5654 5.95946q-10.6238 0 -21.4346 -3.45946q-15 -5 -26 -17t-19 -25q-10.0833 -16.5 -10.0833 -33.4201
q0 -18.1493 7.08333 -40.5799q1 -5 -3.5 -11t-8.5 2q-5 9 -6 18t-1 20q-0.25 4.75 -0.25 9.375q0 13.875 2.25 26.625q3 17 15 32q19 26 49.5 36q12.7083 4.16667 25.3299 4.16667q17.6701 0 35.1701 -8.16667q31 -14 45 -40t17 -56.5q1.2 -12.2 1.2 -24.56
q0 -18.54 -2.7 -37.44q-4.5 -31.5 -10.5 -56.5zM226 10q5 2 2 5l-4 4q-27 14 -39.5 18.5t-22.5 7.5q-9.41176 2.94118 -18.6505 2.94118q-6.46713 0 -12.8495 -1.44118q-15.5 -3.5 -21.5 -21.5q-4 -11 -1.5 -17t8 -9t12.5 -4t13 -2q3 0 13 2l22.5 4.5t26 5.5t23.5 5z" />
    <glyph glyph-name="R" unicode="R" horiz-adv-x="718" 
d="M10 168q13 28 31 51q8 10 18.5 18.5t22.5 14.5q11 5 26 7q3 0 6.5 -0.5t6.5 -0.5q5 0 9 1t9 1q21 -1 39.5 -20.5q19.5833 -20.6419 19.5833 -44.1979q0 -20.5104 -10.0833 -44.8021q-11 -26.5 -33 -36.5q-4 -2 -10 -2t-8 5q-2 6 4.5 10.5t9.5 7.5q11 9 20.5 20.5
t14.5 24.5q4 9 2.5 19t-6 19t-12 16t-16.5 9q-11.8125 3.0625 -23.9121 3.0625q-15.5566 0 -31.5879 -5.0625q-28.5 -9 -48.5 -28q-17 -16 -26 -36q-5 -12 -8.5 -29.5t-3.5 -31.5q0 -28 4.5 -52.5t23.5 -46.5q36.1591 -42.0227 91.4194 -42.0227
q1.28512 0 2.58058 0.0227273q31 2 53.5 13t43.5 33t30 52t16 59q14 64 25.5 128.5t24.5 128.5q3 16 5 31t4 31q3 17 7 34t7 34q6 32 16.5 62.5t18.5 61.5q5 17 12 32t11 31q-15 2 -31 -1t-31 -6q-33 -5 -66 -12q-31 -6 -61 -15.5t-58 -23.5l-28 -14t-25 -17
q-10 -8 -18.5 -20t-13.5 -23q-6 -13 -5 -28.5t3 -28.5q5 -26 25 -42q19 -14 42.5 -16q3.13333 -0.266667 6.20444 -0.266667q19.9622 0 37.2956 11.2667q21 13 27 37q3 14 0 28q-2 6 -5 13t5 12q6 4 9.5 0t5.5 -11t3 -14t1 -10q0 -28 -20 -50q-19 -20 -43.5 -24.5
q-8.82 -1.62 -17.8344 -1.62q-16.0256 0 -32.6656 5.12q-12 4 -23.5 10.5t-18.5 17.5q-8 13 -11.5 28t-3.5 29q0 32 15 57t41 42q27 18 57 29.5t62 19.5t64.5 13.5t63.5 10.5q8 2 15 3t15 2q5 0 12.5 0.5t11.5 5.5q8 11 14.5 24.5t16.5 24.5q20 21 43.5 41.5t52.5 26.5
q12 2 23 1t19 -11q7 -9 6.5 -22t-5.5 -26t-13.5 -23.5t-16.5 -14.5q-14 -8 -28 -13.5t-29 -8.5q-9 -2 -20.5 -1.5t-16.5 -8.5q-6 -11 -9 -24.5t-7 -24.5q-5 -14 -9.5 -26.5t-8.5 -26.5q-3 -12 -7 -26t-3 -27q9 7 15 18t14 20q8 10 17.5 18.5t19.5 16.5q21 17 45.5 31
t50.5 20q24 6 50 7q2.6 0.1 5.17 0.1q23.13 0 43.83 -8.1q24 -10 38 -31.5t17 -46.5q1.45455 -10.1818 1.45455 -20.2314q0 -17.5868 -4.45455 -34.7686q-7 -27 -15 -53q-7 -23 -22 -42q-7 -11 -13 -22t-15 -20q-20 -19 -40.5 -36.5t-44.5 -32.5q-11 -7 -23 -12.5t-24 -9.5
q-14 -5 -27.5 -7t-27.5 -7q23 -11 43.5 -31t29.5 -44q6 -14 10 -29.5t9 -30.5l21 -63q11 -28 25.5 -57.5t34.5 -51.5q17 -19 43 -22q15 -2 29 3.5t28 10.5q4 1 6 -3t-2 -6q-5 -3 -10.5 -6t-11.5 -6q-14 -6 -29.5 -6.5t-29.5 0.5q-29 2 -51.5 18t-40.5 38q-20 26 -33 55.5
t-25 59.5q-11 29 -19 58.5t-22 58.5q-7 14 -19 26.5t-25 21.5q-15 10 -31.5 14t-29.5 17q14 5 29 3t29 -3q6.8 -0.8 13.36 -0.8q9.84 0 19.14 1.8q15.5 3 32.5 8q26 8 50 25t44 36q23 23 40 46.5t27 54.5q5 15 8 30t5 30q1.14286 9.71429 1.14286 19.102
q0 7.04082 -0.642857 13.898q-1.5 16 -3.5 33q-2 12 -6.5 24t-15.5 20q-12 8 -22.5 5.5t-23.5 -2.5q-14 -1 -27.5 -6t-25.5 -12q-14 -8 -28.5 -16t-27.5 -19q-11 -9 -21.5 -20t-20.5 -22q-11 -11 -19 -26.5t-16 -29.5q-4 -7 -8 -13.5t-6 -13.5t-2.5 -13.5t-1.5 -13.5
l-12 -69q-10 -51 -21.5 -100t-25.5 -99q-7 -25 -13 -49t-15 -48q-19 -49 -56 -87q-19 -19 -38 -30t-38 -16q-18.8235 -7.52941 -42.0761 -7.52941q-1.45329 0 -2.92388 0.0294118q-25 0.5 -45 5.5q-23 7 -38 20q-9 8 -17.5 15t-13.5 18q-25.6806 43.5972 -25.6806 87.5511
q0 29.6433 11.6806 59.4489zM536 826q-23 -10 -34 -29.5t-21 -40.5q-2 -5 -4.5 -10t-5.5 -10q-3 -6 2.5 -6t8.5 1q12 3 24 5.5t24 7.5q9 3 17.5 7.5t15.5 11.5q8 9 10.5 17t7.5 19q0.176471 2.76471 0.176471 5.29758q0 27.6726 -21.0642 27.6726
q-9.78392 0 -24.1123 -5.97015z" />
    <glyph glyph-name="S" unicode="S" horiz-adv-x="494" 
d="M405 625q3 12 3 27t-5 28.5t-15 22.5t-26 9q-12 0 -25.5 -2.5t-24.5 -9.5q-12 -8 -19.5 -23t-11.5 -29q-3.33333 -11.3333 -3.33333 -22.4444q0 -5.55556 0.833333 -11.0556q2.5 -16.5 7.5 -33.5q2 -7 3.5 -15.5t5.5 -14.5q2 -5 7 -3t9 0q9 4 23.5 10t28.5 15t25.5 21.5
t16.5 30.5zM57 82q7 -11 14 -19t18 -15t23.5 -12.5t25.5 -9.5q16.64 -5.12 33.4848 -5.12q9.4752 0 19.0152 1.62q26.5 4.5 52.5 12.5q24 8 44.5 28t34.5 40q15 23 20.5 49q4.65385 22 4.65385 44q0 4 -0.153846 8q-1 28 -9 55q-1 5 -2 11t-2.5 10.5t-5 7.5t-10.5 2l-12 -2
t-11 -2q-10 0 -14 1q-2 0 -5.5 1.5t-5.5 1.5q-2 -1 -4.5 -5t-4.5 -5q-5 -3 -8.5 -5t-8.5 -6q-8 -8 -15.5 -17.5t-11.5 -20.5q-2 -6 -1.5 -14t0.5 -15.5t-2 -12.5t-11 -4q-5 0 -7 4.5t-1.5 11t2 13.5t3.5 13q2 11 -0.5 21.5t-6.5 20.5q-8 20 -28 34
q-13.3333 9.33333 -27.5556 9.33333q-7.11111 0 -14.4444 -2.33333q-22 -7 -40.5 -17.5t-30.5 -31.5q-5 -9 -9 -18.5t-7 -19.5q-5 -13 -5 -26q0 -12.6285 -1.88732 -25.257q0.298441 -0.209767 1.38732 -6.74304q1.5 -9 4.5 -23t8.5 -31t13.5 -29zM419 673
q1.6129 -8.3871 1.6129 -16.7742q0 -17.6129 -7.1129 -35.2258q-10.5 -26 -27.5 -45q-9 -10 -20.5 -17t-23.5 -12q-3 -1 -10 -2.5t-14 -3.5t-12 -5.5t-3 -7.5q14 -29 26 -59t27 -59q7 -14 10.5 -28.5t8.5 -29.5q1 -4 2 -12t3.5 -15.5t6.5 -13t10 -4.5q11 3 25.5 5t28.5 6
t24.5 11.5t13.5 21.5q1 3 0.5 8.5t0.5 10.5t3.5 7.5t9.5 0.5q11 -4 9 -18.5t-7 -21.5q-6 -11 -15.5 -17t-20.5 -10q-15 -5 -30 -9.5t-31 -6.5q-4 0 -10 0.5t-7 -4.5q-1 -7 0.5 -14t2.5 -13q2 -17 4.5 -35q1.78571 -12.8571 1.78571 -25.2041q0 -4.93878 -0.285714 -9.79592
q-1 -14 -2 -27t-5 -27q-5 -16 -13 -28.5t-16 -26.5q-19 -26 -40.5 -42.5t-51.5 -27.5q-14 -5 -29 -7.5t-30 -3.5q-16 -2 -32 -3q-4 -0.25 -8.0625 -0.25q-12.1875 0 -24.9375 2.25q-28 5 -56.5 17.5t-48.5 33.5t-31 49t-13 57q-2 15 0 31q2 7 1 14t1 14q5 15 12.5 27.5
t17.5 25.5q5 5 8 9.5t11 6.5q6 2 6 4.5t3 7.5q2 5 10.5 8t13.5 5q16 8 32 11q16 2 30.5 0t28.5 -12q14 -11 21 -26t15 -30q8 9 15 19t18 16q13 8 29 9t31 2q3 1 12 0.5t10 3.5q2 5 -2 12.5t-6 12.5q-6 17 -12.5 33t-12.5 33l-24 64l-24 64q-3 8 -8 8t-12 2q-14 3 -26 9
q-13 6 -25.5 14.5t-22.5 19.5q-15 19 -23.5 47q-5.35185 17.6296 -5.35185 33.6735q0 9.43759 1.85185 18.3265q0 2 3 9t6.5 13t8 9t9.5 -2q9 -9 5.5 -26t-4.5 -28q-0.782609 -7.30435 -0.782609 -14.3025q0 -19.828 6.28261 -37.1975q8.5 -23.5 33.5 -39.5q8 -5 21 -10.5
t24 -3.5q5 1 2 8t-4 9q-2 8 -2.5 17t0.5 18q2 25 8 48t24 42q17 19 38.5 25.5t45.5 11.5q4 0.235294 7.75779 0.235294q28.1834 0 42.7422 -13.2353q16.5 -15 21.5 -40z" />
    <glyph glyph-name="T" unicode="T" horiz-adv-x="505" 
d="M664 761q5 -13 2 -26t-9 -24q-12 -21 -31.5 -34t-41.5 -21q-15 -5 -30.5 -8t-30.5 -7q-8 -2 -9.5 -6.5t-3.5 -12.5l-6 -37q-6 -32 -12 -65t-13 -66q-1 -5 -4 -18.5t-6.5 -28t-5.5 -27.5t-1 -17v-1l-4 -14t-2 -15v-2l-8 -35q-8 -32 -17 -64t-22 -64q-21 -54 -58 -101.5
t-91 -73.5q-27 -14 -58 -19q-19.375 -3.125 -38.3594 -3.125q-11.3906 0 -22.6406 1.125q-29 3 -58 15t-47 35q-17 22 -26 49.5t-9 55.5t9.5 54.5t29.5 47.5q33.4286 36.2143 82.3776 36.2143q3.76531 0 7.62245 -0.214286q51 -3 70 -53l6 -12q17 25 31 54t37 49
q23 19 50 30.5t56 17.5q8 2 12.5 4.5t6.5 10.5q5 26 11.5 50.5t11.5 48.5q7 32 12.5 63.5t16.5 62.5q1 2 4 8.5t5.5 13.5t3 13t-3.5 6q-17 0 -34.5 -2t-34.5 -4q-35 -3 -68.5 -6.5t-67.5 -8.5q-29 -4 -60 -10.5t-56 -24.5q-20 -14 -27.5 -38.5
q-3.04054 -9.93243 -3.04054 -19.454q0 -13.9649 6.54054 -27.046q13 -28 45 -38q15 -3 30 0q9 3 16 8t16 8q0 -11 -5.5 -15.5t-14.5 -9.5t-19 -6.5t-20 0.5q-23 5 -39.5 20.5t-23.5 37.5q-3.36842 10.9474 -3.36842 21.6288q0 14.687 6.36842 28.8712q11 24.5 31 40.5
q23 17 51.5 22.5t54.5 10.5q32 5 63.5 7.5t63.5 6.5l65 6l32 4q7 1 10.5 8.5t6.5 12.5q14 24 27 49t32 45q17 19 38.5 27t46.5 8q14 0 24.5 -10.5t14.5 -22.5zM260 29q23 17 39 40.5t27 49.5q12 29 21.5 59.5t17.5 60.5l18 64q2 8 4.5 15t3.5 15q1 7 -6.5 5t-10.5 -3
q-28 -9 -54 -19.5t-48 -32.5q-18 -18 -31.5 -41t-21.5 -48q-11 -28 -11 -57q0 -2 -2 -3.5t-3 -2.5q-3 -2 -4.5 -0.5l-3.5 3.5q-4 5 -2.5 15.5t2.5 15.5q2 12 0.5 25t-6.5 25t-14 21t-22 13q-14.1538 4.92308 -29.0651 4.92308q-9.31953 0 -18.9349 -1.92308q-25 -5 -42 -21
q-20 -20 -29 -47.5t-10 -53.5q-0.097561 -2.87805 -0.097561 -5.71802q0 -55.3795 37.0976 -96.282q17 -20 41 -28.5t51 -8.5q4 0 16.5 2.5t28.5 7.5t33 12t29 16zM626 780q-8.90909 2.22727 -17.1095 2.22727q-17.5723 0 -31.8905 -10.2273q-24 -17 -37 -45.5t-20 -54.5
q-1 -3 -3 -9.5t1 -9.5q2 -3 9 -1t9 3q16 4 30.5 8.5t28.5 12.5q15 8 29.5 22t22 29t4.5 29.5t-25 23.5z" />
    <glyph glyph-name="U" unicode="U" horiz-adv-x="667" 
d="M437 144q-21 -26 -43 -49t-46 -45q-22 -19 -51 -33t-55 -18q-11.6 -1.6 -23.12 -1.6q-17.28 0 -34.38 3.6q-28.5 6 -52.5 22q-22 15 -38 37q-9 14 -13 28t-7 30q-5.12 20.48 -5.12 41.5744q0 11.8656 1.62 23.9256q4.5 33.5 12.5 65.5t22.5 61t31.5 58t33 57t33 57
q8 14 15.5 27.5t15.5 27.5q10 20 21.5 41.5t20.5 43t14.5 44t5.5 44.5q0 13 -0.5 26t-7.5 25q-6 11 -15.5 19.5t-20.5 14.5q-24.2162 13.8378 -48.4324 13.8378l-7.56757 -0.337838q-28 -2.5 -56 -16.5q-26 -14 -49 -31.5t-40 -42.5q-17 -28 -28.5 -52.5
q-8.53226 -18.1774 -8.53226 -40.4834q0 -7.75858 1.03226 -16.0166q2 -27 20 -49t47 -23q26 0 51 16t36 39q5 11 7 24t0 25q-1 5 2 9t8 5q3 1 5.5 -1.5t4 -6.5t2 -8t0.5 -6q2 -14 -2.5 -27.5t-12.5 -24.5t-20 -22.5t-24 -17.5q-22 -12 -48 -14
q-3.71429 -0.285714 -7.34694 -0.285714q-21.7959 0 -40.6531 10.2857q-28 15 -36.5 40.5q-5.78 17.34 -5.78 35.836q0 8.704 1.28 17.664q4 28 17 55t28 47q16 22 43 41t50 30q28 14 58.5 16q5.08333 0.333333 10.125 0.333333q25.2083 0 49.375 -8.33333q52 -19 73 -72
q9 -21.75 9 -45.75q0 -8 -1 -16.25q-4 -33 -10 -59q-13 -57 -30.5 -96t-43.5 -77q-8 -14 -16.5 -28.5t-16.5 -28.5q-17 -29 -31 -57.5t-27 -59.5q-6 -15 -11.5 -30t-10.5 -30q-5 -17 -8 -33t-7 -33q-3.92 -16.24 -3.92 -31.8528q0 -12.2672 2.42 -24.1472q5.5 -27 26.5 -50
q19 -20 49 -25q11.5385 -1.92308 22.3373 -1.92308q17.2781 0 32.6627 4.92308q29 9 54 25.5t46 36.5q21 21 42.5 44t38.5 49q7 12 3.5 23.5t-2.5 24.5q0 18 -0.5 35.5t-0.5 34.5q0 15 2 29.5t2 29.5q1 18 2.5 35.5t5.5 34.5q13 60 32 120.5t58 109.5q8 10 18.5 18t21.5 13
q20 7 30 5.5t18 -18.5q7 -14 8.5 -28.5t0 -29.5t-4.5 -30t-6 -29q-2 -15 -6.5 -29t-9.5 -28q-5 -17 -10.5 -33.5t-11.5 -33.5q-11 -31 -25 -61t-28 -59q-8 -15 -16 -28.5t-16 -27.5q-7 -14 -16 -27.5t-7 -29.5q2 -32 6 -62t12 -60q7 -27 19 -57t35 -48q9 -6 21 -11.5
t23 -2.5q13 2 24 6.5t21 12.5t16 17.5t12 20.5q9 14 11.5 28.5t2.5 31.5q0 3 -2 9t-3.5 11.5t-0.5 10t7 5.5q7 1 11 -4t5 -12t1 -14v-11q0 -27 -14 -52.5t-31 -43.5q-22 -22 -46.5 -28q-10.5 -2.57143 -20.9082 -2.57143q-13.8776 0 -27.5918 4.57143q-31 11 -49.5 37.5
t-30.5 55.5q-8 17 -14 34.5t-10 36.5q-1 2 -2.5 10.5t-3.5 17t-5.5 12.5t-7.5 -3zM610 673q-5 5 -11 2.5t-11.5 -8.5t-10.5 -12.5t-8 -10.5q-19 -27 -31.5 -58.5t-23.5 -63.5t-17.5 -66.5t-11.5 -69.5q-5 -30 -5 -58t-2 -55q0 -8 -1 -17t2 -17q16 17 27 44t21 46
q12 23 21.5 47t19.5 49q11 29 24 66.5t21.5 73.5q9.01852 38.1961 9.01852 67.1276q0 27.3909 -12.5185 40.8724z" />
    <glyph glyph-name="V" unicode="V" horiz-adv-x="480" 
d="M16 578q11 11 26.5 17t29.5 13q22 11 44.5 16t44.5 12q8 2 15.5 4.5t11.5 10.5q7 13 9.5 27t8.5 27q14 28 33 49t42 36q11 6 27.5 7t27.5 -7q10 -8 12.5 -18.5t1 -22t-7 -23t-11.5 -19.5q-14 -17 -30 -26.5t-33 -18.5q-8 -5 -9 -10.5t-2 -14.5
q-0.888889 -14.2222 -0.888889 -28.5432q0 -17.9012 1.38889 -35.9568q2.5 -32.5 3.5 -64.5q0 -34 5 -67t9 -67q5 -31 10 -61.5t13 -61.5t14.5 -62t17.5 -60q14 29 26 57.5t26 57.5q15 31 28.5 61.5t27.5 61.5q26 60 57.5 118t63.5 116q15 27 31.5 54t33.5 54q14 21 33 42
t42 33q16.0851 8.34043 31.9928 8.34043q10.7945 0 21.5072 -3.84043q26.5 -9.5 43.5 -33.5q1 -2 5 -7.5t7.5 -11t4 -11t-3.5 -7.5t-8.5 2t-8.5 10t-7.5 12t-6.5 8q-11 10 -23.5 12t-25 -1.5t-25 -10.5t-21.5 -16q-23 -20 -42 -46t-35 -52q-34 -54 -64 -109.5t-61 -111.5
q-16 -28 -29.5 -56.5t-29.5 -57.5q-15 -29 -28 -58.5t-27 -58.5q-7 -14 -12.5 -28t-12.5 -28q-8 -14 -6 -29.5t3 -30.5q2 -17 2 -32.5v-31.5q0 -5 -2 -13t-6 -15.5t-9 -13t-11 -5.5q-5 -1 -10 1.5t-8 5.5q-5 4 -5.5 9t-1.5 10q-0.166667 2.83333 -0.166667 5.625
q0 13.9583 4.16667 26.875q5 15.5 10 31.5q2 6 4.5 13t2.5 15q-1 6 -3.5 11.5t-4.5 10.5q-6 16 -10.5 32t-9.5 32q-9 30 -19 60t-19 60q-9 33 -16.5 65.5t-15.5 65.5q-3 16 -6.5 31t-6.5 31q-3 17 -4.5 34.5t-4.5 34.5q-3 16 -4.5 30.5q-0.9 8.7 -0.9 18.3q0 6.4 0.4 13.2
q1 4 1.5 10t-1.5 10q-3 4 -11 1t-10 -4q-30 -9 -59.5 -16.5t-57.5 -21.5q-23 -13 -33.5 -37q-5.12791 -11.7209 -5.12791 -23.6804q0 -12.5289 5.62791 -25.3196q7 -14 16.5 -22.5t24.5 -8.5q13 -1 27.5 3t23.5 14q11 11 14 29.5t3 33.5q0 7 3.5 11t10.5 -1q6 -4 6.5 -14
t-0.5 -15q-2 -14 -8.5 -28t-17 -24.5t-24 -17t-28.5 -5.5t-29 7t-23 17q-16.5143 22.3429 -16.5143 50.3478q0 30.138 20.5143 50.6522zM327 784q-5 4 -16.5 -3t-15.5 -11q-14 -12 -22.5 -35.5t-10.5 -41.5q0 -2 -1 -6.5t-0.5 -8t2 -6t6.5 0.5l18 12t18 11q15 10 22 23.5
t8.5 26.5t-1 23.5t-7.5 14.5zM297 -19q0.267568 -0.535137 0.535137 -0.676513q3.56739 -4.56272 4.96486 -7.82349q1.5 -3.5 9.5 -0.5t10 9.5t4 14.5q1 8 0 14.5t-3 13.5t-3 14.5t-5 12.5q-5 -6 -6 -14t-3 -15q-2 -11 -4.5 -20.5t-4.5 -20.5zM297 -19
q0.273408 -0.341761 0.535137 -0.676513q0.732432 -0.386997 1.46486 2.17651q1 3.5 1 6t-0.5 2t-2.5 -9.5z" />
    <glyph glyph-name="W" unicode="W" horiz-adv-x="891" 
d="M561 451q1 -1 5.5 7.5t10 19.5t10 21t4.5 12q1 5 2 13.5t0 16t-5.5 11.5t-13.5 1q-14 -5 -20.5 -16t-5.5 -25v-1.5q0 -6.5 0.5 -18t3.5 -23.5t9 -18zM655 14q11 -11 26 -9q15 1 27 13t10 28q0 3 -4.5 13t-10 20t-11 17t-8.5 5q-7 -6 -12 -15t-10 -16q-11 -15 -16 -28.5
t9 -27.5zM366 152q-14 -20 -24.5 -43t-22.5 -44q-6 -11 -8.5 -23t-4.5 -24t-2.5 -25t6.5 -24q6 -9 15.5 -10.5t18.5 4.5q11 8 15 18.5t6 23.5q5 29 5.5 58.5q0.479717 28.3033 0.499177 56.1463q-0.0278624 2.52581 -0.999177 8.35369q-1 6 -2 13t-2 11zM895 824
q13 -5 26.5 -7.5t26.5 -9.5q13 -6 23.5 -14.5t20.5 -19.5q21 -23 30.5 -48t13.5 -55q1.77778 -14.2222 1.77778 -28.2469q0 -17.5309 -2.77778 -34.7531q-5 -31 -16 -61t-27.5 -57.5t-34.5 -52.5q-39 -54 -79 -109t-85 -104q-3 -3 -14 -15t-22.5 -25t-21.5 -24.5t-11 -14.5
q-2 -3 -4.5 -4.5t-4.5 -5.5q-2 -5 0 -9t4 -9q3 -6 5.5 -12.5t4.5 -13.5q1.8 -9.6 1.8 -19.74q0 -6.76 -0.8 -13.76q-2 -17.5 -6 -33.5q-3 -15 -17 -22.5t-29.5 -7.5t-28.5 7.5t-14 23.5q-0.2 3.3 -0.2 6.52q0 28.98 16.2 51.48q9 12 20 23q7 8 6.5 12t-5.5 12
q-9 14 -16 27.5t-17 27.5q-10 16 -18 31.5t-16 32.5q-9 17 -18.5 34.5t-17.5 35.5q-9 17 -15.5 36t-14.5 36q-11 -9 -19 -23t-16 -25q-22 -29 -43 -55q-9 -12 -19 -23t-18 -24q-3 -5 -2 -12t1 -12q-2 -25 -2 -49t-4 -48q-2 -17 -2.5 -35.5t-5.5 -33.5t-9.5 -30.5
t-10.5 -29.5q-5 -15 -15 -25t-23 -19q-8 -6 -19 -3t-19 8q-11 8 -16 22t-5 27q0 14 4 27t8 27q5 16 11.5 30t14.5 28t16.5 26t14.5 26t5 29t-3 29l-4 66t-7 65q-5 33 -6.5 66.5t-7.5 65.5q-6 31 -13 59.5t-20 56.5q-11 26 -27 48t-43 33q-18.4516 7.80645 -37.9105 7.80645
q-7.96046 0 -16.0895 -1.30645q-28 -4.5 -53 -14.5q-42 -17 -68 -49.5t-37 -71.5q-5 -16 -8.5 -30.5t-4.5 -31.5q-1 -8 -1.5 -15t0.5 -15q0 -3 2.5 -12.5t-0.5 -11.5q-9 -7 -2 -17q5 -6 7.5 -12t4.5 -13q8 -24 26 -49.5t44 -31.5q14.5 -3.5 28.375 -3.5t27.125 3.5
q26.5 7 47.5 27q15 14 25 37q5 14 6 29.5t6 29.5q2 4 6 9t9 3t7.5 -8.5t3.5 -11.5q3 -13 -0.5 -27t-8.5 -25q-11 -25 -31 -40.5t-45 -25.5q-24.64 -9.68 -50.0544 -9.68q-3.4656 0 -6.9456 0.18q-29 1.5 -55 18.5q-25 17 -39 43.5t-19 55.5q-4.8 24.8 -4.8 51.84
q0 6.76 0.3 13.66q1.5 34.5 12.5 63.5q5 15 11.5 30t13.5 29t19 27.5t23 24.5q32 29 73.5 38.5q19.2317 4.40244 38.5708 4.40244q22.3926 0 44.9292 -5.90244q36 -8 68 -30t51 -55q21 -38 32 -80.5t19 -84.5q5 -23 8.5 -45.5t5.5 -45.5t3 -47t4 -48q22 26 42 52.5t40 52.5
q5 6 9 12.5t9 12.5q4 5 7.5 9.5t1.5 11.5q-4 17 -8 32.5t-6 32.5q-2 13 -2 25.5t4 24.5q4 11 12 22q5 5 10 11.5t10 10.5q8 6 19 4.5t19 -8.5q11 -9 14 -22t-1 -27q-4 -13 -8.5 -25.5t-11.5 -24.5q-8 -14 -14 -26t2 -29q6 -14 11 -28.5t12 -28.5q6 -15 13.5 -30t15.5 -29
q14 -31 30 -60t33 -58q4 -7 7.5 -13.5t7.5 -14.5q4 -6 6.5 -3.5l6.5 6.5q11 13 22.5 25t22.5 25q44 51 81 105.5t76 108.5q9 13 16 25.5t15 26.5t15.5 27.5t12.5 28.5t8.5 29.5t6.5 29.5q6 31 7.5 60.5q0.214286 4.21429 0.214286 8.39796q0 25.102 -7.71429 49.102
q-5 14 -10.5 26.5t-14.5 23.5q-17 22 -43.5 38.5t-55.5 18.5q-3.6 0.266667 -7.18222 0.266667q-23.2844 0 -45.8178 -11.2667q-26 -13 -41.5 -34.5t-18 -48.5q-0.290698 -3.13953 -0.290698 -6.25203q0 -23.6549 16.7907 -45.748q8 -9 16.5 -17t19.5 -13q5 -3 6.5 -9.5
t-3.5 -8.5t-11 -2.5t-10 4.5q-11 11 -20.5 21.5t-17.5 23.5q-7 13 -8.5 26t-0.5 27q1 28 16.5 49t38.5 35q11 6 22.5 10.5t22.5 9.5q13 5 25.5 5h26.5z" />
    <glyph glyph-name="X" unicode="X" horiz-adv-x="597" 
d="M131 85q-15 -19 -29.5 -41.5t-18.5 -47.5q-1.23077 -7.38462 -1.23077 -14.4379q0 -15.8698 6.23077 -30.0621q9 -20.5 29 -33.5q11 -7 24 -7.5t26 3.5t24.5 10.5t20.5 14.5q44 37 76 83.5t54 98.5q6 14 11 27t9 27q2 5 4.5 9t5.5 8q2 1 1 9t0 11q2 4 3.5 8t3.5 9
q2 6 2 13t1 14q1 15 2.5 31.5q0.5 5.5 0.5 10.8333q0 10.6667 -2 20.6667q-8 -4 -15.5 -10.5t-14.5 -12.5q-8 -6 -14 -12t-16 -5q4 11 16 18.5t22 14.5q5 4 10 7.5t10 8.5q6 5 7 11.5t3 14.5q4 15 8.5 30.5t5.5 30.5q2 15 3 31.5q0.333333 5.5 0.333333 10.8333
q0 10.6667 -1.33333 20.6667q-5 32 -10.5 64.5t-17.5 62.5q-5 12 -9.5 24.5t-10.5 23.5q-7 14 -16 24t-19 21q-9 12 -16.5 19.5t-19.5 14.5q-13 9 -25.5 15.5t-27.5 10.5q-15 3 -30 6.5t-30 1.5q-14 -2 -29 -6.5t-28 -10.5q-25 -11 -45.5 -30.5t-34.5 -42.5q-16 -27 -21 -58
t-5 -62q-0.153846 -4.46154 -0.153846 -8.95858q0 -24.7337 4.65385 -50.5414q5.5 -30.5 24.5 -53.5q17 -20 41 -36t50 -24q15.36 -5.12 30.1056 -5.12q8.2944 0 16.3944 1.62q22.5 4.5 40.5 17t30 32t15 42.5q2 9 1 17.5t-3 16t-3.5 15.5t-0.5 16q0 5 3 10.5t8 7.5
q6 2 11 -5t7 -12q7 -13 6 -28t-3 -29q-3 -14 -8.5 -27t-13.5 -25q-9 -14 -19.5 -23t-23.5 -19q-23 -18 -51.5 -19.5q-3.88636 -0.204545 -7.76343 -0.204545q-24.5548 0 -48.7366 8.20455q-28 9.5 -52 28t-37 40.5q-15 26 -21.5 57t-7.5 60q-0.125 3.625 -0.125 7.26562
q0 25.4844 6.125 51.7344q7 30 20 56t35 46t48.5 32.5t55.5 18q18.7647 3.55882 37.5294 3.55882l20.4706 -1.05882q31 -3 58 -16t50 -32t42.5 -42.5t36.5 -47.5q8 -12 13.5 -25t11.5 -26l6 -14t6 -15q1 -2 2 -5.5t2.5 -6t3.5 -3t5 3.5q18 25 33 49t40 43q17 13 31.5 25.5
t35.5 17.5q14 3 30 4t24 -2q5 -2 11 -4.5t5 -7.5t-7.5 -3t-11.5 2q-11 0 -18 1t-14 0.5t-14.5 -3t-17.5 -9.5q-18 -13 -32 -32t-28 -36q-14 -19 -26.5 -40t-20.5 -44q-4 -9 -8 -17.5t-5 -18.5q0 -17 1 -35.5t3 -33.5q1 -5 5 -2t6 4q30 26 58.5 49.5t52.5 51.5q23 26 44 56
t30 62q2 13 2.5 21t-2.5 20q8 -2 10.5 -3t3.5 -9q0 -24 -7 -43.5t-17 -40.5q-12 -23 -34.5 -47.5t-48.5 -48.5t-52.5 -45t-45.5 -37q-9 -8 -9 -23.5t-1 -26.5q-6 -32 -11.5 -62.5t-14.5 -59.5l-4 -14t-3 -14q-2 -8 2 -17t7 -17q5 -14 9.5 -28.5t11.5 -28.5q6 -14 14.5 -26
t16.5 -24q23 -32 51.5 -53t66.5 -21h11t11 -4q6 -6 2.5 -9.5t-11 -6t-16 -3t-10.5 0.5q-17 2 -33.5 10t-30.5 16q-29 14 -49 39q-11 14 -21 28t-20 29q-9 14 -14.5 29t-13.5 29q-2 -3 -5.5 -3t-7.5 0.5t-6 -1.5t0 -9q2 -6 4 -8t-3 -9q-5 -8 -10 -15t-10 -15
q-17 -26 -36 -49.5t-42 -45.5q-21 -20 -45.5 -38t-51.5 -28q-24.5455 -9.09091 -52.3967 -9.09091q-2.78512 0 -5.60331 0.0909091q-31 1 -52 23q-19 18 -22.5 44.5q-0.907407 6.87037 -0.907407 13.5055q0 18.9575 7.40741 35.9945q13 31 31.5 55.5t37.5 47.5q9 11 19 21.5
t21 20.5q12 11 23 22.5t23 22.5l51 42q5 5 9.5 9t9.5 9q2 2 7 -2q4.15273 -3.32218 6.92584 -0.436107q-10.7683 -14.1175 -27.4258 -25.0639q-17.5 -11.5 -31.5 -25.5q-8 -7 -15 -13.5t-15 -13.5q-23 -20 -49.5 -47.5t-47.5 -56.5zM316.926 266.564
q0.565792 0.588838 1.07416 1.43611q-0.529546 -0.722109 -1.07416 -1.43611z" />
    <glyph glyph-name="Y" unicode="Y" horiz-adv-x="445" 
d="M246 723q17 -24 17 -54t-5 -57q-3 -16 -7.5 -30t-9.5 -29q-17 -45 -35.5 -94t-28.5 -95q-4 -14 -6.5 -29.5t-2.5 -30.5q0 -11 4.5 -25t17.5 -18q12 -3 26.5 1t28.5 11t26 15.5t20 14.5l42 34t35 41q8 13 11 26t5 27q6 34 15 69q8 32 17 64t20 64q5 15 10.5 29.5
t13.5 28.5q6 11 13.5 21.5t21.5 11.5q17 1 23.5 -8.5t7.5 -24t-2 -30t-5 -24.5q-8 -29 -20.5 -56.5t-26.5 -53.5q-6 -13 -13.5 -24.5t-14.5 -23.5q-8 -15 -12 -31.5t-8 -33.5q-9 -32 -16.5 -64.5t-18.5 -63.5q-20 -62 -44 -121t-63 -112q-17 -23 -39 -43.5t-48 -32.5
t-57.5 -14.5q-6.3 -0.5 -12.42 -0.5q-24.48 0 -46.08 8q-25 9 -43 28t-27 42.5q-8.52632 22.2632 -8.52632 46.3213q0 27.126 12.5263 52.1787q11 23 33.5 39t48.5 21q5.33333 0.969697 10.7548 0.969697q16.9421 0 34.7452 -9.4697q23.5 -12.5 29.5 -35.5
q5.14286 -19.7143 5.14286 -42q0 -3.71429 -0.142857 -7.5q-1 -26.5 -22 -42.5q-11 -9 -24.5 -12t-27.5 -1q-7 2 -13 3.5t-10 6.5t-1 9.5t8 4.5q7 2 12 -1.5t11 -5.5q9 -3 23 -1q15 4 22 14.5t10 24.5q1.66667 7.66667 1.66667 15.2222q0 15.1111 -6.66667 29.7778
q-10 22 -33 32q-12 5 -24.5 4t-24 -6.5t-21 -14.5t-16.5 -18q-20.4545 -30 -20.4545 -63.2541q0 -15.5186 4.45455 -31.7459q8 -29 27 -47.5t43.5 -25q14.4773 -3.84091 29.6529 -3.84091q10.5062 0 21.3471 1.84091q26.5 4.5 50.5 20.5q25 17 44 36.5t32 46.5
q7 14 12.5 27.5t10.5 28.5q5 16 10.5 32t10.5 32q7 19 14 37t13 37q3 11 6 20.5t5 20.5q2 9 6 17t1 17q-13 -9 -24 -19.5l-22 -21t-22.5 -20t-25.5 -16.5q-12 -7 -26 -14t-29 -11.5t-30 -4t-28 8.5q-28 17 -36 43.5q-7.11111 23.5556 -7.11111 49.8765
q0 3.29012 0.111111 6.62346q1 16 5.5 30.5t7.5 29.5q4 16 9 30.5t11 29.5q17 41 30.5 66t26.5 48q13 25 20 52q4.45455 17.1818 4.45455 35.1736q0 10.281 -1.45455 20.8264q-3 23 -14.5 39.5t-35.5 20.5q-8.27586 1.10345 -16.1332 1.10345q-20.6254 0 -38.3668 -7.60345
q-24.5 -10.5 -43.5 -31.5q-28 -30 -46 -71q-16.2 -36.9 -16.2 -76.23q0 -4.37 0.2 -8.77q1 -12 9 -24t24 -11q29 2 47 23.5t25 47.5q2 7 3 13.5t2 13.5q0 9 5.5 9.5t9.5 -3.5q8 -8 4.5 -26t-9.5 -26q-8 -11 -14 -22t-16 -20q-19 -19 -46 -24q-15 -3 -26.5 3.5t-19 18
t-10.5 25.5t-1 27q5 31 14.5 60t27.5 55q17 23 42 40.5t52 24.5q14.7368 3.36842 28.3213 3.36842q18.6787 0 35.1787 -6.36842q28.5 -11 46.5 -34zM452 514q14 21 25 43t20 45q10 25 15 51q2 9 5 25t-4 24q-3 3 -6.5 -0.5t-6.5 -10t-5.5 -13t-3.5 -8.5q-5 -12 -8.5 -24
t-7.5 -25q-6 -26 -10.5 -53.5t-12.5 -53.5z" />
    <glyph glyph-name="D" unicode="D" horiz-adv-x="659" 
d="M9 35q8 21 29 33t43 14q2.26667 0.133333 4.54222 0.133333q14.7911 0 29.9578 -5.63333q13.3824 -4.97059 24.718 -4.97059q3.48789 0 6.78201 0.470588q3 1 8 18.5t10.5 39t9.5 41t5 24.5q8 26 14.5 52t12.5 53q11 50 27 99t39 95q11 22 27 41.5t36 32.5q1 1 6 4
t10 5.5t9 2.5t4 -5t-4 -9.5t-6 -8.5l-15 -24q-28 -45 -42.5 -95.5t-26.5 -97.5q-13 -51 -27 -101.5t-28 -101.5q-1 -3 -5 -16t-8.5 -28t-8 -27l-3.5 -12q11 -5 23.5 -8t24.5 -7q18 -6 38 -7q4.44444 -0.222222 8.88889 -0.222222l31.1111 2.72222q20 3.5 38 10.5t33 15
q43 23 74 61t51 77q22 42 37 94t17 105.5q0.258065 6.90323 0.258065 13.7482q0 46.2034 -11.7581 89.7518q-13.5 50 -46.5 86q-35 36 -78 65t-92 37q-25 5 -51.5 6q-4.41667 0.166667 -8.79167 0.166667q-21.875 0 -42.7083 -4.16667q-25 -4 -48 -13.5t-45 -21.5
q-48 -26 -74 -60.5t-45 -82.5q-9 -24 -11.5 -49.5q-0.595238 -6.07143 -0.595238 -12.1145q0 -19.3379 6.09524 -38.3855q4 -11 7.5 -20.5t10.5 -18.5t16 -16t18 -13q20.2222 -12.5185 39.5171 -12.5185q0.742112 0 1.48285 0.0185185q20 0.5 43 8.5l9 3t12 3.5t11 0.5t6 -6
t-3 -8.5t-10 -6.5t-12 -5l-9 -3q-10 -2 -21 -4.5t-21 -0.5q-12 2 -23 5t-22 8q-19 10 -35 26t-24 36q-10.2424 24.4242 -10.2424 52.573q0 7.57851 0.742424 15.427q3.5 37 17.5 72t35 65.5t44 48.5q18 14 41.5 27t44.5 19q12 3 24 6.5t25 5.5
q24.5333 2.84444 48.4978 2.84444q43.4356 0 85.0022 -9.34444q64.5 -14.5 121.5 -49.5q41 -24 74 -61t50 -81q18.05 -46.55 18.05 -95.8075q0 -2.5925 -0.05 -5.1925q-1 -52 -12 -102t-34 -96t-55 -86q-14 -17 -30.5 -32.5t-34.5 -28.5q-17 -13 -42 -22t-45 -14
q-31 -8 -63.5 -8.5q-1.91176 -0.0294118 -3.8218 -0.0294118q-30.5606 0 -60.6782 7.52941q-15 4 -30 9l-30 10q-8 2 -10.5 -1.5t-6.5 -8.5q-10 -18 -26 -33.5t-34 -24.5q-9 -4 -24 -6.5t-30.5 -1.5t-28.5 5.5t-19 15.5q-6 10 -6.5 26t4.5 25zM71 -22q27 6 40.5 20.5
t24.5 37.5q2 4 5 9t2 10q0 5 -7.5 6t-10.5 2q-25 3 -47.5 6.5q-3.66279 0.569767 -7.25933 0.569767q-18.4965 0 -35.2407 -15.0698q-14 -14 -17 -29.5t3 -27t19 -18q8.04762 -4.02381 18.0113 -4.02381q6.13152 0 12.9887 1.52381z" />
    <glyph glyph-name="Z" unicode="Z" horiz-adv-x="512" 
d="M440 170q-6 -15 -11.5 -28t-15.5 -26q-11 -14 -20.5 -28t-21.5 -26q-21 -21 -46.5 -37.5t-53.5 -28.5q-13 -5 -26.5 -8.5t-27.5 -4.5q-16 -1 -32.5 -3.5q-7.5 -1.13636 -15.1033 -1.13636q-9.12397 0 -18.3967 1.63636q-31 5 -57.5 18t-47.5 36q-20 21 -33.5 48.5
t-13.5 56.5q0 31 5.5 59.5t22.5 54.5q14 20 32 34.5t41 21.5q16.7797 5.49153 32.2562 5.49153q35.2522 0 63.7438 -28.4915q20 -20 24.5 -46.5q2.13158 -12.5526 2.13158 -25.2175q0 -14.072 -2.63158 -28.2825q-2 -10 -6 -24.5t-10.5 -27.5t-16.5 -21.5t-23 -5.5
q-8 1 -8.5 6t2 10t7 10.5t6.5 8.5q10 13 16 28t11 30q4.65116 13.9535 4.65116 26.7171q0 14.6782 -6.15116 27.7829q-11.5 24.5 -37.5 40.5q-12 7 -25.5 7.5t-27 -3.5t-25 -12t-19.5 -18q-19 -23 -26 -49.5t-12 -55.5q-1.33333 -9.33333 -1.33333 -18.9444
q0 -19.2222 5.33333 -39.5556q8 -30.5 25 -53.5q18 -23 43.5 -36.5t54.5 -18.5q11.6 -2.4 23.36 -2.4q17.64 0 35.64 5.4q16 5 32.5 9t31.5 12q27 13 52 31t44 42t29.5 51.5t15.5 57.5q5.33333 28.4444 5.33333 56.8889q0 35.5556 -8.33333 71.1111q-3 12 -8.5 25.5t-13 26
t-18.5 21.5t-24 12t-29 2t-28 -5q-7 -2 -13 -5.5t-13 -5.5q-7 -3 -14.5 -7t-15.5 -2q-5 1 -5.5 5t1.5 8.5t5 8.5t6 6q12 7 25 11t25 12q24 15 40.5 38.5t27.5 49.5q5 14 11 27.5t9 27.5t5 31t-1 31q-3 12 -11 20.5t-19 13t-23 6.5t-23 1q-27 -2 -53.5 -16t-46.5 -34
q-17 -19 -21.5 -43.5q-3.11538 -16.9615 -3.11538 -34.1627q0 -7.64497 0.615385 -15.3373q2 -14 8 -27t5 -27q0 -11 -10 -11q-8 0 -11 6t-5 12q-7.33333 20.6667 -7.33333 41.3333q0 10.3333 1.83333 20.6667q5.5 31 17.5 60q6 14 16.5 24t21.5 19q13 11 26 19t28 13
q21.3333 7.11111 44.2469 7.11111q2.8642 0 5.75309 -0.111111q26 -1 49 -12q24 -12 40.5 -27.5q15.5571 -14.6143 15.5571 -43.0078q0 -19.578 -8.05714 -54.4922q-6 -26 -21 -47q-8 -11 -16.5 -21t-17.5 -21q-8 -10 -18 -16.5t-20 -15.5q17 -5 33.5 -6t32.5 -4
q15 -4 25.5 -14.5t19.5 -21.5q20 -23 25 -56v-6.5t1 -6.5q2 -4 4 -6.5t2 -6.5q0 -51 -10 -86.5t-22 -61.5z" />
    <glyph glyph-name="d" unicode="d" horiz-adv-x="396" 
d="M27 209q12 26 28 49t40 41q17 13 34 22t38 9q9 1 18.5 -1.5t17.5 -5.5q5 -2 11.5 -6t11.5 -1q4 2 5 10.5t2 13.5q6 33 15 66q9 32 20 63t24 62q12 29 28.5 54.5t35.5 49.5q17 21 40.5 41.5t51.5 24.5q12 2 25.5 0.5t18.5 -15.5q6 -13 3.5 -29.5t-6.5 -29.5
q-21 -62 -53 -122q-16 -29 -33.5 -56t-39.5 -50q-11 -11 -22 -23t-22 -23q-10 -11 -22 -20.5t-20 -20.5t-9.5 -25.5t-4.5 -27.5q-4 -17 -4.5 -34.5t-2.5 -34.5q-3 -35 -3.5 -69q-0.0714286 -4.85714 -0.0714286 -9.73469q0 -29.2653 2.57143 -59.2653q3 -30 5.5 -60
t17.5 -57q6 -10 15.5 -21t21.5 -13q6 -1 11.5 3t10 10t8 12.5t5.5 11.5q13 25 21 54l10 32t8 33q5 25 11 49t10 49q2 6 2.5 12.5t2.5 11.5q4 6 5.5 0t1.5 -8q-2 -14 -5 -27t-5 -27q-5 -26 -10 -52.5t-12 -52.5q-6 -27 -15.5 -51.5t-23.5 -47.5q-10 -17 -25.5 -22
q-7.75 -2.5 -15.875 -2.5t-16.625 2.5q-23 7 -38 24t-26 37q-13 23 -16 47.5t-5 49.5q-3 27 -3 53q1 14 2.5 29t-1.5 29q-6 -7 -10 -15t-9 -16q-6 -11 -12.5 -20t-13.5 -19q-11 -17 -24 -34.5t-31 -29.5q-15 -11 -36.5 -12q-1.79167 -0.0833333 -3.54514 -0.0833333
q-19.2882 0 -33.9549 10.0833q-16 12 -23 32q-6.125 17.5 -6.125 30.4062q0 2.90625 1.125 18.0938q1 13.5 4 31.5t7.5 38t11.5 35zM81 30q11 1 20 8t17 16t14.5 19t12.5 18q14 20 28 39.5t23 41.5q5 10 9.5 18t6.5 19q2 12 2 24t2 24l5 22.5t-2 21.5q-5 9 -17 11.5t-21 0.5
q-23 -4 -41.5 -20.5t-32.5 -33.5q-31 -37 -46 -83.5t-15 -93.5l0.5 -9t4 -19t10.5 -18t20 -6zM476 688q-4 5 -10 3t-10 -3q-11 -2 -21 -11.5t-18 -16.5q-20 -18 -35.5 -40t-28.5 -46q-14 -26 -23.5 -52.5t-19.5 -54.5t-17 -57t-12 -58q-1 -4 -3.5 -11t-0.5 -11q2 -5 8.5 1.5
l8.5 8.5q10 9 19.5 18t18.5 20q19 21 37 42.5t32 46.5q14 23 26.5 47t20.5 50q9 26 22 52t13 55q0 8 -1 9.5t-6 7.5z" />
    <glyph glyph-name="e" unicode="e" horiz-adv-x="234" 
d="M90 160q13 -4 27 5.5t22 17.5q22 21 36 48q7 14 12.5 30q4.03333 11.7333 4.03333 22.9289q0 4.07111 -0.533333 8.07111q-2 11 -6.5 23.5t-16.5 14.5q-13 2 -26.5 -6.5t-21.5 -16.5q-23 -23 -35 -53.5q-11.7926 -29.9728 -22.6194 -59.4626
q0.236326 -0.505087 0.619393 -2.03735q1 -4 4 -10.5t8.5 -13t14.5 -8.5zM243 153q2 8 4.5 14t7.5 11q6 7 7.5 0.5t-0.5 -10.5q-13 -32 -25.5 -59.5t-33.5 -53.5q-13 -17 -31.5 -30.5t-39.5 -20q-16.0588 -4.97059 -32.7024 -4.97059q-5.12111 0 -10.2976 0.470588
q-22 2 -41 16q-23 16 -34.5 41t-12.5 52q-0.533333 8 -0.533333 16.1778q0 22.4889 4.03333 46.3222q5.5 32.5 16.5 59.5q5 14 11.5 27t14.5 24q20 26 40.5 45.5t51.5 19.5q2.14286 0.142857 4.30612 0.142857q12.9796 0 26.6939 -5.14286q13 -6 20 -17.5t9.5 -25.5
t0.5 -28.5t-8 -27.5q-8 -17 -18 -34.5t-23 -30.5q-12 -13 -24.5 -22.5q-10.3261 -7.84783 -25.0879 -7.84783q-3.10775 0 -6.4121 0.347826q-17 2 -29 12q-3 1 -5 3q-4 2 -4 1q-1 -6 -2 -12.5t-2 -13.5q-2.53333 -25.3333 -2.53333 -42.0978q0 -18.1689 6.53333 -35.9022
q3 -7 7.5 -16t10.5 -17t14 -13t17 -3q14 1 32.5 10t37.5 27t36.5 44t30.5 61z" />
    <glyph glyph-name="f" unicode="f" horiz-adv-x="284" 
d="M236 441q-12 -21 -24 -42.5t-26 -41.5q-6 -9 -13 -17l-14 -16q-8 -9 -14.5 -18.5t-15.5 -17.5q-8 -8 -16.5 -14t-15.5 -15q-1 -1 2.5 -4.5t8.5 -7.5t9.5 -8t5.5 -5q16 -16 30.5 -32.5t25.5 -35.5q5 -8 10 -19.5t13 -14.5q11 -5 24.5 0t23.5 9q21 8 35 22q7 7 13.5 15.5
t16.5 10.5q0 -11 -9.5 -20.5l-17.5 -17.5q-24 -19 -55 -27q-4 -1 -14 -1.5t-12 -3.5q-3 -5 0 -12.5l5 -12.5q5 -17 11 -33.5t9 -33.5q5 -31 6 -63q0.166667 -5.33333 0.166667 -10.6389q0 -26.5278 -4.16667 -52.3611q-4 -27 -10.5 -57t-23.5 -53q-7 -10 -15.5 -20
t-19.5 -16q-14 -8 -26.5 -8t-27.5 5q-29 9 -46 34.5t-29 51.5q-14 29 -18.5 62t-9.5 64q-5 33 -6.5 66.5q-0.642857 14.3571 -0.642857 28.8061q0 19.2653 1.14286 38.6939l2 50t3 50q3 26 7.5 51.5t9.5 51.5q8 53 21 104t33 100q18 46 43 89q11 20 23.5 38.5t29.5 33.5
q15 14 37 26q14.6667 8 28.8889 8q7.11111 0 14.1111 -2q23 -7 30.5 -30.5t8.5 -43.5q0 -10 -4.5 -32t-12 -48.5t-18 -54t-22.5 -48.5zM216 46q-2 10 -4.5 19.5t-6.5 19.5q-3 8 -6.5 19.5t-11.5 16.5q-17 9 -35 14t-34 18q-18 13 -31 26q-7 7 -12.5 14t-13.5 13
q-5 -22 -5 -44.5t-1 -44.5q-2 -23 -4 -47.5q-1 -12.25 -1 -24.125t1 -23.375q2 -23 2.5 -46.5t4.5 -46.5q4 -24 11 -46.5t16 -44.5q7 -17 19 -34.5t28 -27.5q9.77778 -6.72222 19.3688 -6.72222q6.1034 0 12.1312 2.72222q15.5 7 25.5 21q5 9 8.5 18.5t7.5 18.5q4 10 8 19
t6 19q9.68 43.12 9.68 82.368q0 5.352 -0.18 10.632q-1.5 44 -12.5 85zM89 269q27 17 50 41q21 24 38.5 51t34.5 54q8 14 13.5 28t11.5 28q7 16 13 30.5t11 31.5q8 29 15 60q2.88235 12.7647 2.88235 25.5294q0 18.2353 -5.88235 36.4706q-5 13 -11.5 22t-21.5 7
q-13 -2 -24 -10t-19 -19q-9 -13 -18.5 -26t-18.5 -27t-15.5 -28.5t-12.5 -30.5q-14 -32 -23 -63.5t-17 -64.5q-8 -32 -13 -65l-10 -66q0 -2 -0.5 -4.5t-0.5 -4.5q0 -20 21 -6zM84 200q6 -8 13.5 -16t16.5 -14q8 -5 17 -11t18 -11l8 -4t11.5 -4.5t8.5 -0.5t0 7
q-10 20 -22.5 38.5t-29.5 33.5q-9 8 -18 14t-19 13q-6 5 -15.5 1t-7.5 -12q3 -10 8 -18t11 -16z" />
    <glyph glyph-name="g" unicode="g" horiz-adv-x="310" 
d="M35 -111q23 31 49.5 59t53.5 56q7 8 11.5 13t6.5 15q4 20 7 39t7 38q1 8 3 17.5t-1 17.5q-10 -13 -15.5 -25.5t-11.5 -24.5t-14.5 -25t-23.5 -28q-10 -9 -22.5 -12t-24.5 -4q-14 -2 -23.5 5.5t-17.5 16.5q-17.0526 20.8421 -17.0526 48.4155q0 27.1108 6.05263 58.5845
q3 15 5.5 29.5t7.5 28.5q11 32 26 57q30 51 76 84q11 7 22 13t23 8q14 3 30 4.5t29 -5.5q6 -3 10.5 -2t9 4t9 7t9.5 7q3 1 9 3.5t13 4t12 0.5t7 -7q3 -12 -4.5 -23.5t-14.5 -21.5q-8 -14 -18 -27.5t-17 -27.5q-5 -11 -7 -23l-4 -24q-2 -14 -5 -28.5t-5 -28.5
q-3 -15 -5.5 -30t-5.5 -30q-2 -12 -5.5 -27t-1.5 -27q9 5 16 13t14 15q19 17 34.5 33.5t32.5 31.5q4 4 9 10.5t10.5 12t10.5 7.5t9 -2q3 -3 1.5 -6.5t-6 -7.5t-10 -7.5t-8.5 -6.5q-8 -7 -15 -14l-15 -15q-16 -15 -31 -31t-31 -32q-7 -6 -15 -13t-12 -15q-5 -9 -5 -20.5
t-2 -21.5q-4 -21 -8.5 -42t-10.5 -42q-11 -42 -24.5 -83t-35.5 -79q-10 -17 -21 -34t-24.5 -30.5t-30.5 -22q-15.2105 -7.60526 -33.6233 -7.60526q-2.1662 0 -4.37673 0.105263q-38 2 -45.5 28.5q-3.21429 11.3571 -3.21429 24.3673q0 17.3469 5.71429 37.6327
q10 35.5 31 73t40 62.5zM44 77q4 -9 8 -19.5t14 -15.5q7 -4 18.5 0t16.5 9q9 8 15.5 18.5t11.5 19.5q7 11 14 22.5t12 23.5q13 25 22.5 50.5t15.5 53.5q6 26 13.5 52.5t19.5 49.5q6 11 5 17t-15 5q-27 -1 -47 -15t-36 -33.5t-29 -40.5q-13 -22 -25 -52t-20.5 -59.5
t-12.5 -53q-2.28571 -13.4286 -2.28571 -22.1224q0 -6.52041 1.28571 -10.3776zM86 -271q19 39 28 79q5 25 9.5 49t9.5 49q3 13 5.5 25.5t5.5 25.5q2 11 6 22.5t4 22.5q-11 -7 -20 -17t-18 -19q-11 -10 -20.5 -20.5t-19.5 -21.5q-19 -21 -35.5 -43.5t-30.5 -47.5
q-13 -24 -25.5 -51.5t-14.5 -55.5q0 -11 1 -23t11 -20q11.5556 -10.6667 25.0864 -10.6667q1.69136 0 3.41358 0.166667q15.5 1.5 30.5 10.5t27 22t18 24zM284 373q-3 -8 -5.5 -15t-5.5 -15q8 9 16 20t9 18q1 4 -4 4t-10 -12z" />
    <glyph glyph-name="h" unicode="h" horiz-adv-x="314" 
d="M259 693q5 -6 4 -15.5t-2 -17.5q-2 -22 -10 -43t-17 -41q-8 -20 -20 -38.5t-24 -37.5t-25 -36.5t-27 -34.5q-7 -8 -14 -15t-14 -15l-16 -14t-13 -15t-6 -18t-3 -20q-7 -35 -12 -69t-9 -69l-4 -42q-0.8 -8.4 -0.8 -16.8q0 -12.6 1.8 -25.2q11 26 19 55t20 55t24 55t33 50
q15 16 35 21.5q6.28571 1.72857 12.5714 1.72857l27.4286 -8.22857q13 -8 18 -20t6 -25.5t-0.5 -27.5t-1.5 -26q-1 -17 -3 -32.5t-5 -31.5q-4 -15 -6 -30.5t-5 -31.5q-3 -15 -6 -29.5t-3 -31.5q0 -12 1 -28t10 -25q10 -10 20 -3.5t19 19.5t15.5 27t9.5 19q7 14 13.5 27.5
t11.5 28.5q3 6 5.5 15.5t5 18.5t6 14.5t7.5 4.5t3.5 -7t-3 -14t-6 -16t-6.5 -14q-5 -15 -10.5 -30t-11.5 -29q-10 -23 -27 -47.5t-43 -31.5q-16 -4 -28.5 1t-20.5 15.5t-13 24.5t-6 28q-0.818182 8.72727 -0.818182 17.4545q0 23.2727 5.81818 46.5455q8 32 14 63
q3 15 5.5 30.5t3.5 31.5q0 17 1 33.5t-3 29.5q-2 5 -6 10t-10 6q-5 1 -11.5 -5t-10.5 -10q-11 -11 -19.5 -24t-15.5 -27t-12.5 -27t-10.5 -27q-5 -16 -11.5 -31t-11.5 -31q-9 -29 -18.5 -59.5q-6.22414 -19.9828 -6.22414 -40.6094q0 -10.8561 1.72414 -21.8906
q1 -12 -4.5 -15t-13 -0.5t-15.5 8.5t-11 12q-5 9 -5 21v23q0 15 -0.5 30t0.5 30q2 60 8.5 119t17.5 117q11 54 27 107t41 102q11 24 24.5 45.5t30.5 41.5q16 19 36 29q7 4 17 8.5t20.5 6.5t20 0.5t16.5 -8.5zM240 688q-10 2 -20.5 -5t-17.5 -14q-17 -15 -28.5 -35t-22.5 -41
q-11 -24 -19.5 -49t-18.5 -50q-9 -25 -16.5 -50.5t-10.5 -51.5q15 11 27 27.5t24 30.5q14 17 25.5 33.5t22.5 34.5q10 17 20.5 33.5t19.5 34.5q4 7 10 23t9.5 33t3.5 30.5t-8 15.5z" />
    <glyph glyph-name="i" unicode="i" horiz-adv-x="156" 
d="M6 144q9 62 28 118q3 10 7 19.5t9 18.5q9 17 24 14q17 -5 14 -24q-1 -8 -2.5 -15.5t-3.5 -15.5q-6 -26 -11.5 -52.5t-9.5 -52.5q-4 -25 -5 -50t-3 -50q0 -5 1 -9.5t3 -9.5q5 -17 13 -17.5t21 10.5t20.5 24t13.5 28q11 27 22 53.5t22 52.5q4 5 8 3.5t2 -6.5l-4 -12l-4 -12
q-8 -20 -14 -39.5t-15 -37.5q-10 -20 -21.5 -39t-32.5 -31q-17.5 -9.8 -36.47 -9.8q-8.13 0 -16.53 1.8q-11 3 -17 11.5t-10 19.5q-7.52941 27.2941 -7.52941 52.3737q0 26.7675 5.52941 56.6263zM96 397q9 -1 15 -6.5t5 -13.5q-1 -17 -9 -28.5t-19 -11.5q-9 1 -17.5 9
t-7.5 16q1 12 12 24t21 11z" />
    <glyph glyph-name="j" unicode="j" horiz-adv-x="140" 
d="M-219 -264q2 9 4.5 18t5.5 17q9 28 23.5 53t31.5 49q18 26 37 51.5t42 48.5q12 11 23 22.5t24 22.5q8 8 9 17t3 18q5 30 11 60.5t11 60.5q5 26 10 50.5t10 49.5q2 8 4.5 15t4.5 14q5 11 19 11q16 -2 16 -14q0.25 -4.75 0.25 -9.75q0 -15 -2.25 -32.25q-3 -20 -5.5 -40
t-6.5 -40q-4 -23 -8.5 -45t-8.5 -45q-1 -3 -1 -9q6 4 7 5l36 34l36 34q23 23 47 44q2 2 4.5 2t4.5 1q0 -3 0.5 -5.5t-1.5 -4.5q-10 -10 -20 -19.5t-20 -19.5q-21 -20 -41.5 -39.5t-41.5 -39.5q-10 -9 -14.5 -20t-6.5 -24q-2 -14 -4.5 -28.5t-6.5 -28.5l-14 -58t-16 -58
q-11 -37 -32 -75q-10 -18 -20.5 -35t-23.5 -34q-15 -20 -36 -31q-17.7692 -9.30769 -37.6864 -9.30769q-3.6213 0 -7.31361 0.307692q-23 2 -33.5 10t-13.5 34v10.5t-1 11.5h-1zM-23 6q-10 -9 -20.5 -17t-18.5 -19q-20 -23 -40.5 -46.5t-37.5 -48.5q-15 -21 -27 -44t-23 -46
q-7 -15 -10 -31.5t-6 -32.5q-2 -11 6 -22.5t16 -14.5q8.5 -3 18.125 -3t20.375 3q21.5 6 32.5 19q20 20 29 45t17 51q8 28 14 57l12 58q5 23 9.5 45.5t9.5 45.5v1h-1zM65 344q-11 0 -17.5 7t-6.5 18t10 21.5t21 10.5q9 0 15 -6t6 -16q0 -13 -9 -24t-19 -11z" />
    <glyph glyph-name="k" unicode="k" horiz-adv-x="280" 
d="M259 686q1.77778 -7.55556 1.77778 -15.9012q0 -10.4321 -2.77778 -22.0988q-7 -44 -25 -85q-8 -20 -17 -38.5t-18 -37.5q-7 -16 -17 -35q-14 -26 -30.5 -52.5t-34.5 -49.5q-13 -18 -27 -32q-7 -8 -15 -15.5t-12 -17.5q-5 -9 -5.5 -18.5t-2.5 -18.5q-4 -30 -6 -58t-2 -56
q0 -2 -0.5 -10t0.5 -8q6 17 9.5 35t9.5 35t14 33l16 32t16.5 31t17.5 30q8 13 19.5 24t25.5 17q12 5 25.5 5.5t21.5 -11.5q7.71429 -12 7.71429 -25.8367q0 -13.1633 -4.71429 -35.1633q-4 -12 -7.5 -24.5t-9.5 -23.5q-7 -13 -17 -18.5t-21 -13.5q8 -6 16 -10t13 -14
q6.4 -14.4 6.4 -30.08q0 -3.92 -0.4 -7.92q-2 -17 -5 -32.5t-5 -31.5l-4 -28t5 -28q8 -13 16 -11t18 11q19 20 33 48t21 53q2 6 4.5 14.5t5 16t6 12.5t6.5 4q7 -2 2.5 -15.5t-8.5 -24.5q-5 -11 -8.5 -23t-8.5 -23q-9 -20 -18.5 -39t-26.5 -35q-12 -12 -29.5 -18.5
q-7.84483 -2.91379 -15.5892 -2.91379q-9.53151 0 -18.9108 4.41379q-10 4 -16 13t-9 19.5t-3.5 21.5t1.5 20q4 23 8.5 46q3.11538 15.9231 3.11538 31.8462q0 7.07692 -0.615385 14.1538q-2 9 -3.5 17t-9.5 14q-4 3 -8.5 4.5t-7.5 4.5q-4 5 1.5 8t7.5 5q16 6 24.5 19
t13.5 29q2 9 5 18t5 17l3 9t3.5 11.5t0.5 10.5t-6 7q-14 6 -23.5 -3.5t-18.5 -20.5q-10 -12 -17.5 -25t-14.5 -26q-17 -31 -28 -59.5t-19 -57.5q-9 -32 -13 -64t-6 -65q0 -7 -4.5 -9t-9.5 -1.5t-11 3t-9 5.5q-11 9 -11 25.5t-1 29.5q-0.666667 21.3333 -0.666667 42.8889
q0 10.7778 0.166667 21.6111q0.5 32.5 2.5 64.5t6.5 63.5t9.5 63.5q2 16 6 31t8 31q5 17 8 34t7 34q8 30 18 60t24 57q14 23 27 47t33 43q10 9 20.5 16t21.5 14q5 3 10.5 7t12.5 5q14 3 27 0.5t18 -16.5zM228 688q-12 -3 -22.5 -12t-18.5 -19q-18 -22 -30.5 -48t-23.5 -52
q-12 -29 -21 -60t-17 -62q-5 -15 -9 -30.5t-7 -31.5l-6 -30q-2 -7 -4.5 -14.5t-0.5 -14.5q6 3 14 12t12 14q26 28 44 61.5t35 64.5q14 23 25 47.5t22 49.5q3 6 10.5 27.5t12.5 45q3.57143 16.7857 3.57143 30q0 5.28571 -0.571429 10q-2 16.5 -18 12.5z" />
    <glyph glyph-name="l" unicode="l" horiz-adv-x="184" 
d="M250 540q-14 -29 -28 -55.5t-31 -52.5q-16 -26 -32.5 -51t-35.5 -49q-17 -20 -31 -38t-29 -35q-5 -6 -6 -11.5t-2 -13.5q-6.09524 -35.0476 -6.09524 -67.483q0 -10.1361 0.595238 -20.017q2.5 -41.5 7.5 -85.5q2 -11 7 -22t17 -16t23 -1t20 11.5t16.5 17.5t13.5 19
q8 12 15 25t13 27q3 6 6.5 15.5t7.5 18.5t8 15t7 4t2.5 -8t-3 -13t-6 -14.5t-5.5 -12.5l-14 -28t-15 -27q-6 -10 -14.5 -22t-18.5 -22.5t-22 -18t-25 -8.5q-14 -2 -25.5 3.5t-21 14.5t-16.5 20.5t-11 23.5q-13 34 -14.5 63q-0.642857 12.4286 -0.642857 25.2245
q0 17.0612 1.14286 34.7755q2 33 5.5 65t9.5 65q2 15 4.5 30.5t7.5 30.5q5 17 10.5 32.5t10.5 31.5q20 61 47.5 116t74.5 101q13 13 30 25.5q13.7097 10.0806 29.3704 10.0806q3.75858 0 7.62955 -0.580645q24 -3 30.5 -23.5q4.44737 -14.0263 4.44737 -30.6274
q0 -7.66205 -0.947368 -15.8726q-3 -26 -11 -50t-12 -33zM252 666q-13 6 -25 -1t-20 -15q-26 -26 -39.5 -53.5t-25.5 -53.5q-16 -32 -28 -65.5t-21 -68.5q-4 -17 -8 -33t-9 -33q-4 -15 -9 -32.5q-3.57143 -12.5 -3.57143 -24.2347q0 -4.69388 0.571429 -9.26531q9 5 17 15.5
t14 18.5q26 32 48.5 63.5t41.5 63.5l26 44t23 45q4 9 11 29.5t12.5 43t5.5 41.5t-11 25z" />
    <glyph glyph-name="m" unicode="m" horiz-adv-x="474" 
d="M158 231q-17 -26 -32 -53t-29 -55q-7 -15 -14 -29.5t-13 -29.5l-4 -14t-4 -15q-1 -5 -2 -12.5t-4 -12.5q-7 -9 -19 -10.5t-21 6.5q-10 8 -12.5 24t-2.5 29q-0.25 8 -0.25 15.9688q0 23.9062 2.25 47.5312q3 31.5 8 63.5q4 30 10 60t17 59q4 10 9.5 23t15.5 18
q8 3 17.5 -1t13.5 -12q5 -12 0.5 -26.5t-6.5 -26.5q-4 -15 -7 -30.5t-6 -31.5t-5.5 -31.5t-4.5 -31.5t-4.5 -33.5q-1.13636 -7.95455 -1.13636 -15.5992q0 -9.17355 1.63636 -17.9008q15 21 24 47t22 49l14 24t15 24q6 10 13 22.5t17 19.5q7 5 16.5 4.5t16.5 -5.5
q10 -8 12 -20t1 -23q-1 -14 -4.5 -27t-6.5 -26q-2 -12 -3.5 -25t-5.5 -24q8 13 13 27t10 27q7 14 13.5 28.5t14.5 28.5q16 28 33.5 55t36.5 53q8 10 15.5 17.5t20.5 11.5q11 3 21.5 2t19.5 -9q11 -9 16 -22.5t5.5 -29t-1 -31t-3.5 -28.5q-11 -67 -24 -128q-4 -15 -7 -30.5
t-3 -31.5q0 -11 1 -28t9 -27q8 -11 18.5 -6t19.5 16t15.5 23t8.5 16q7 14 13 28t13 28q3 7 6 17t6 19t6.5 15.5t7.5 5.5q6 -1 5.5 -7.5t-4 -15t-8 -17.5t-6.5 -16q-5 -16 -11 -31.5t-14 -30.5q-11 -23 -26.5 -43.5t-41.5 -26.5q-16 -3 -28 1t-20 13t-13 21.5t-8 26.5
q-3.76923 17.7692 -3.76923 35.6834q0 15.355 2.76923 30.8166q6 33.5 11 66.5q6 33 14 68t8 67q0 6 -0.5 12t-2.5 10.5t-6 5.5t-11 -5q-13 -11 -22.5 -23.5t-17.5 -26.5q-35 -54 -62.5 -112t-42.5 -121q-2 -8 -4 -18.5t-7 -17.5q-4 -6 -14 -11.5t-17 -7.5q-6 -1 -9.5 7
t-4.5 18.5t-1 21v14.5q0 21 4 42l8 42q4 20 8.5 42t5.5 42z" />
    <glyph glyph-name="n" unicode="n" horiz-adv-x="338" 
d="M222 273q2 15 5.5 33q1.63333 8.4 1.63333 16.1467q0 8.85333 -2.13333 16.8533q-2 8 -7 8t-10.5 -4t-10.5 -9l-8 -8q-11 -12 -19.5 -27t-16.5 -29q-17 -29 -32 -58.5t-29 -59.5q-12 -27 -24.5 -57t-13.5 -60q-1 -12 -2.5 -21t-16.5 -11q-13 -2 -20 5t-11 18
q-7.69231 23.8462 -7.69231 49.4675q0 7.68639 0.692308 15.5325q3 34 7 65q3 32 9.5 62t19.5 59q5 11 12.5 20.5t21.5 3.5q17 -6 16.5 -19.5t-3.5 -27.5q-5 -18 -9 -36t-7 -36q-2 -16 -6 -34.5q-2.66667 -12.3333 -2.66667 -23.5556q0 -5.61111 0.666667 -10.9444
q8 12 13.5 26t10.5 28q7 16 14 31.5t15 30.5q15 29 31.5 56.5t36.5 53.5q6 9 14 17.5t17 15t19.5 9.5t22.5 -1q13 -4 20.5 -14.5t11 -24t3 -27.5t-2.5 -25q-5 -34 -10.5 -67.5t-12.5 -66.5q-7 -31 -12.5 -61q-2.88095 -15.7143 -2.88095 -31.9773
q0 -14.7846 2.38095 -30.0227q2 -12 11 -17t20 -1q13 5 21.5 19.5t14.5 25.5q8 14 14 28.5t12 28.5q1 4 4 13.5t7 20t7.5 18t6.5 6.5q4 -1 3.5 -6t-2 -11.5t-4 -12.5t-3.5 -8q-4 -12 -9.5 -24t-8.5 -25q-5 -19 -16 -42t-26.5 -39.5t-36 -21q-4.1 -0.9 -8.26 -0.9
q-16.64 0 -34.24 14.4q-18 14 -25 40q-4.9 18.2 -4.9 34.44q0 6.96 0.9 13.56q0 3 3.5 27.5t8.5 55.5t10 60.5t8 43.5z" />
    <glyph glyph-name="o" unicode="o" 
d="M243 178q5 -2 10.5 0.5t9.5 4.5q7 3 15.5 4t15.5 6q11 8 15 8.5t12 11.5q5 5 8.5 10t8.5 2q7 -4 2 -11t-10 -12q-9 -11 -17.5 -16.5t-17 -8.5t-18 -5t-21.5 -5q-12 -4 -17.5 -8.5t-8.5 -17.5q-8 -30 -23 -58q-13 -24 -31.5 -45.5t-44.5 -32.5
q-14.5455 -5.81818 -30.6777 -5.81818q-6.04959 0 -12.3223 0.818182q-23 3 -41 14q-22 14 -32.5 39.5t-13.5 49.5q-1.66667 10.6667 -1.66667 21q0 20.6667 6.66667 40q10 29 27 55q5 6 9 12.5t9 13.5q3 5 1.5 12t-3.5 12q-1.66667 10.3333 -1.66667 20
q0 19.3333 6.66667 36q9 25 29 41t47 16q1.85714 0.0714286 3.68622 0.0714286q23.7781 0 42.8138 -12.0714q20.5 -13 34.5 -35q13 -20 19 -39.5t8.5 -38.5t2.5 -38.5t2 -40.5zM168 361q-14 6 -30 7t-30 -4q-17 -6 -23.5 -24.5t-7.5 -35.5q-1 -7 -0.5 -15t3.5 -15
q4 -8 11 -10t11 -9q5 -8 4.5 -13t-2.5 -13q-2 -9 7.5 -15.5t15.5 -11.5q32 -25 73 -26q6 -1 16.5 -2.5t11.5 7.5q0.5 12.5 0.5 25.5t-0.5 26.5q-1 27 -7 51.5t-19 44.5t-34 32zM75 26q11.8182 -13.6364 26.9421 -13.6364q1.5124 0 3.05785 0.136364q17 1.5 32 9.5
q35 20 55 55t30 73q2 6 -1.5 8.5t-8.5 3t-11 0t-10 -0.5q-20 2 -39.5 7.5t-37.5 16.5q-2 1 -6 4.5t-9 7t-9.5 5.5t-6.5 0q-5 -5 -9 -14t-6 -16q-14.2222 -34.6667 -14.2222 -69.3333q0 -4.33333 0.222222 -8.66667q1 -15 6.5 -36t14.5 -32z" />
    <glyph glyph-name="p" unicode="p" horiz-adv-x="326" 
d="M285 196q-5 -17 -12.5 -32.5t-11.5 -32.5q14 0 27 9t24 17q6 4 12.5 8t12.5 9q5 5 9.5 10t9.5 9q5 -12 -5.5 -22t-18.5 -17q-22 -19 -51 -32q-12 -6 -22.5 -10t-18.5 -15q-9 -11 -17.5 -22t-19.5 -21q-19 -20 -43.5 -34.5t-52.5 -15.5
q-1.92857 -0.142857 -3.73469 -0.142857q-23.4796 0 -26.2653 24.1429q-2 11 3 22t16 16q14 7 28.5 12t28.5 10q5 2 11 5t10 8q5 7 8.5 15.5t8.5 16.5q14 30 27 60t22 62q4 12 8.5 28t6.5 32.5q0.888889 7.33333 0.888889 14.4691q0 8.91975 -1.38889 17.5309
q-2.5 15.5 -14.5 24.5q-12 10 -23.5 6t-22 -14t-19 -22.5t-13.5 -20.5q-18 -27 -32 -56.5t-27 -58.5q-14 -30 -28 -61t-22 -63t-11 -65.5t-8 -66.5l-10 -66t-11 -66q-1 -7 -3 -23t-7 -31t-13.5 -23t-21.5 1q-11 8 -10.5 22.5t2.5 26.5q2 18 4.5 35.5t4.5 34.5q8 67 17 133.5
t18 132.5q5 34 10 67.5t10 67.5q2 16 4 31.5t4 32.5t4.5 32.5t11.5 29.5q8 11 20.5 8t17.5 -14q3 -6 2 -13l-2 -14q-5 -29 -7.5 -56t-4.5 -54q-2 -15 -5 -32t0 -31q19 26 30.5 55t25.5 55q13 24 27 47t34 41q19 16 43 16q14 -1 24 -9.5t18 -19.5q15 -22 20.5 -48.5
q4.03333 -19.4333 4.03333 -38.5978q0 -6.96889 -0.533333 -13.9022q-1 -17 -2.5 -32t-7.5 -38zM105 18q7 0 12.5 4.5t10.5 9.5q8 8 17.5 20.5t11.5 24.5q-11 -1 -22.5 -6t-21.5 -10q-11 -4 -18.5 -11.5t-2.5 -18.5q3 -8 6.5 -10t6.5 -3z" />
    <glyph glyph-name="q" unicode="q" horiz-adv-x="338" 
d="M234 109q-5 2 -9 3t-8 -3q-9 -10 1 -13q3 -1 7.5 0t8 3.5t4 5t-3.5 4.5zM307 380q-12 -8 -19.5 -21.5t-13.5 -27.5q-7 -14 -12.5 -29t-7.5 -30q10 10 17 22.5t15 24.5q8 14 17 31.5t4 29.5zM81 49q10 5 18.5 12t16.5 15q7 8 16 17.5t13 20.5q17 53 32 107t44 104
q1 3 5 7.5t6.5 10t3 10t-3.5 6.5q-11 5 -23 5.5t-23 -3.5q-23 -9 -41 -29t-32 -39q-32 -45 -51 -95.5t-19 -104.5q0 -2 1.5 -11t5.5 -18.5t11.5 -15t19.5 0.5zM257 91q-5 5 -10 4.5t-11 -2.5q-8 -2 -14 -2.5t-14 -2.5q-6 -1 -9 -6t-4.5 -12t-2 -14t-1.5 -11
q-14 -64 -23.5 -128.5q-7.22 -49.02 -7.22 -98.9064q0 -15.7536 0.72 -31.5936q2 -27 4.5 -57t22.5 -51q4 -4 9.5 -8.5t11.5 -2.5q5 2 10 8.5t8 11.5q8 13 12.5 27t9.5 28q8 30 15.5 60.5t12.5 61.5q5 32 7.5 64.5t4.5 64.5l-1 8.5q-1 11.5 -4.5 28t-10 34t-16.5 27.5z
M84 324q19 20 43.5 36t52.5 19q16 2 29.5 -2t27.5 -10q6 -3 9.5 -1t8.5 7l10 10t12 9q9 5 20.5 7.5t20.5 -4.5q5 -5 6 -10.5t0 -11.5t-4 -12t-5 -11q-13 -30 -30.5 -56t-37.5 -52q-8 -11 -12 -23.5t-8 -26.5q-4 -16 -8 -31t-8 -31q-3 -11 4 -10.5t15 -1.5q6 -2 12 -5t13 -2
q8 2 15.5 8t14.5 11q13 10 26 19t27 19q5 4 11 10t12 11.5t10 9t6 1.5q5 -6 0 -11l-11 -11l-9.5 -9.5l-9.5 -9.5q-12 -11 -26 -20t-28 -17q-6 -5 -12.5 -8.5t-13.5 -7.5q-6 -4 -3 -7.5t7 -8.5q16 -23 22 -53q6.125 -27.125 6.125 -55.3984q0 -4.03906 -0.125 -8.10156
q-1 -32.5 -4 -63.5q-4 -34 -10 -66.5t-14 -65.5q-3 -13 -6 -28t-7.5 -30t-11 -28t-16.5 -23q-10 -11 -23.5 -12.5t-27.5 1.5q-15 3 -25.5 12t-18.5 22q-17 26 -22 56.5t-6 60.5q-1 17 -1 34t1 34q2 34 7 67q2 17 4.5 32.5t5.5 31.5t6.5 32.5t5.5 33.5q-10 -8 -19 -17.5
t-19.5 -18t-22 -13.5t-25.5 -4q-26 2 -38.5 20.5t-15 46q-0.694444 7.63889 -0.694444 15.7022q0 20.9645 4.69444 44.7978q6.5 33 18.5 66t29 62t36 48z" />
    <glyph glyph-name="s" unicode="s" horiz-adv-x="158" 
d="M78 76q1 -5 1.5 -10t2.5 -9q1 -2 3 -1.5t4.5 2t4 3.5t2.5 3q18 15 36 33l16 18t15 20q7 9 15.5 21.5t13.5 11.5q6 -2 5 -7.5t-6.5 -12.5t-12 -14t-10.5 -13q-9 -12 -18.5 -23.5t-20.5 -22.5q-5 -5 -10 -9.5t-10 -9.5t-10.5 -9t-9.5 -9t-2.5 -12t3.5 -12q2 -10 2.5 -19
t-0.5 -19q-2 -25 -10.5 -49.5t-27.5 -42.5q-17 -16 -43.5 -22.5q-9.84286 -2.41429 -19.0649 -2.41429q-15.6065 0 -29.4351 6.91429q-11 5 -15.5 14.5t-5.5 20t1.5 21.5t7.5 20q6 11 14.5 19.5t18.5 16.5q11 8 26 16t22 19q2 5 1 12t-3 12q-5 26 -10 50t-8 49
q-5 31 -9 64.5q-1.45455 12.1818 -1.45455 24.1653q0 20.9711 4.45455 41.3347q3 17 10.5 32.5t22.5 25.5q13 9 27 14.5q5.7037 2.24074 11.9053 2.24074q9.02058 0 19.0947 -4.74074q15 -8 20 -24.5q2.5 -8.25 2.5 -16.375t-2.5 -16.125q-2 -8 -6 -14.5t-11 -10.5
q-8 -5 -12.5 -4t-12.5 5q4 5 6.5 7t8.5 5q10 4 15 15q6 11 2.5 23t-13.5 19q-11 8 -22.5 5t-19.5 -14q-7 -11 -9 -23t-2 -24q1 -11 5.5 -34t10 -50.5t11.5 -56.5t11 -51zM34 -3q-8 -1 -17.5 -9.5t-16.5 -13.5q-19 -12 -32 -29t-13 -40q0 -20 17.5 -30
q8.33333 -4.7619 16.5533 -4.7619q9.04195 0 17.9467 5.7619q19 12 27 27q8.57143 16.0714 8.57143 35.5714q0 13.7143 -2.57143 27.4286q-3 16 -6 31z" />
    <glyph glyph-name="t" unicode="t" horiz-adv-x="177" 
d="M123 594q6 -4 7.5 -10t0.5 -13t-3.5 -14.5t-3.5 -14.5q-5 -22 -10 -43.5t-10 -43.5q-3 -11 7 -12q11 -2 22.5 -4t23.5 -3q10 -1 16.5 5t11.5 14q3 4 5.5 10.5t8.5 4.5l2 -4t0 -4q-2 -15 -15.5 -25t-24.5 -8q-26 0 -53 6q-9 0 -10 -7q-6 -33 -11.5 -65.5t-11.5 -64.5
l-8 -48t-6 -48q-2 -26 -6 -52q-3.2 -20.8 -3.2 -41.6q0 -5.2 0.2 -10.4q0 -11 1.5 -20.5t3.5 -20.5q2 -12 9 -21t19 -13q11 -4 19.5 -0.5t16.5 11.5q23 20 38 45.5t28 52.5q5 9 8 18.5t7 18.5q2 7 7 6q2 -1 3 -4t1 -5q-3 -9 -5.5 -18.5t-7.5 -18.5q-8 -17 -16 -33t-19 -32
q-10 -14 -21 -27t-24 -24q-15 -12.5 -34.8611 -12.5q-3.97222 0 -8.13889 0.5q-25 3 -40 23q-35 45 -36 102q-0.2 4.6 -0.2 9.26q0 18.64 3.2 38.24q4 24.5 6 47.5q5 34 10.5 67.5t11.5 67.5q4 23 9 46l10 46q0 3 -5 6q-28.6154 11.0769 -56.3787 11.0769
q-2.31361 0 -4.6213 -0.0769231q-6 0 -11 -1.5t-9 -7.5q-2 -2 -6 -3.5t-6 0.5t-1 3.5t1 3.5q6 8 13.5 13.5t18.5 6.5q8 -1 15 -1.5t15 -2.5t15.5 -3.5t15.5 -5.5q7 -3 9 0t4 9l14 46t15 46q5 15 13 24.5t22 1.5z" />
    <glyph glyph-name="u" unicode="u" horiz-adv-x="356" 
d="M178 121q-11 -10 -18 -24.5t-15 -26.5q-9 -12 -18.5 -23.5t-21.5 -22.5q-8 -8 -20.5 -15.5t-25.5 -7.5t-24.5 7t-19.5 17q-8 12 -11.5 26.5t-3.5 29.5t1.5 30.5t3.5 28.5q5 32 12 64.5t18 62.5q4 11 10 26.5t17 21.5q9 5 21.5 1.5t14.5 -14.5q2 -6 0.5 -13t-3.5 -13
q-2 -8 -3.5 -15.5t-3.5 -15.5q-3 -17 -6.5 -33.5t-8.5 -33.5q-8 -32 -12 -63q-3 -16 -7 -34.5q-2.66667 -12.3333 -2.66667 -23.5556q0 -5.61111 0.666667 -10.9444q2 -11 8.5 -20.5t19.5 -1.5t23.5 18.5t20.5 22.5q9 12 17.5 25t16.5 26q9 13 16.5 25.5t12.5 28.5
q4 14 6 28.5t6 28.5q3 16 8 31.5t11 31.5q10 23 24 46t42 29q9 2 18 0.5t7 -13.5q-2 -14 -11.5 -28.5t-17.5 -25.5q-9 -13 -16 -25t-12 -27q-5 -17 -8.5 -33.5t-7.5 -33.5q-6 -31 -11.5 -64.5q-2.88095 -17.5476 -2.88095 -34.6837q0 -15.5782 2.38095 -30.8163
q2 -12 7.5 -26t15.5 -22q11 -8 23.5 -3t21.5 12q11 9 19.5 21t16.5 24q8 14 16 29t15 30q3 6 6 15.5t6.5 18t7 14t6.5 4.5q5 -2 4 -6t-4 -10q-3 -7 -6 -13.5t-6 -14.5q-5 -12 -10.5 -24.5t-12.5 -24.5q-11 -21 -25 -42.5t-34 -35.5q-16.4706 -11.5294 -34.9758 -11.5294
q-3.9654 0 -8.02422 0.529412q-23 3 -40 21q-8 9 -13.5 20t-9.5 22q-8 21 -8.5 42.5q-0.1 4.3 -0.1 8.14q0 15.36 1.6 23.36zM288 338l-12 -24q1 -1 5.5 4.5t8.5 12t7 13.5t2 9q-2 0 -5.5 -5.5t-5.5 -9.5z" />
    <glyph glyph-name="v" unicode="v" horiz-adv-x="247" 
d="M21 210q5 32 10.5 63.5t15.5 63.5q5.42857 17.1905 23.1361 17.1905q1.86395 0 3.86395 -0.190476q6 -1 10.5 -2t9.5 -6q6 -6 6 -14t1 -16q0.5 -8 0.5 -16.0625q0 -24.1875 -4.5 -48.9375q-6 -33 -11 -65q-3 -15 -7 -30t-7 -30q-3 -17 -5.5 -34t-4.5 -34q-2 -12 2.5 -18
t16.5 2t20.5 22t16.5 25q8 13 17 25t16 26q3 6 5.5 12.5t5.5 12.5q4 7 8 13.5t2 14.5q-2 13 -7 25t-7 25q-1.14286 9.71429 -1.14286 19.2653q0 7.16327 0.642857 14.2347q1.5 16.5 4.5 32.5q2 14 4.5 27.5t11.5 24.5q8 10 17.5 18t22.5 8q17 -1 22 -12.5t3.5 -27
t-6.5 -30.5t-7 -24q-4 -16 -8.5 -30.5t-9.5 -29.5q-3 -8 -6 -14.5t-6 -14.5q-2 -5 -5 -12t1 -13q2 -3 10 -5l12 -3q13 -3 24 1q7 2 13.5 8t11.5 11.5t9.5 8.5t8.5 0q5 -5 0.5 -9t-9.5 -10q-5 -5 -10 -9.5t-11 -7.5q-11 -6 -27.5 -6.5t-27.5 4.5q-5 2 -9.5 6t-8.5 -4
l-7.5 -15t-8.5 -15q-8 -16 -17.5 -30.5t-20.5 -28.5q-7 -11 -15 -23.5t-17.5 -23.5t-21 -18t-26.5 -6q-26 2 -37 24q-11 20 -12 43.5q-0.222222 5.22222 -0.222222 10.4691q0 18.3642 2.72222 37.0309q3.5 24 10 47.5t9.5 43.5zM175 215q2 -5 3 -10t6 3q7 12 11 23
q9 25 18.5 50t15.5 51q2 9 4 19.5t-7 18.5q-9 7 -19.5 3t-17.5 -12t-10 -17.5t-5 -20.5q-2 -7 -3.5 -14.5t-2 -19.5t0.5 -29.5t6 -44.5z" />
    <glyph glyph-name="w" unicode="w" horiz-adv-x="422" 
d="M231 125q-1 -16 -2 -32.5q-0.333333 -5.5 -0.333333 -10.9444q0 -10.8889 1.33333 -21.5556q1 -4 1.5 -11t2.5 -13t5.5 -8t10.5 4q23 23 39 51.5t32 57.5q4 7 7.5 13.5t7.5 14.5q2 5 5 10.5t1 12.5q-5 16 -9.5 30.5t-5.5 31.5q-0.571429 7.71429 -0.571429 15.7959
q0 20.2041 3.57143 42.7041q5 31.5 22 53.5q8 11 19 18t25 2q15 -5 18 -17.5t0 -26.5q-7 -32 -16.5 -62.5t-20.5 -61.5q-3 -6 -6 -13t-4 -13t1.5 -11t11.5 -8q13 -5 27.5 -1.5t25.5 11.5q3 2 6.5 6.5t6.5 8t5.5 4.5t5.5 -2q4 -5 -1.5 -11t-11.5 -11q-14 -12 -26 -16
q-10 -4 -21.3333 -4q-5.66667 0 -11.6667 1q-5 2 -13.5 7.5t-13.5 3.5t-9.5 -12t-6.5 -15l-21 -36q-11 -17 -21.5 -34t-23.5 -34q-9 -12 -21.5 -23.5t-29.5 -12.5q-17 0 -29 11.5t-17 26.5q-5 20 -7 40t-3 40q-1 11 -0.5 21.5t0.5 21.5q0 9 0.5 19t-2.5 19q-8 -12 -12 -26
t-9 -28q-11 -28 -25 -52q-7 -11 -16.5 -22t-21 -17.5t-24.5 -7t-26 8.5q-23 17 -28 47q-4.16667 25 -4.16667 47.2222q0 4.44444 0.166667 8.77778q3 66 23 131q4 11 8.5 27t13.5 24q8 7 20.5 4.5t17.5 -11.5q3 -6 1.5 -13t-2.5 -13q-2 -8 -3 -16t-3 -16q-2 -18 -5 -36
t-5 -36q-2 -16 -4 -31.5t-4 -32.5t-3 -32q-0.166667 -2.5 -0.166667 -5.05556q0 -12.7778 4.16667 -26.9444q3 -8 7.5 -8.5t9.5 2t10 7t8 7.5q12 10 19 23t13 27q11 21 17 43.5t14 45.5q3 11 7 21.5t6 21.5q2 12 2.5 24t2.5 24q2 16 17 25.5
q7.30769 4.62821 14.6154 4.62821l15.3846 -5.12821q4 -3 6.5 -13.5t3.5 -23.5t1 -24.5v-16.5v-19t-0.5 -37t-1 -43.5t-1.5 -38.5zM350 203q12 17 19.5 38.5t14.5 40.5t12 39q2 9 5.5 20.5t0.5 19.5q-2 8 -9 10.5t-15 1.5q-8 -2 -14.5 -11.5t-10.5 -15.5q-9 -15 -13 -34
t-4 -38t4 -37.5t10 -33.5z" />
    <glyph glyph-name="x" unicode="x" horiz-adv-x="336" 
d="M120 354q5 -8 9 -17.5t8 -18.5q10 -19 15 -37t13 -34q9 8 16 17.5t14 18.5q4 5 8 12.5t8.5 14.5t9 10.5t9.5 -0.5q8 -5 1 -11.5t-12 -13.5q-6 -8 -11.5 -15t-11.5 -15q-5 -8 -10.5 -15.5t-11.5 -15.5q-5 -6 -2 -14.5t5 -15.5q10 -37 19.5 -74.5t21.5 -73.5q2 -6 5 -13
t7.5 -12.5t10 -7t13.5 3.5q13 9 23.5 22t18.5 26q11 14 18.5 30t15.5 32q3 7 7 19t8 22.5t9.5 16t11.5 1.5q3 -2 2.5 -8t-3.5 -13t-6.5 -14l-6.5 -13q-5 -14 -11 -27.5t-14 -26.5q-8 -11 -16.5 -23.5t-19 -25t-21.5 -22.5t-23 -15q-13.0345 -5.58621 -23.7574 -5.58621
q-6.55291 0 -12.2426 2.08621q-15 5.5 -25.5 19t-18 33t-13.5 39.5t-11 38t-11 29q-8 -6 -13 -14.5t-10 -16.5q-14 -20 -25 -37t-23 -34q-3 -5 -6 -11.5t-6.5 -11.5t-7.5 -7.5t-8 0.5q-3 3 -2.5 6t3.5 6.5t6.5 7t5.5 7.5q30 44 44.5 66t25.5 40q6 10 8 16.5t-3 17.5
q-4 11 -7 20.5t-7 19.5q-3 11 -6.5 20.5t-7.5 19.5q-2 8 -4.5 16t-7.5 15q-12 -24 -14.5 -51t-14.5 -50l-5 -10t-6.5 -12t-8 -10t-10.5 -4q-11 1 -16.5 13t2.5 20q19 20 29.5 42.5t16.5 48.5l12 57q4 15 11 20t14.5 4t15.5 -7.5t13 -15.5z" />
    <glyph glyph-name="y" unicode="y" horiz-adv-x="319" 
d="M301 370q-7 -2 -10.5 -9t-6.5 -14l-6 -12t-3 -13q4 6 14 20.5t12 27.5zM155 -15q-10 -5 -17.5 -14t-15.5 -17q-9 -9 -17.5 -18t-16.5 -19q-17 -20 -32.5 -40t-29.5 -41q-14 -20 -24.5 -42t-18.5 -45q-3 -8 -6 -19.5t-3.5 -23t2.5 -22t12 -16.5q10 -7 21 -8t22 1.5t20.5 9
t17.5 14.5q17 17 25 39t15 44q7 25 15.5 56.5t15.5 62t11.5 56.5q3.68182 21.2727 3.68182 35.8512q0 3.23967 -0.181818 6.14876zM6 -353q-2.75278 0.917592 -3.29537 1.2037q-12.0726 4.51003 -22.2046 9.7963q-11.5 6 -16.5 22q-3.33333 10.6667 -3.33333 22.2222
q0 5.77778 0.833333 11.7778q2.5 18 7.5 33q11 37 31.5 70t43.5 63q11 14 23 28.5t24 28.5t24.5 28.5t28.5 25.5q14 11 17 27.5t6 33.5q2 18 7 38q3.57143 14.2857 3.57143 27.551q0 5.30612 -0.571429 10.449q-19 -24 -34.5 -49.5t-38.5 -46.5q-9 -8 -21 -14.5t-25 -7.5
q-14 -1 -25.5 7.5t-18.5 19.5q-6 10 -9 21.5t-4 23.5q-1 8 -1 16.375t1 17.125q2 17.5 4 33.5q5 32 13 64t18 63q4 12 7.5 25t14.5 21q8 5 20 4.5t18 -8.5q6 -10 1.5 -25t-6.5 -25q-4 -17 -7.5 -34t-7.5 -34q-6 -35 -15 -67.5t-9 -63.5q0 -4 0.5 -11t2.5 -13.5t6 -11
t10 -4.5q12 2 25 15.5t20 21.5q17 17 30 37l26 40q11 19 16 41.5t10 43.5q4 19 9.5 42.5t14.5 45.5t22.5 39.5t35.5 24.5q5 2 15.5 3.5t13.5 -6.5q4 -11 -1.5 -20.5t-10.5 -17.5q-13 -20 -25 -38t-19 -41q-7 -24 -11 -48.5t-9 -49.5l-9 -54q-2 -13 -4.5 -25.5t-1.5 -24.5
q10 7 18.5 15.5t17.5 16.5q11 11 22 21t22 21q11 10 21 20l21 21q3 2 8 4t4 -5q0 -5 -6.5 -11t-9.5 -9q-20 -20 -41.5 -39.5t-41.5 -39.5q-8 -8 -17.5 -15.5t-16.5 -17.5q-6 -8 -8 -18.5t-4 -20.5q-11 -57 -24.5 -114t-37.5 -109q-10 -21 -23 -44.5t-29.5 -42.5t-38 -31.5
t-48.5 -12.5z" />
    <glyph glyph-name="z" unicode="z" horiz-adv-x="321" 
d="M320 113q-20 -24 -42 -45q-6 -6 -13 -12t-4 -16q5 -15 9 -29.5t5 -30.5q0.310345 -6.2069 0.310345 -12.4084q0 -53.7467 -23.3103 -107.092q-26 -59.5 -67 -102.5q-20 -21 -43.5 -38t-52.5 -25q-14 -4 -29.5 -8t-31.5 -5q-4.57143 -0.285714 -9.10204 -0.285714
q-11.3265 0 -22.398 1.78571q-15.5 2.5 -28.5 11.5q-14 9 -17.5 20.5t-0.5 24.5t10 25.5t15 23.5q18 26 40.5 48t45.5 44q23 23 47.5 45.5t49.5 45.5q12 11 23.5 21.5t22.5 21.5q5 5 10.5 9.5t7.5 10.5q2 7 -3 15t-8 13q-12 23 -35.5 30q-6.09259 1.81481 -11.9499 1.81481
q-16.7353 0 -31.5501 -14.8148q-21 -22 -45 -39.5t-50 -32.5q-3 -2 -9.5 -5t-12.5 -4t-11.5 0.5t-6.5 8.5q-2 14 10.5 24.5t21.5 17.5q12 8 25 16.5t25 16.5q13 10 21.5 23t16.5 27q17 26 32.5 53.5t20.5 59.5q1.68421 9.68421 1.68421 19.1025q0 12.9501 -3.18421 25.3975
q-5.5 21.5 -26.5 35.5q-16.1905 9.52381 -35.5556 9.52381q-0.968254 0 -1.94444 -0.0238095q-20.5 -0.5 -37.5 -9.5q-9 -5 -17.5 -12t-14.5 -17q-7 -13 -6 -26.5t4 -26.5q2 -8 6.5 -24.5t6 -33t-2.5 -29t-20 -12.5q-14 1 -16 10.5t-2 20.5q0 16 -1 32t-1 32q0 26 12 48
t31 36t43.5 20q12.25 3 24.625 3t24.875 -3q29 -7 49 -26t26 -48q2.57143 -12 2.57143 -24.6429q0 -16.8571 -4.57143 -34.8571q-8 -31.5 -21 -56.5q-5 -10 -11 -18.5t-12 -16.5q-2 -3 -5.5 -6.5t1.5 -5.5q4 -2 9.5 -1t10.5 0q18 -3 34 -14q5 -3 8.5 -6.5l7.5 -7.5t7.5 -8.5
t8.5 -7.5q3 -2 11.5 5t17.5 16.5t17 19t10 12.5q14 16 24 34q2 3 4.5 9t6.5 8q5 2 8 -0.5t1 -6.5q-3 -7 -12.5 -21.5t-17.5 -24.5zM12 10q15 4 30 20t21 29h-2q-4 -3 -11.5 -7t-15.5 -10t-14.5 -14t-7.5 -18zM215 10q-11 -11 -22.5 -22t-23.5 -22q-23 -20 -44.5 -40.5
t-43.5 -42.5q-20 -20 -42 -40.5t-41 -43.5q-5 -6 -14 -17.5t-15.5 -24t-8.5 -24.5t6 -21t20 -12t24.5 -3t25.5 3t23 6q26 8 46.5 25.5t37.5 38.5q17 23 32.5 48t26.5 52q11 29 18.5 58.5t9.5 59.5q2 20 -4.5 23t-10.5 -1z" />
    <glyph glyph-name="nine" unicode="9" horiz-adv-x="382" 
d="M317 261q-6 -36 -19 -68q-12 -30 -29 -58t-39 -51q-21 -23 -47 -39t-55 -27q-36 -13 -72 -13t-73 6q-8 1 -14.5 2t-11.5 8q-3 4 -1 9t8 5q17 -1 33.5 -6.5t33.5 -6.5q6.5625 -0.5625 13.0723 -0.5625q28.209 0 55.4277 10.5625q33.5 13 59.5 36q23 22 42 50.5t31 57.5
q13 32 23 67t10 70q-22 -24 -44.5 -43.5t-54.5 -27.5q-18.5625 -5.0625 -37.125 -5.0625l-28.875 3.0625q-33 7 -58 33q-23 23 -33.5 54t-10.5 64t9.5 65.5t26.5 58.5q15 23 39 41t51 27q22.0909 7.36364 45.5207 7.36364q5.20661 0 10.4793 -0.363636q29 -2 55 -17
q36 -21 56.5 -60t29 -83.5q7.225 -37.825 7.225 -76.0113q0 -6.73875 -0.225 -13.4887q-1.5 -45 -10.5 -79zM173 562q-3.08571 0.228571 -6.09306 0.228571q-23.3069 0 -41.9069 -13.7286q-21 -15.5 -36.5 -38.5t-24.5 -50t-12 -48q-1.2 -9.2 -1.2 -19.12
q0 -14.88 2.7 -31.38q4.5 -27.5 17.5 -51t34 -37.5q16.3333 -10.8889 37.5062 -10.8889q6.04938 0 12.4938 0.888889q23 3 43.5 15t36 30t24.5 40t9 45q-1 7 -4.5 33.5t-14 56t-28.5 53.5t-48 26z" />
    <glyph glyph-name="eight" unicode="8" horiz-adv-x="457" 
d="M360 402q-5 -4 -14.5 -9t-19 -10.5t-17.5 -10.5t-11 -8q-1 -2 6.5 -10.5t17.5 -18.5l19.5 -19.5t11.5 -12.5q26 -35 37 -74q5.5 -19.5 5.5 -40.25t-5.5 -42.75q-10 -39 -38.5 -67.5t-63.5 -45.5q-32 -17 -73.5 -25.5q-26.1296 -5.35185 -51.4664 -5.35185
q-14.904 0 -29.5336 1.85185q-39.5 5 -73.5 25t-51 60q-9.18367 21.4286 -9.18367 43.4194q0 13.9275 3.68367 28.0806q9.5 36.5 32.5 64.5q26 33 61 54.5t71 41.5q10 5 19.5 10.5t20.5 10.5q3 2 1.5 5t-5 6t-7.5 6t-5 4q-17 14 -31.5 28.5t-25.5 34.5
q-16.3265 29.3878 -16.3265 60.7747q0 7.06206 0.826531 14.2253q4.5 39 35.5 68q14 13 30 22t33 15q4 1 15 5t23 6t22 2t13 -6q4 -9 -1 -12.5t-13.5 -5t-17.5 -1.5t-13 -1q-40 -10 -65 -39q-15 -18 -18 -36.5q-1 -6.16667 -1 -12.1667q0 -12 4 -23.3333q6 -17 19 -32.5
t30 -27.5q9 -7 18 -13.5t19 -12.5q5 -4 14 -11.5t16 -3.5q20 9 38 18.5t35 23.5q12 10 24.5 25t20 32.5t7.5 35.5t-12 33q-13 16 -30.5 21q-10.9375 3.125 -22.0703 3.125q-6.67969 0 -13.4297 -1.125q-18 -3 -35 -12t-29 -22q-19 -19 -27 -46q-3 -10 -8.5 -19.5t-18.5 -0.5
q-12 9 -11 22.5t8 27.5t17.5 26t18.5 18q23 17 55.5 26q20.8929 5.78571 40.3393 5.78571q10.8036 0 21.1607 -1.78571q27 -4 46 -23t23 -48q1 -8 -2 -22.5t-11 -31.5t-22 -35.5t-35 -33.5zM332 138q1.66667 10.6667 1.66667 20.9444q0 20.5556 -6.66667 39.5556
q-10 28.5 -24 57.5q-13 26 -34 47q-6 6 -12 11.5t-12 11.5q-5 5 -11.5 0.5t-11.5 -7.5q-25 -14 -51 -29t-49.5 -33t-41.5 -40.5t-27 -51.5q-4.90909 -15.2727 -4.90909 -29.9504q0 -12.2314 3.40909 -24.0496q7.5 -26 25.5 -46.5t43.5 -33t52.5 -12.5q6 0 29 5t50 18.5
t50.5 36.5t29.5 59z" />
    <glyph glyph-name="zero" unicode="0" horiz-adv-x="438" 
d="M5 323q7 45 26 88q16 38 38 70.5t54 57.5q15 11 33.5 21t38.5 16t40.5 6.5q1.36667 0.0333333 2.72222 0.0333333q18.9778 0 35.7778 -6.53333q17 -8 27 -19t19 -26q5 -8 12 -11t14 -8q17 -13 30 -34q24 -36 32.5 -79.5q6.02083 -30.8125 6.02083 -62.6285
q0 -13.1007 -1.02083 -26.3715q-3.5 -45.5 -16 -90t-30.5 -80.5t-45.5 -67.5t-62 -50.5t-74.5 -22.5q-5.95745 -0.521277 -11.9371 -0.521277q-34.1693 0 -69.0629 17.0213q-42 20 -65 56.5t-32.5 80q-8.59524 39.3571 -8.59524 79.9422q0 4.27211 0.0952381 8.55782
q1 45 7 83zM275 309q-3 -3 -13 -12t-23 -19.5t-27.5 -20t-27 -15t-21.5 -4t-10 14.5q-1 9 4.5 15.5t13.5 10.5t17 7.5t15 6.5q18 10 36.5 24t32.5 29q29 31 38.5 73q4.40244 19.4634 4.40244 38.7121q0 22.2879 -5.90244 44.2879q-5 17 -14.5 33t-27.5 23
q-16.5 5.5 -31.75 5.5t-29.25 -5.5q-28 -11 -49.5 -33.5t-37.5 -51t-25 -53.5q-16 -41 -27 -85.5t-11 -88.5q-0.333333 -13 -0.333333 -26.5q0 -27 1.33333 -56q2 -43.5 18 -80.5q8 -20 22.5 -34t32.5 -22t39 -9.5q3.70588 -0.264706 7.38062 -0.264706
q17.1488 0 33.6194 5.76471q41 14 70 47.5t49 69.5q46 86 55 183q0.666667 13.3333 0.666667 29.1111q0 7.88889 -0.166667 16.3889q-0.5 25.5 -5 49.5t-15.5 44.5t-30 30.5q1.19048 -11.6667 1.19048 -23.3333q0 -37.3333 -12.1905 -74.6667q-16 -49 -48 -86z" />
    <glyph glyph-name="one" unicode="1" horiz-adv-x="324" 
d="M96 77q9 11 13.5 26.5t9.5 28.5q10 32 18.5 63.5t18.5 63.5q20 69 37.5 134.5t33.5 133.5q-14 -13 -24.5 -28.5t-24.5 -29.5q-3 -3 -12 -11t-18.5 -14t-18.5 -8.5t-13 4.5q-3 6 2.5 12t14.5 12t18 11t13 8q16 12 29 26.5t24 31.5q9 13 18.5 30t27.5 19q5 0 12 -0.5
t6 -8.5q-2 -14 -3.5 -26.5t-3.5 -25.5q-8 -48 -16 -94t-21 -92q-26 -91 -58 -176q-8 -20 -17 -39t-19 -38q-2 -5 -8.5 -14.5t-2.5 -14.5q6 -7 17.5 -12.5t19.5 -10.5q20 -11 38 -12.5q3.6 -0.3 7.32 -0.3q14.88 0 31.68 4.8q5 2 13 1.5t7 -8.5q0 -8 -11 -14.5t-17 -8.5
q-11.8519 -4.74074 -22.8258 -4.74074q-7.54458 0 -14.6742 2.24074q-17.5 5.5 -35.5 14.5l-18 10l-18 10q-12 7 -16.5 5t-14.5 -10q-9 -8 -20.5 -15t-24.5 -10t-24.5 0t-20.5 15q-6 10 -6.5 21.5t6.5 20.5q10 12 23.5 15t26.5 2t23.5 -2t14.5 3zM71 34q11 12 5.5 15.5
t-18.5 5.5q-10 1 -19 -2.5t-13.5 -9.5t-2 -12t15.5 -9q18 0 32 12z" />
    <glyph glyph-name="two" unicode="2" horiz-adv-x="440" 
d="M392 513q9 -23 9 -47.5t-6 -48.5t-17 -46.5t-24 -41.5q-29 -41 -66 -71.5t-76 -59.5q-15 -12 -37.5 -27t-44.5 -31.5t-40 -33t-25 -31.5q9 -2 18 -0.5t19 0.5q17 -3 31 -11t26.5 -17t25.5 -18t28 -14q17 -5 38.5 -8.5q7.92105 -1.28947 15.2313 -1.28947
q12.5319 0 23.2687 3.78947q21.6667 8.66667 21.6667 29.3457q0 15.2099 -10.6667 27.6543q-5 5 -10 10.5t-3 13.5t8 13t14 5q11 -1 17.5 -9.5t9.5 -19.5t3.5 -23t-1.5 -19q-9 -36 -35.5 -45.5q-16.2419 -5.82258 -35.3012 -5.82258q-12.0375 0 -25.1988 2.32258
q-21 3 -40 11t-38 17q-35 17 -62.5 20.5q-3.77451 0.480392 -7.59612 0.480392q-24.0215 0 -49.9039 -18.9804q-7 -6 -15 -11.5t-18 -1.5q-8 3 -7.5 12t5 19.5t11 20t9.5 14.5q23 39 54.5 71t61.5 61q33 32 67 63t63 67q29 35 47 71q15.4286 30.8571 15.4286 69.0612
q0 6.36735 -0.428571 12.9388q-2 17 -6 34t-18 29t-33.5 16q-13 2.66667 -25.3333 2.66667q-6.16667 0 -12.1667 -0.666667q-38 -2 -75.5 -24t-58.5 -54q-11 -17 -18.5 -37.5t-7.5 -40.5q0 -14 5.5 -30t21.5 -19q14 -2 29 4t26 14q17 13 20.5 32t3.5 38q0 10 4.5 15t11 6
t12.5 -3.5t8 -13.5q1.28 -5.76 1.28 -11.6736q0 -12.5664 -5.78 -25.8264q-8.5 -19.5 -19.5 -33.5q-10 -12 -26 -22.5t-34 -16q-11.6471 -3.55882 -23.0848 -3.55882q-6.23875 0 -12.4152 1.05882q-17.5 3 -29.5 18t-14 34.5q-0.615385 6 -0.615385 12.0473
q0 13.6065 3.11538 27.4527q4.5 20 13.5 38.5t18 32.5q13 19 31.5 36.5t40 30t45.5 19.5q21 6.125 42 6.125l6 -0.125q1 0 18 -3t38.5 -12t43 -25.5t31.5 -43.5z" />
    <glyph glyph-name="three" unicode="3" horiz-adv-x="419" 
d="M363 486q-5 -23 -16.5 -45.5t-26.5 -39.5q-7 -7 -18 -15.5t-22 -16.5t-20 -15t-12 -11q6 -4 14 -3.5t16 -1.5q19 -3 35 -12q18 -9 32.5 -25t22.5 -34q14.087 -28.1739 14.087 -59.104q0 -8.59168 -1.08696 -17.396q-5 -40.5 -25 -74.5q-20 -33 -52 -58t-70.5 -39.5
t-79 -17q-6.98276 -0.431034 -13.8615 -0.431034q-33.0178 0 -63.6385 9.93103q-34 11 -52.5 37t-23.5 61q-0.8 7.2 -0.8 14.48q0 10.92 1.8 22.02q3 18.5 11.5 34t22 27t32.5 15.5q9.06667 2.13333 17.7067 2.13333q7.56 0 14.7933 -1.63333q15.5 -3.5 26.5 -17.5
q5 -7 7.5 -13.5t-1.5 -14.5q-2 -7 -9 -11t-13 3q-5 5 -4.5 12.5t-3.5 13.5q-5 7 -13.5 7.5t-15.5 -0.5q-17 -2 -29 -13.5t-18 -28.5q-6 -18 -6 -36.5t6 -35t18 -30.5t30 -22q19 -9 41 -10q4.4 -0.2 8.8 -0.2l35.2 3.2q22 4 43.5 12t39.5 17q32 16 53.5 51.5t26.5 75.5
q1.31579 10.5263 1.31579 20.741q0 28.6011 -10.3158 54.759q-14 35.5 -53 50.5q-17 7 -36.5 8q-3.25 0.166667 -6.45833 0.166667q-16.0417 0 -31.0417 -4.16667q-5 -2 -15 -5.5t-15 1.5q-8 9 1 15t15 8q36 14 68.5 34.5t52.5 55.5q7 14 12 30.5t6 33.5
q0.181818 3.09091 0.181818 6.14876q0 13.7603 -3.68182 26.8512q-4.5 16 -16.5 29q-15 17 -32.5 25t-37 8t-38.5 -6.5t-37 -17.5q-14 -9 -23.5 -23t-11.5 -31q-0.258065 -2.70968 -0.258065 -5.26119q0 -17.2227 11.7581 -27.2388q13.5 -11.5 30.5 -18.5q15 -6 14 -20.5
t-18 -19.5q-15 -5 -29 6.5t-22 23.5q-13.7931 22.069 -13.7931 43.6623q0 9.717 2.7931 19.3377q9 31 35 55q33 33 75 47q27.3488 9.11628 52.7896 9.11628q13.629 0 26.7104 -2.61628q37.5 -7.5 62.5 -39q23.1481 -29.1667 23.1481 -81.9102q0 -4.21948 -0.148148 -8.58985
z" />
    <glyph glyph-name="four" unicode="4" horiz-adv-x="384" 
d="M276 8q-2 -8 -11 -6.5t-11 8.5q-7 22 -10 44t-4 45q-0.2 4.2 -0.2 8.38q0 16.72 3.2 33.12q4 20.5 7 41.5q1 6 -21 11t-49.5 8t-52.5 3t-29 -5q-13 -14 -28 -30t-35 -19q-17 -2 -26 11t-10 27q-2 17 10.5 26.5t27.5 11.5q8 2 18 1.5t17 4.5q6 4 9.5 13.5t6.5 16.5
q15 37 31.5 75t29.5 76.5t20.5 77q5.35714 27.5 5.35714 55.2551q0 11.102 -0.857143 22.2449q0 8 -1.5 18.5t1.5 17.5q3 8 10.5 5t9.5 -10q2 -13 3 -25.5t2 -26.5q0.25 -9.5 0.25 -19.1562q0 -28.9688 -2.25 -59.3438q-3 -40.5 -10.5 -79.5t-20 -75t-30.5 -64q-2 -2 -5 -6
t-5 -8t-2 -7t6 -4q32 -5 60.5 -8t56.5 -10q4 -1 7.5 15t6.5 37t5.5 40t2.5 23q2 11 7 24t19 15q11 1 19 -4.5t13 -14.5q3 -5 2 -13t-3 -16t-5 -16t-4 -13q-3 -11 -6.5 -25t-6.5 -26.5t-4.5 -21.5t0.5 -10q5 -2 16 2t16 6q8 3 12.5 -5t-3.5 -13q-11 -6 -23 -6q-5 0 -14 0.5
t-11 -6.5q-17 -54 -21 -93.5q-1.33333 -13.1667 -1.33333 -26.1667q0 -26 5.33333 -51.3333zM38 176q8 4 12.5 13t9.5 16q3 3 -3.5 4.5t-14.5 0.5t-15.5 -5.5t-6.5 -12.5q-1 -8 5 -14t13 -2z" />
    <glyph glyph-name="five" unicode="5" horiz-adv-x="468" 
d="M343 594q10 1 19.5 2t18.5 4q8 2 19 8.5t19 2.5q10 -5 8.5 -12.5t-7.5 -15.5t-14.5 -14.5t-12.5 -7.5q-10.9091 -3.27273 -21.9669 -3.27273q-9.21488 0 -18.5331 2.27273q-20.5 5 -39.5 10q-5 1 -25.5 6t-43 10t-41 7t-20.5 -2q-8 -15 -10.5 -33t-4.5 -36.5t-5.5 -36.5
t-11.5 -33q21 8 40 15t37.5 11q14.8 3.2 29.6 3.2l7.4 -0.2q18.5 -1 39.5 -8q20 -7 33.5 -20t22.5 -29.5t13.5 -35.5t7.5 -38q2.57143 -19.2857 2.57143 -38.3878q0 -25.4694 -4.57143 -50.6122q-8 -44 -24 -86q-14 -36 -36.5 -71t-52.5 -60t-66.5 -36
q-18.25 -5.5 -37.875 -5.5t-40.625 5.5q-39 11 -68 37.5t-46 64.5q-9.09091 20 -9.09091 45.3719q0 2.53719 0.0909091 5.1281q1 28.5 11 56t26 50t35.5 31q9.20833 4.01389 18.7512 4.01389q10.6655 0 21.7488 -5.01389q21 -9.5 40 -44.5q7 -14 8.5 -34q0.3 -4 0.3 -7.94
q0 -15.76 -4.8 -30.56q-6 -18.5 -19 -32t-34 -14.5q-7 -1 -13 1t-7 10q-1 7 2 12.5t10 7.5q18 2 27.5 18.5t11.5 33.5v17t-2.5 19t-7 15.5t-13.5 7.5q-3.53846 0.307692 -6.91124 0.307692q-18.5503 0 -32.0888 -9.30769q-16 -11 -26 -29.5t-14.5 -42t-4.5 -45.5t4.5 -40
t11.5 -26q12 -13 26.5 -25.5t31.5 -21.5t35.5 -13.5q12.8077 -3.11538 25.3757 -3.11538q5.5858 0 11.1243 0.615385q17 2 31.5 10.5t26.5 21.5t22 28t17 29q14 29 28 75.5t20.5 95.5q4.225 31.85 4.225 62.01q0 16.24 -1.225 31.99q-3.5 45 -24.5 71q-10 13 -27 16
q-8.5 1.5 -17.25 1.5t-17.75 -1.5q-18 -3 -35.5 -10t-28.5 -14q-8 -5 -16.5 -11t-15.5 -13q-5 -5 -11 -9t-11 4t-0.5 16.5t6.5 16.5q7 28 11.5 48.5t6.5 36t3.5 27t2.5 22.5q0 2 1.5 6t1.5 8t-1.5 6.5t-6.5 1.5q-9 -2 -21.5 -2.5t-20.5 -7.5q-2 -2 -3.5 -5.5t-3.5 -7
t-4.5 -5.5t-5.5 0q-8 5 -8.5 11.5t4.5 14.5q5 10 14.5 14.5t21 6t23 1.5h20.5q7 -1 29.5 -4.5t50.5 -8t56.5 -7.5t48.5 -3z" />
    <glyph glyph-name="six" unicode="6" horiz-adv-x="419" 
d="M47 62q-27 34 -37.5 77t-10.5 85q0 90 35.5 173.5t106.5 140.5q34 27 72.5 45t83.5 22q4 0 16 1t24.5 0.5t22.5 -3.5t11 -9q1 -11 -7.5 -12t-14.5 0q-13 2 -25.5 2.5t-25.5 -1.5q-44 -6 -78.5 -28t-61 -54t-45.5 -70.5t-31 -76.5q-10 -33 -15.5 -77.5
q-3.36111 -27.1944 -3.36111 -54.5756q0 -17.4244 1.36111 -34.9244q3.5 -45 17.5 -84t43 -59q18 -13 37 -16.5q9.5 -1.75 18.875 -1.75t18.625 1.75q18.5 3.5 35.5 14t31 25.5q28 30 40 69q8.47059 27.5294 8.47059 56.0554q0 11.8858 -1.47059 23.9446q-3 17 -8.5 35.5
t-15 35t-23 29t-31.5 17.5q-10.5882 2.94118 -20.4844 2.94118q-6.92734 0 -13.5156 -1.44118q-16 -3.5 -29.5 -12.5t-25 -22t-18.5 -28q-11 -20 -11 -37.5t-5 -37.5q-2 -7 -6 -12.5t-11 -4.5q-10 2 -13.5 11t-5.5 17q-1.05882 6.35294 -1.05882 12.8927
q0 11.9896 3.55882 24.6073q5.5 19.5 15.5 37.5t24 33.5t29 24.5q32 20 71 22q3.25 0.166667 6.45833 0.166667q35.2917 0 65.5417 -20.1667q32 -22 47 -59t15 -74q0 -27 -6.5 -55.5t-19 -54t-31.5 -46t-43 -32.5q-25 -14 -53.5 -17q-9.5 -1 -18.8889 -1
q-18.7778 0 -37.1111 4q-27.5 6 -52.5 19.5t-43 34.5z" />
    <glyph glyph-name="seven" unicode="7" horiz-adv-x="377" 
d="M391 552q4 6 4 18.5t-11 14.5t-23 -7t-20 -16q-3 -3 -10 -9t-5 -11t11.5 -6t20.5 0.5t20.5 6t12.5 9.5zM148 140q-5 -21 -8.5 -43t-6.5 -44q-1 -4 -3 -14.5t-6 -20.5t-10 -14t-15 5q-6 6 -5.5 17t0.5 19q0 39 5 74.5t10 70.5q6 45 20 90.5t32 87.5q2 5 10 20t18 34
t21.5 40t21.5 38t17 28.5q6.31521 10.375 7.74692 10.576q-9.86717 2.96828 -19.2469 6.42397q-9.5 3.5 -19.5 6.5q-11 4 -33 10.5t-45.5 12.5t-44.5 9t-30 -1q-13 -5 -18.5 -11t-7 -12t1 -12t6.5 -12q5 -7 2.5 -13.5t-8.5 -10.5t-13.5 -3.5t-11.5 7.5q-11 15 -16 35
q-1.5625 6.25 -1.5625 12.207q0 13.1055 7.5625 24.793q15 22 37.5 24.5q7.5 0.833333 15.0556 0.833333q15.1111 0 30.4444 -3.33333q27 -5 55 -13t55 -16q4 -2 16 -6.5t25.5 -9.5t25.5 -8t16 -1q6 3 12 7.5t11 8.5q9 6 21 13t25 12.5t25.5 6.5t23.5 -5q10 -6 13.5 -16.5
t2 -21.5t-7.5 -21t-15 -15q-10 -6 -21 -8t-22 -1q-4 0 -10.5 2t-13 3.5t-12.5 1.5t-10 -3q-7 -6 -15.5 -18.5t-17 -27.5t-15.5 -29l-11 -22q-35 -71 -58.5 -141t-38.5 -142z" />
    <glyph glyph-name="agrave" unicode="&#xe0;" horiz-adv-x="343" 
d="M121 483q-3 10 2.5 18.5t14.5 13t18.5 3.5t15.5 -10q11 -24 24 -44t23 -45q2 -18 -7.5 -22t-21.5 10q-7 9 -17 17.5t-19.5 17.5t-18.5 19t-14 22zM12 154q5 14 9 28.5t11 28.5q13 29 29.5 53.5t40.5 45.5q21 19 46.5 32q23.6786 12.0714 50.375 12.0714
q2.05357 0 4.125 -0.0714286q12 -1 26 -6q6 -3 9.5 -4.5t9.5 3.5q6 4 12.5 9.5t13.5 10t14 6t15 -1.5q10 -4 6.5 -16.5t-12.5 -27.5t-19 -28.5t-13 -17.5q-16 -28 -21.5 -60.5t-11.5 -62.5q-6 -32 -8.5 -65q-0.431034 -5.68966 -0.431034 -11.3199
q0 -27.025 9.93103 -52.6801q5 -12 13.5 -20.5t22.5 -4.5q14 5 24 14t17 20q10 16 18 32t14 33q3 9 6 21.5t6.5 23.5t7.5 19t8 8q3 0 2 -6.5t-3.5 -15t-6 -17.5t-5.5 -15q-4 -12 -8 -25t-10 -25t-12.5 -24t-14.5 -23t-18 -19.5t-24 -12.5q-8 -3 -20.5 -1t-20.5 5
q-11 5 -18.5 13.5t-13.5 18.5q-12 21 -15 44q-2 14 0 28t-3 27q-14 -16 -22.5 -37.5t-20.5 -39.5q-10 -15 -24.5 -30t-32.5 -18q-6.4 -1.2 -12.96 -1.2q-9.84 0 -20.04 2.7q-17 4.5 -27 18.5q-5 7 -7 15l-4 16q-5.52381 30.9333 -5.52381 53.1995q0 22.0862 9.52381 47.8005
zM62 19q6 -8 18 -3t20 10q20 14 31.5 38.5t22.5 46.5q7 12 12.5 24.5t9.5 26.5q4 12 10 23.5t9 23.5q7 26 13 53t19 51q2 4 5 9t3 9q-1 5 -6.5 6t-8.5 2q-10 2 -20.5 -0.5t-19.5 -6.5q-11 -5 -18.5 -12.5l-15.5 -15.5q-10 -11 -18.5 -21t-16.5 -22q-6 -11 -13 -22t-13 -22
q-6 -12 -9.5 -24.5t-8.5 -25.5q-20 -55 -23.5 -89q-0.480392 -4.66667 -0.480392 -9.16378q0 -28.2676 18.9804 -49.8362zM292 338q3 5 6.5 10.5t2.5 12.5q-11 -6 -16 -18q-2 -5 -4.5 -12.5t-0.5 -12.5q2 2 6 8.5t6 11.5z" />
    <glyph glyph-name="adieresis" unicode="&#xe4;" horiz-adv-x="343" 
d="M151 466q10 -12 7.5 -24t-11 -19t-20.5 -7t-21 12q-8 11 -5 21.5t11 16.5t19 6.5t20 -6.5zM263 463q8 -9 7.5 -20.5t-7 -19.5t-16.5 -10.5t-22 5.5q-12 9 -12 20.5t7 20.5t19 11.5t24 -7.5zM12 154q5 14 9 28.5t11 28.5q13 29 29.5 53.5t40.5 45.5q21 19 46.5 32
q23.6786 12.0714 50.375 12.0714q2.05357 0 4.125 -0.0714286q12 -1 26 -6q6 -3 9.5 -4.5t9.5 3.5q6 4 12.5 9.5t13.5 10t14 6t15 -1.5q10 -4 6.5 -16.5t-12.5 -27.5t-19 -28.5t-13 -17.5q-16 -28 -21.5 -60.5t-11.5 -62.5q-6 -32 -8.5 -65
q-0.431034 -5.68966 -0.431034 -11.3199q0 -27.025 9.93103 -52.6801q5 -12 13.5 -20.5t22.5 -4.5q14 5 24 14t17 20q10 16 18 32t14 33q3 9 6 21.5t6.5 23.5t7.5 19t8 8q3 0 2 -6.5t-3.5 -15t-6 -17.5t-5.5 -15q-4 -12 -8 -25t-10 -25t-12.5 -24t-14.5 -23t-18 -19.5
t-24 -12.5q-8 -3 -20.5 -1t-20.5 5q-11 5 -18.5 13.5t-13.5 18.5q-12 21 -15 44q-2 14 0 28t-3 27q-14 -16 -22.5 -37.5t-20.5 -39.5q-10 -15 -24.5 -30t-32.5 -18q-6.4 -1.2 -12.96 -1.2q-9.84 0 -20.04 2.7q-17 4.5 -27 18.5q-5 7 -7 15l-4 16
q-5.52381 30.9333 -5.52381 53.1995q0 22.0862 9.52381 47.8005zM62 19q6 -8 18 -3t20 10q20 14 31.5 38.5t22.5 46.5q7 12 12.5 24.5t9.5 26.5q4 12 10 23.5t9 23.5q7 26 13 53t19 51q2 4 5 9t3 9q-1 5 -6.5 6t-8.5 2q-10 2 -20.5 -0.5t-19.5 -6.5q-11 -5 -18.5 -12.5
l-15.5 -15.5q-10 -11 -18.5 -21t-16.5 -22q-6 -11 -13 -22t-13 -22q-6 -12 -9.5 -24.5t-8.5 -25.5q-20 -55 -23.5 -89q-0.480392 -4.66667 -0.480392 -9.16378q0 -28.2676 18.9804 -49.8362zM292 338q3 5 6.5 10.5t2.5 12.5q-11 -6 -16 -18q-2 -5 -4.5 -12.5t-0.5 -12.5
q2 2 6 8.5t6 11.5z" />
    <glyph glyph-name="aacute" unicode="&#xe1;" horiz-adv-x="343" 
d="M253 483q-5 -12 -14 -22t-18.5 -19t-19.5 -17.5t-17 -17.5q-12 -14 -21.5 -10t-7.5 22q10 25 23 45t24 44q6 9 15.5 10t18.5 -3.5t14.5 -13t2.5 -18.5zM12 154q5 14 9 28.5t11 28.5q13 29 29.5 53.5t40.5 45.5q21 19 46.5 32q23.6786 12.0714 50.375 12.0714
q2.05357 0 4.125 -0.0714286q12 -1 26 -6q6 -3 9.5 -4.5t9.5 3.5q6 4 12.5 9.5t13.5 10t14 6t15 -1.5q10 -4 6.5 -16.5t-12.5 -27.5t-19 -28.5t-13 -17.5q-16 -28 -21.5 -60.5t-11.5 -62.5q-6 -32 -8.5 -65q-0.431034 -5.68966 -0.431034 -11.3199
q0 -27.025 9.93103 -52.6801q5 -12 13.5 -20.5t22.5 -4.5q14 5 24 14t17 20q10 16 18 32t14 33q3 9 6 21.5t6.5 23.5t7.5 19t8 8q3 0 2 -6.5t-3.5 -15t-6 -17.5t-5.5 -15q-4 -12 -8 -25t-10 -25t-12.5 -24t-14.5 -23t-18 -19.5t-24 -12.5q-8 -3 -20.5 -1t-20.5 5
q-11 5 -18.5 13.5t-13.5 18.5q-12 21 -15 44q-2 14 0 28t-3 27q-14 -16 -22.5 -37.5t-20.5 -39.5q-10 -15 -24.5 -30t-32.5 -18q-6.4 -1.2 -12.96 -1.2q-9.84 0 -20.04 2.7q-17 4.5 -27 18.5q-5 7 -7 15l-4 16q-5.52381 30.9333 -5.52381 53.1995q0 22.0862 9.52381 47.8005
zM62 19q6 -8 18 -3t20 10q20 14 31.5 38.5t22.5 46.5q7 12 12.5 24.5t9.5 26.5q4 12 10 23.5t9 23.5q7 26 13 53t19 51q2 4 5 9t3 9q-1 5 -6.5 6t-8.5 2q-10 2 -20.5 -0.5t-19.5 -6.5q-11 -5 -18.5 -12.5l-15.5 -15.5q-10 -11 -18.5 -21t-16.5 -22q-6 -11 -13 -22t-13 -22
q-6 -12 -9.5 -24.5t-8.5 -25.5q-20 -55 -23.5 -89q-0.480392 -4.66667 -0.480392 -9.16378q0 -28.2676 18.9804 -49.8362zM292 338q3 5 6.5 10.5t2.5 12.5q-11 -6 -16 -18q-2 -5 -4.5 -12.5t-0.5 -12.5q2 2 6 8.5t6 11.5z" />
    <glyph glyph-name="acircumflex" unicode="&#xe2;" horiz-adv-x="343" 
d="M144 422q-11 -7 -15.5 -2t6.5 13q7 6 16 14t31 28q15 13 22.5 11.5t13.5 -10.5t13 -20.5t22 -17.5q10 -8 7.5 -12.5t-13.5 -2.5q-10 4 -19.5 10.5t-26.5 19.5q-14 -10 -23 -15t-15.5 -8t-10.5 -4t-8 -4zM12 154q5 14 9 28.5t11 28.5q13 29 29.5 53.5t40.5 45.5
q21 19 46.5 32q23.6786 12.0714 50.375 12.0714q2.05357 0 4.125 -0.0714286q12 -1 26 -6q6 -3 9.5 -4.5t9.5 3.5q6 4 12.5 9.5t13.5 10t14 6t15 -1.5q10 -4 6.5 -16.5t-12.5 -27.5t-19 -28.5t-13 -17.5q-16 -28 -21.5 -60.5t-11.5 -62.5q-6 -32 -8.5 -65
q-0.431034 -5.68966 -0.431034 -11.3199q0 -27.025 9.93103 -52.6801q5 -12 13.5 -20.5t22.5 -4.5q14 5 24 14t17 20q10 16 18 32t14 33q3 9 6 21.5t6.5 23.5t7.5 19t8 8q3 0 2 -6.5t-3.5 -15t-6 -17.5t-5.5 -15q-4 -12 -8 -25t-10 -25t-12.5 -24t-14.5 -23t-18 -19.5
t-24 -12.5q-8 -3 -20.5 -1t-20.5 5q-11 5 -18.5 13.5t-13.5 18.5q-12 21 -15 44q-2 14 0 28t-3 27q-14 -16 -22.5 -37.5t-20.5 -39.5q-10 -15 -24.5 -30t-32.5 -18q-6.4 -1.2 -12.96 -1.2q-9.84 0 -20.04 2.7q-17 4.5 -27 18.5q-5 7 -7 15l-4 16
q-5.52381 30.9333 -5.52381 53.1995q0 22.0862 9.52381 47.8005zM62 19q6 -8 18 -3t20 10q20 14 31.5 38.5t22.5 46.5q7 12 12.5 24.5t9.5 26.5q4 12 10 23.5t9 23.5q7 26 13 53t19 51q2 4 5 9t3 9q-1 5 -6.5 6t-8.5 2q-10 2 -20.5 -0.5t-19.5 -6.5q-11 -5 -18.5 -12.5
l-15.5 -15.5q-10 -11 -18.5 -21t-16.5 -22q-6 -11 -13 -22t-13 -22q-6 -12 -9.5 -24.5t-8.5 -25.5q-20 -55 -23.5 -89q-0.480392 -4.66667 -0.480392 -9.16378q0 -28.2676 18.9804 -49.8362zM292 338q3 5 6.5 10.5t2.5 12.5q-11 -6 -16 -18q-2 -5 -4.5 -12.5t-0.5 -12.5
q2 2 6 8.5t6 11.5z" />
    <glyph glyph-name="atilde" unicode="&#xe3;" horiz-adv-x="343" 
d="M100 438q-8 0 -6 9.5t9.5 22t18.5 23t22 11.5q17 1 29 -8t23 -19t23.5 -16.5t29.5 0.5q10 8 16 16.5t19 12.5q6 -2 7 -12t-4 -22t-17 -22t-32 -11q-14 -1 -26.5 6.5t-24.5 17t-23 17t-20 6.5q-14 -2 -23.5 -13t-20.5 -19zM12 154q5 14 9 28.5t11 28.5q13 29 29.5 53.5
t40.5 45.5q21 19 46.5 32q23.6786 12.0714 50.375 12.0714q2.05357 0 4.125 -0.0714286q12 -1 26 -6q6 -3 9.5 -4.5t9.5 3.5q6 4 12.5 9.5t13.5 10t14 6t15 -1.5q10 -4 6.5 -16.5t-12.5 -27.5t-19 -28.5t-13 -17.5q-16 -28 -21.5 -60.5t-11.5 -62.5q-6 -32 -8.5 -65
q-0.431034 -5.68966 -0.431034 -11.3199q0 -27.025 9.93103 -52.6801q5 -12 13.5 -20.5t22.5 -4.5q14 5 24 14t17 20q10 16 18 32t14 33q3 9 6 21.5t6.5 23.5t7.5 19t8 8q3 0 2 -6.5t-3.5 -15t-6 -17.5t-5.5 -15q-4 -12 -8 -25t-10 -25t-12.5 -24t-14.5 -23t-18 -19.5
t-24 -12.5q-8 -3 -20.5 -1t-20.5 5q-11 5 -18.5 13.5t-13.5 18.5q-12 21 -15 44q-2 14 0 28t-3 27q-14 -16 -22.5 -37.5t-20.5 -39.5q-10 -15 -24.5 -30t-32.5 -18q-6.4 -1.2 -12.96 -1.2q-9.84 0 -20.04 2.7q-17 4.5 -27 18.5q-5 7 -7 15l-4 16
q-5.52381 30.9333 -5.52381 53.1995q0 22.0862 9.52381 47.8005zM62 19q6 -8 18 -3t20 10q20 14 31.5 38.5t22.5 46.5q7 12 12.5 24.5t9.5 26.5q4 12 10 23.5t9 23.5q7 26 13 53t19 51q2 4 5 9t3 9q-1 5 -6.5 6t-8.5 2q-10 2 -20.5 -0.5t-19.5 -6.5q-11 -5 -18.5 -12.5
l-15.5 -15.5q-10 -11 -18.5 -21t-16.5 -22q-6 -11 -13 -22t-13 -22q-6 -12 -9.5 -24.5t-8.5 -25.5q-20 -55 -23.5 -89q-0.480392 -4.66667 -0.480392 -9.16378q0 -28.2676 18.9804 -49.8362zM292 338q3 5 6.5 10.5t2.5 12.5q-11 -6 -16 -18q-2 -5 -4.5 -12.5t-0.5 -12.5
q2 2 6 8.5t6 11.5z" />
    <glyph glyph-name="aring" unicode="&#xe5;" horiz-adv-x="342" 
d="M174 552q35 -1 51 -20.5q17.08 -20.8163 17.08 -45.5712q0 -20.3688 -10.58 -36.9288q-10.35 -16.2 -27.585 -16.2q-1.915 0 -3.915 0.2q-30 2 -50.5 18.5t-26.5 37q-2.05714 7.02857 -2.05714 13.822q0 13.0208 7.55714 25.178q11.5 18.5 45.5 24.5zM204 459
q6 1 10.5 10.5t3.5 20.5t-9.5 21.5t-29.5 15.5q-23 -4 -29.5 -17t-0.5 -26t21 -21.5q9.44444 -5.35185 20.4746 -5.35185q6.48834 0 13.5254 1.85185zM12 154q5 14 9 28.5t11 28.5q13 29 29.5 53.5t40.5 45.5q21 19 46.5 32q23.6786 12.0714 50.375 12.0714
q2.05357 0 4.125 -0.0714286q12 -1 26 -6q6 -3 9.5 -4.5t9.5 3.5q6 4 12.5 9.5t13.5 10t14 6t15 -1.5q10 -4 6.5 -16.5t-12.5 -27.5t-19 -28.5t-13 -17.5q-16 -28 -21.5 -60.5t-11.5 -62.5q-6 -32 -8.5 -65q-0.431034 -5.68966 -0.431034 -11.3199
q0 -27.025 9.93103 -52.6801q5 -12 13.5 -20.5t22.5 -4.5q14 5 24 14t17 20q10 16 18 32t14 33q3 9 6 21.5t6.5 23.5t7.5 19t8 8q3 0 2 -6.5t-3.5 -15t-6 -17.5t-5.5 -15q-4 -12 -8 -25t-10 -25t-12.5 -24t-14.5 -23t-18 -19.5t-24 -12.5q-8 -3 -20.5 -1t-20.5 5
q-11 5 -18.5 13.5t-13.5 18.5q-12 21 -15 44q-2 14 0 28t-3 27q-14 -16 -22.5 -37.5t-20.5 -39.5q-10 -15 -24.5 -30t-32.5 -18q-6.4 -1.2 -12.96 -1.2q-9.84 0 -20.04 2.7q-17 4.5 -27 18.5q-5 7 -7 15l-4 16q-5.52381 30.9333 -5.52381 53.1995q0 22.0862 9.52381 47.8005
zM62 19q6 -8 18 -3t20 10q20 14 31.5 38.5t22.5 46.5q7 12 12.5 24.5t9.5 26.5q4 12 10 23.5t9 23.5q7 26 13 53t19 51q2 4 5 9t3 9q-1 5 -6.5 6t-8.5 2q-10 2 -20.5 -0.5t-19.5 -6.5q-11 -5 -18.5 -12.5l-15.5 -15.5q-10 -11 -18.5 -21t-16.5 -22q-6 -11 -13 -22t-13 -22
q-6 -12 -9.5 -24.5t-8.5 -25.5q-20 -55 -23.5 -89q-0.480392 -4.66667 -0.480392 -9.16378q0 -28.2676 18.9804 -49.8362zM292 338q3 5 6.5 10.5t2.5 12.5q-11 -6 -16 -18q-2 -5 -4.5 -12.5t-0.5 -12.5q2 2 6 8.5t6 11.5z" />
    <glyph glyph-name="ccedilla" unicode="&#xe7;" horiz-adv-x="251" 
d="M71 66q2 -12 6.5 -23.5t15.5 -19.5t24 -8t25.5 4.5t23.5 12t20 15.5q23 18 40 42.5t28 50.5q2 6 5 14t6 15t6.5 11.5t6.5 2.5q4 -3 3 -10t-4 -15t-7 -16.5t-7 -14.5q-13 -27 -30.5 -53.5t-43.5 -43.5q-17 -11 -35 -19t-37 -10l-7 -15q5 1 10 1.5t7 -4.5q7 -16 4 -29.5
t-10.5 -22t-17 -11t-13.5 3.5q-2 3 -5 6.5t-4 6.5t0 4t6 0q7 -2 16 0.5t14.5 7.5t6.5 12.5t-7 14.5q-2 2 -5 1t-6 -3t-6 -3.5t-6 -1.5q-8 4 -6 8q6 13 10.5 17t7.5 7q-8 0 -15 1t-15 4q-29 9 -45 31.5t-22 50q-4.8 22 -4.8 45.6q0 5.9 0.3 11.9q1.5 30 7.5 54q5 27 16 52
t25 48q15 23 34 44.5t43 33.5q22 11 48 14q4.58824 0.529412 9.08304 0.529412q20.9758 0 39.917 -11.5294q19 -11 24 -34q2 -6 1.5 -12.5t-1.5 -13.5q-2 -10 -4 -18t-11 -5q-6 2 -5 8.5t3 13.5t3 13.5t-1 14.5q-2 10 -8.5 20t-18.5 12q-11 2 -22 -2.5t-21 -12t-18 -17
t-13 -18.5q-16 -23 -28.5 -48.5t-23.5 -51.5q-5 -13 -9 -25.5t-6 -26.5q-2 -6 -2.5 -12t-1.5 -12q0 -12 -0.5 -20t0 -16.5t2 -20t5.5 -30.5z" />
    <glyph glyph-name="egrave" unicode="&#xe8;" horiz-adv-x="234" 
d="M90 160q13 -4 27 5.5t22 17.5q22 21 36 48q7 14 12.5 30q4.03333 11.7333 4.03333 22.9289q0 4.07111 -0.533333 8.07111q-2 11 -6.5 23.5t-16.5 14.5q-13 2 -26.5 -6.5t-21.5 -16.5q-23 -23 -35 -53.5q-11.7926 -29.9728 -22.6194 -59.4626
q0.236326 -0.505087 0.619393 -2.03735q1 -4 4 -10.5t8.5 -13t14.5 -8.5zM243 153q2 8 4.5 14t7.5 11q6 7 7.5 0.5t-0.5 -10.5q-13 -32 -25.5 -59.5t-33.5 -53.5q-13 -17 -31.5 -30.5t-39.5 -20q-16.0588 -4.97059 -32.7024 -4.97059q-5.12111 0 -10.2976 0.470588
q-22 2 -41 16q-23 16 -34.5 41t-12.5 52q-0.533333 8 -0.533333 16.1778q0 22.4889 4.03333 46.3222q5.5 32.5 16.5 59.5q5 14 11.5 27t14.5 24q20 26 40.5 45.5t51.5 19.5q2.14286 0.142857 4.30612 0.142857q12.9796 0 26.6939 -5.14286q13 -6 20 -17.5t9.5 -25.5
t0.5 -28.5t-8 -27.5q-8 -17 -18 -34.5t-23 -30.5q-12 -13 -24.5 -22.5q-10.3261 -7.84783 -25.0879 -7.84783q-3.10775 0 -6.4121 0.347826q-17 2 -29 12q-3 1 -5 3q-4 2 -4 1q-1 -6 -2 -12.5t-2 -13.5q-2.53333 -25.3333 -2.53333 -42.0978q0 -18.1689 6.53333 -35.9022
q3 -7 7.5 -16t10.5 -17t14 -13t17 -3q14 1 32.5 10t37.5 27t36.5 44t30.5 61zM74 483q-3 10 2.5 18.5t14.5 13t18.5 3.5t15.5 -10q11 -24 24 -44t23 -45q2 -18 -7.5 -22t-21.5 10q-7 9 -17 17.5t-19.5 17.5t-18.5 19t-14 22z" />
    <glyph glyph-name="eacute" unicode="&#xe9;" horiz-adv-x="234" 
d="M90 160q13 -4 27 5.5t22 17.5q22 21 36 48q7 14 12.5 30q4.03333 11.7333 4.03333 22.9289q0 4.07111 -0.533333 8.07111q-2 11 -6.5 23.5t-16.5 14.5q-13 2 -26.5 -6.5t-21.5 -16.5q-23 -23 -35 -53.5q-11.7926 -29.9728 -22.6194 -59.4626
q0.236326 -0.505087 0.619393 -2.03735q1 -4 4 -10.5t8.5 -13t14.5 -8.5zM243 153q2 8 4.5 14t7.5 11q6 7 7.5 0.5t-0.5 -10.5q-13 -32 -25.5 -59.5t-33.5 -53.5q-13 -17 -31.5 -30.5t-39.5 -20q-16.0588 -4.97059 -32.7024 -4.97059q-5.12111 0 -10.2976 0.470588
q-22 2 -41 16q-23 16 -34.5 41t-12.5 52q-0.533333 8 -0.533333 16.1778q0 22.4889 4.03333 46.3222q5.5 32.5 16.5 59.5q5 14 11.5 27t14.5 24q20 26 40.5 45.5t51.5 19.5q2.14286 0.142857 4.30612 0.142857q12.9796 0 26.6939 -5.14286q13 -6 20 -17.5t9.5 -25.5
t0.5 -28.5t-8 -27.5q-8 -17 -18 -34.5t-23 -30.5q-12 -13 -24.5 -22.5q-10.3261 -7.84783 -25.0879 -7.84783q-3.10775 0 -6.4121 0.347826q-17 2 -29 12q-3 1 -5 3q-4 2 -4 1q-1 -6 -2 -12.5t-2 -13.5q-2.53333 -25.3333 -2.53333 -42.0978q0 -18.1689 6.53333 -35.9022
q3 -7 7.5 -16t10.5 -17t14 -13t17 -3q14 1 32.5 10t37.5 27t36.5 44t30.5 61zM215 483q-5 -12 -14 -22t-18.5 -19t-19.5 -17.5t-17 -17.5q-12 -14 -21.5 -10t-7.5 22q10 25 23 45t24 44q6 9 15.5 10t18.5 -3.5t14.5 -13t2.5 -18.5z" />
    <glyph glyph-name="ecircumflex" unicode="&#xea;" horiz-adv-x="234" 
d="M90 160q13 -4 27 5.5t22 17.5q22 21 36 48q7 14 12.5 30q4.03333 11.7333 4.03333 22.9289q0 4.07111 -0.533333 8.07111q-2 11 -6.5 23.5t-16.5 14.5q-13 2 -26.5 -6.5t-21.5 -16.5q-23 -23 -35 -53.5q-11.7926 -29.9728 -22.6194 -59.4626
q0.236326 -0.505087 0.619393 -2.03735q1 -4 4 -10.5t8.5 -13t14.5 -8.5zM243 153q2 8 4.5 14t7.5 11q6 7 7.5 0.5t-0.5 -10.5q-13 -32 -25.5 -59.5t-33.5 -53.5q-13 -17 -31.5 -30.5t-39.5 -20q-16.0588 -4.97059 -32.7024 -4.97059q-5.12111 0 -10.2976 0.470588
q-22 2 -41 16q-23 16 -34.5 41t-12.5 52q-0.533333 8 -0.533333 16.1778q0 22.4889 4.03333 46.3222q5.5 32.5 16.5 59.5q5 14 11.5 27t14.5 24q20 26 40.5 45.5t51.5 19.5q2.14286 0.142857 4.30612 0.142857q12.9796 0 26.6939 -5.14286q13 -6 20 -17.5t9.5 -25.5
t0.5 -28.5t-8 -27.5q-8 -17 -18 -34.5t-23 -30.5q-12 -13 -24.5 -22.5q-10.3261 -7.84783 -25.0879 -7.84783q-3.10775 0 -6.4121 0.347826q-17 2 -29 12q-3 1 -5 3q-4 2 -4 1q-1 -6 -2 -12.5t-2 -13.5q-2.53333 -25.3333 -2.53333 -42.0978q0 -18.1689 6.53333 -35.9022
q3 -7 7.5 -16t10.5 -17t14 -13t17 -3q14 1 32.5 10t37.5 27t36.5 44t30.5 61zM95 413q-11 -7 -15.5 -2t6.5 13q7 6 16 14t31 28q15 13 22.5 11.5t13.5 -10.5t13 -20.5t22 -17.5q10 -8 7.5 -12.5t-13.5 -2.5q-10 4 -19.5 10.5t-26.5 19.5q-14 -10 -23 -15t-15.5 -8t-10.5 -4
t-8 -4z" />
    <glyph glyph-name="edieresis" unicode="&#xeb;" horiz-adv-x="234" 
d="M90 160q13 -4 27 5.5t22 17.5q22 21 36 48q7 14 12.5 30q4.03333 11.7333 4.03333 22.9289q0 4.07111 -0.533333 8.07111q-2 11 -6.5 23.5t-16.5 14.5q-13 2 -26.5 -6.5t-21.5 -16.5q-23 -23 -35 -53.5q-11.7926 -29.9728 -22.6194 -59.4626
q0.236326 -0.505087 0.619393 -2.03735q1 -4 4 -10.5t8.5 -13t14.5 -8.5zM243 153q2 8 4.5 14t7.5 11q6 7 7.5 0.5t-0.5 -10.5q-13 -32 -25.5 -59.5t-33.5 -53.5q-13 -17 -31.5 -30.5t-39.5 -20q-16.0588 -4.97059 -32.7024 -4.97059q-5.12111 0 -10.2976 0.470588
q-22 2 -41 16q-23 16 -34.5 41t-12.5 52q-0.533333 8 -0.533333 16.1778q0 22.4889 4.03333 46.3222q5.5 32.5 16.5 59.5q5 14 11.5 27t14.5 24q20 26 40.5 45.5t51.5 19.5q2.14286 0.142857 4.30612 0.142857q12.9796 0 26.6939 -5.14286q13 -6 20 -17.5t9.5 -25.5
t0.5 -28.5t-8 -27.5q-8 -17 -18 -34.5t-23 -30.5q-12 -13 -24.5 -22.5q-10.3261 -7.84783 -25.0879 -7.84783q-3.10775 0 -6.4121 0.347826q-17 2 -29 12q-3 1 -5 3q-4 2 -4 1q-1 -6 -2 -12.5t-2 -13.5q-2.53333 -25.3333 -2.53333 -42.0978q0 -18.1689 6.53333 -35.9022
q3 -7 7.5 -16t10.5 -17t14 -13t17 -3q14 1 32.5 10t37.5 27t36.5 44t30.5 61zM226 456q8 -9 7.5 -20.5t-7 -19.5t-16.5 -10.5t-22 5.5q-12 9 -12 20.5t7 20.5t19 11.5t24 -7.5zM114 459q10 -12 7.5 -24t-11 -19t-20.5 -7t-21 12q-8 11 -5 21.5t11 16.5t19 6.5t20 -6.5z" />
    <glyph glyph-name="zcaron" unicode="&#x17e;" horiz-adv-x="321" 
d="M320 113q-20 -24 -42 -45q-6 -6 -13 -12t-4 -16q5 -15 9 -29.5t5 -30.5q0.310345 -6.2069 0.310345 -12.4084q0 -53.7467 -23.3103 -107.092q-26 -59.5 -67 -102.5q-20 -21 -43.5 -38t-52.5 -25q-14 -4 -29.5 -8t-31.5 -5q-4.57143 -0.285714 -9.10204 -0.285714
q-11.3265 0 -22.398 1.78571q-15.5 2.5 -28.5 11.5q-14 9 -17.5 20.5t-0.5 24.5t10 25.5t15 23.5q18 26 40.5 48t45.5 44q23 23 47.5 45.5t49.5 45.5q12 11 23.5 21.5t22.5 21.5q5 5 10.5 9.5t7.5 10.5q2 7 -3 15t-8 13q-12 23 -35.5 30q-6.09259 1.81481 -11.9499 1.81481
q-16.7353 0 -31.5501 -14.8148q-21 -22 -45 -39.5t-50 -32.5q-3 -2 -9.5 -5t-12.5 -4t-11.5 0.5t-6.5 8.5q-2 14 10.5 24.5t21.5 17.5q12 8 25 16.5t25 16.5q13 10 21.5 23t16.5 27q17 26 32.5 53.5t20.5 59.5q1.68421 9.68421 1.68421 19.1025q0 12.9501 -3.18421 25.3975
q-5.5 21.5 -26.5 35.5q-16.1905 9.52381 -35.5556 9.52381q-0.968254 0 -1.94444 -0.0238095q-20.5 -0.5 -37.5 -9.5q-9 -5 -17.5 -12t-14.5 -17q-7 -13 -6 -26.5t4 -26.5q2 -8 6.5 -24.5t6 -33t-2.5 -29t-20 -12.5q-14 1 -16 10.5t-2 20.5q0 16 -1 32t-1 32q0 26 12 48
t31 36t43.5 20q12.25 3 24.625 3t24.875 -3q29 -7 49 -26t26 -48q2.57143 -12 2.57143 -24.6429q0 -16.8571 -4.57143 -34.8571q-8 -31.5 -21 -56.5q-5 -10 -11 -18.5t-12 -16.5q-2 -3 -5.5 -6.5t1.5 -5.5q4 -2 9.5 -1t10.5 0q18 -3 34 -14q5 -3 8.5 -6.5l7.5 -7.5t7.5 -8.5
t8.5 -7.5q3 -2 11.5 5t17.5 16.5t17 19t10 12.5q14 16 24 34q2 3 4.5 9t6.5 8q5 2 8 -0.5t1 -6.5q-3 -7 -12.5 -21.5t-17.5 -24.5zM12 10q15 4 30 20t21 29h-2q-4 -3 -11.5 -7t-15.5 -10t-14.5 -14t-7.5 -18zM215 10q-11 -11 -22.5 -22t-23.5 -22q-23 -20 -44.5 -40.5
t-43.5 -42.5q-20 -20 -42 -40.5t-41 -43.5q-5 -6 -14 -17.5t-15.5 -24t-8.5 -24.5t6 -21t20 -12t24.5 -3t25.5 3t23 6q26 8 46.5 25.5t37.5 38.5q17 23 32.5 48t26.5 52q11 29 18.5 58.5t9.5 59.5q2 20 -4.5 23t-10.5 -1zM95 493q4 -3 8 -4t10.5 -4t15.5 -8t23 -15
q17 13 26.5 19.5t19.5 10.5q11 2 13.5 -2.5t-7.5 -12.5q-15 -6 -22 -17.5t-13 -20.5t-13.5 -11t-22.5 12q-22 20 -31 28t-16 14q-11 8 -6.5 13t15.5 -2z" />
    <glyph glyph-name="Zcaron" unicode="&#x17d;" horiz-adv-x="512" 
d="M263 817q4 -3 8 -4t10.5 -4t15.5 -8t23 -15q17 13 26.5 19.5t19.5 10.5q11 2 13.5 -2.5t-7.5 -12.5q-15 -6 -22 -17.5t-13 -20.5t-13.5 -11t-22.5 12q-22 20 -31 28t-16 14q-11 8 -6.5 13t15.5 -2zM440 170q-6 -15 -11.5 -28t-15.5 -26q-11 -14 -20.5 -28t-21.5 -26
q-21 -21 -46.5 -37.5t-53.5 -28.5q-13 -5 -26.5 -8.5t-27.5 -4.5q-16 -1 -32.5 -3.5q-7.5 -1.13636 -15.1033 -1.13636q-9.12397 0 -18.3967 1.63636q-31 5 -57.5 18t-47.5 36q-20 21 -33.5 48.5t-13.5 56.5q0 31 5.5 59.5t22.5 54.5q14 20 32 34.5t41 21.5
q16.7797 5.49153 32.2562 5.49153q35.2522 0 63.7438 -28.4915q20 -20 24.5 -46.5q2.13158 -12.5526 2.13158 -25.2175q0 -14.072 -2.63158 -28.2825q-2 -10 -6 -24.5t-10.5 -27.5t-16.5 -21.5t-23 -5.5q-8 1 -8.5 6t2 10t7 10.5t6.5 8.5q10 13 16 28t11 30
q4.65116 13.9535 4.65116 26.7171q0 14.6782 -6.15116 27.7829q-11.5 24.5 -37.5 40.5q-12 7 -25.5 7.5t-27 -3.5t-25 -12t-19.5 -18q-19 -23 -26 -49.5t-12 -55.5q-1.33333 -9.33333 -1.33333 -18.9444q0 -19.2222 5.33333 -39.5556q8 -30.5 25 -53.5q18 -23 43.5 -36.5
t54.5 -18.5q11.6 -2.4 23.36 -2.4q17.64 0 35.64 5.4q16 5 32.5 9t31.5 12q27 13 52 31t44 42t29.5 51.5t15.5 57.5q5.33333 28.4444 5.33333 56.8889q0 35.5556 -8.33333 71.1111q-3 12 -8.5 25.5t-13 26t-18.5 21.5t-24 12t-29 2t-28 -5q-7 -2 -13 -5.5t-13 -5.5
q-7 -3 -14.5 -7t-15.5 -2q-5 1 -5.5 5t1.5 8.5t5 8.5t6 6q12 7 25 11t25 12q24 15 40.5 38.5t27.5 49.5q5 14 11 27.5t9 27.5t5 31t-1 31q-3 12 -11 20.5t-19 13t-23 6.5t-23 1q-27 -2 -53.5 -16t-46.5 -34q-17 -19 -21.5 -43.5q-3.11538 -16.9615 -3.11538 -34.1627
q0 -7.64497 0.615385 -15.3373q2 -14 8 -27t5 -27q0 -11 -10 -11q-8 0 -11 6t-5 12q-7.33333 20.6667 -7.33333 41.3333q0 10.3333 1.83333 20.6667q5.5 31 17.5 60q6 14 16.5 24t21.5 19q13 11 26 19t28 13q21.3333 7.11111 44.2469 7.11111q2.8642 0 5.75309 -0.111111
q26 -1 49 -12q24 -12 40.5 -27.5q15.5571 -14.6143 15.5571 -43.0078q0 -19.578 -8.05714 -54.4922q-6 -26 -21 -47q-8 -11 -16.5 -21t-17.5 -21q-8 -10 -18 -16.5t-20 -15.5q17 -5 33.5 -6t32.5 -4q15 -4 25.5 -14.5t19.5 -21.5q20 -23 25 -56v-6.5t1 -6.5q2 -4 4 -6.5
t2 -6.5q0 -51 -10 -86.5t-22 -61.5z" />
    <glyph glyph-name="igrave" unicode="&#xec;" horiz-adv-x="156" 
d="M6 144q9 62 28 118q3 10 7 19.5t9 18.5q9 17 24 14q17 -5 14 -24q-1 -8 -2.5 -15.5t-3.5 -15.5q-6 -26 -11.5 -52.5t-9.5 -52.5q-4 -25 -5 -50t-3 -50q0 -5 1 -9.5t3 -9.5q5 -17 13 -17.5t21 10.5t20.5 24t13.5 28q11 27 22 53.5t22 52.5q4 5 8 3.5t2 -6.5l-4 -12l-4 -12
q-8 -20 -14 -39.5t-15 -37.5q-10 -20 -21.5 -39t-32.5 -31q-17.5 -9.8 -36.47 -9.8q-8.13 0 -16.53 1.8q-11 3 -17 11.5t-10 19.5q-7.52941 27.2941 -7.52941 52.3737q0 26.7675 5.52941 56.6263zM16 483q-3 10 2.5 18.5t14.5 13t18.5 3.5t15.5 -10q11 -24 24 -44t23 -45
q2 -18 -7.5 -22t-21.5 10q-7 9 -17 17.5t-19.5 17.5t-18.5 19t-14 22z" />
    <glyph glyph-name="iacute" unicode="&#xed;" horiz-adv-x="156" 
d="M6 144q9 62 28 118q3 10 7 19.5t9 18.5q9 17 24 14q17 -5 14 -24q-1 -8 -2.5 -15.5t-3.5 -15.5q-6 -26 -11.5 -52.5t-9.5 -52.5q-4 -25 -5 -50t-3 -50q0 -5 1 -9.5t3 -9.5q5 -17 13 -17.5t21 10.5t20.5 24t13.5 28q11 27 22 53.5t22 52.5q4 5 8 3.5t2 -6.5l-4 -12l-4 -12
q-8 -20 -14 -39.5t-15 -37.5q-10 -20 -21.5 -39t-32.5 -31q-17.5 -9.8 -36.47 -9.8q-8.13 0 -16.53 1.8q-11 3 -17 11.5t-10 19.5q-7.52941 27.2941 -7.52941 52.3737q0 26.7675 5.52941 56.6263zM144 483q-5 -12 -14 -22t-18.5 -19t-19.5 -17.5t-17 -17.5
q-12 -14 -21.5 -10t-7.5 22q10 25 23 45t24 44q6 9 15.5 10t18.5 -3.5t14.5 -13t2.5 -18.5z" />
    <glyph glyph-name="icircumflex" unicode="&#xee;" horiz-adv-x="156" 
d="M6 144q9 62 28 118q3 10 7 19.5t9 18.5q9 17 24 14q17 -5 14 -24q-1 -8 -2.5 -15.5t-3.5 -15.5q-6 -26 -11.5 -52.5t-9.5 -52.5q-4 -25 -5 -50t-3 -50q0 -5 1 -9.5t3 -9.5q5 -17 13 -17.5t21 10.5t20.5 24t13.5 28q11 27 22 53.5t22 52.5q4 5 8 3.5t2 -6.5l-4 -12l-4 -12
q-8 -20 -14 -39.5t-15 -37.5q-10 -20 -21.5 -39t-32.5 -31q-17.5 -9.8 -36.47 -9.8q-8.13 0 -16.53 1.8q-11 3 -17 11.5t-10 19.5q-7.52941 27.2941 -7.52941 52.3737q0 26.7675 5.52941 56.6263zM36 413q-11 -7 -15.5 -2t6.5 13q7 6 16 14t31 28q15 13 22.5 11.5
t13.5 -10.5t13 -20.5t22 -17.5q10 -8 7.5 -12.5t-13.5 -2.5q-10 4 -19.5 10.5t-26.5 19.5q-14 -10 -23 -15t-15.5 -8t-10.5 -4t-8 -4z" />
    <glyph glyph-name="idieresis" unicode="&#xef;" horiz-adv-x="156" 
d="M6 144q9 62 28 118q3 10 7 19.5t9 18.5q9 17 24 14q17 -5 14 -24q-1 -8 -2.5 -15.5t-3.5 -15.5q-6 -26 -11.5 -52.5t-9.5 -52.5q-4 -25 -5 -50t-3 -50q0 -5 1 -9.5t3 -9.5q5 -17 13 -17.5t21 10.5t20.5 24t13.5 28q11 27 22 53.5t22 52.5q4 5 8 3.5t2 -6.5l-4 -12l-4 -12
q-8 -20 -14 -39.5t-15 -37.5q-10 -20 -21.5 -39t-32.5 -31q-17.5 -9.8 -36.47 -9.8q-8.13 0 -16.53 1.8q-11 3 -17 11.5t-10 19.5q-7.52941 27.2941 -7.52941 52.3737q0 26.7675 5.52941 56.6263zM65 459q10 -12 7.5 -24t-11 -19t-20.5 -7t-21 12q-8 11 -5 21.5t11 16.5
t19 6.5t20 -6.5zM177 456q8 -9 7.5 -20.5t-7 -19.5t-16.5 -10.5t-22 5.5q-12 9 -12 20.5t7 20.5t19 11.5t24 -7.5z" />
    <glyph glyph-name="ntilde" unicode="&#xf1;" horiz-adv-x="338" 
d="M77 452q-8 0 -6 9.5t9.5 22t18.5 23t22 11.5q17 1 29 -8t23 -19t23.5 -16.5t29.5 0.5q10 8 16 16.5t19 12.5q6 -2 7 -12t-4 -22t-17 -22t-32 -11q-14 -1 -26.5 6.5t-24.5 17t-23 17t-20 6.5q-14 -2 -23.5 -13t-20.5 -19zM222 273q2 15 5.5 33
q1.63333 8.4 1.63333 16.1467q0 8.85333 -2.13333 16.8533q-2 8 -7 8t-10.5 -4t-10.5 -9l-8 -8q-11 -12 -19.5 -27t-16.5 -29q-17 -29 -32 -58.5t-29 -59.5q-12 -27 -24.5 -57t-13.5 -60q-1 -12 -2.5 -21t-16.5 -11q-13 -2 -20 5t-11 18q-7.69231 23.8462 -7.69231 49.4675
q0 7.68639 0.692308 15.5325q3 34 7 65q3 32 9.5 62t19.5 59q5 11 12.5 20.5t21.5 3.5q17 -6 16.5 -19.5t-3.5 -27.5q-5 -18 -9 -36t-7 -36q-2 -16 -6 -34.5q-2.66667 -12.3333 -2.66667 -23.5556q0 -5.61111 0.666667 -10.9444q8 12 13.5 26t10.5 28q7 16 14 31.5t15 30.5
q15 29 31.5 56.5t36.5 53.5q6 9 14 17.5t17 15t19.5 9.5t22.5 -1q13 -4 20.5 -14.5t11 -24t3 -27.5t-2.5 -25q-5 -34 -10.5 -67.5t-12.5 -66.5q-7 -31 -12.5 -61q-2.88095 -15.7143 -2.88095 -31.9773q0 -14.7846 2.38095 -30.0227q2 -12 11 -17t20 -1q13 5 21.5 19.5
t14.5 25.5q8 14 14 28.5t12 28.5q1 4 4 13.5t7 20t7.5 18t6.5 6.5q4 -1 3.5 -6t-2 -11.5t-4 -12.5t-3.5 -8q-4 -12 -9.5 -24t-8.5 -25q-5 -19 -16 -42t-26.5 -39.5t-36 -21q-4.1 -0.9 -8.26 -0.9q-16.64 0 -34.24 14.4q-18 14 -25 40q-4.9 18.2 -4.9 34.44q0 6.96 0.9 13.56
q0 3 3.5 27.5t8.5 55.5t10 60.5t8 43.5z" />
    <glyph glyph-name="ograve" unicode="&#xf2;" 
d="M74 483q-3 10 2.5 18.5t14.5 13t18.5 3.5t15.5 -10q11 -24 24 -44t23 -45q2 -18 -7.5 -22t-21.5 10q-7 9 -17 17.5t-19.5 17.5t-18.5 19t-14 22zM243 178q5 -2 10.5 0.5t9.5 4.5q7 3 15.5 4t15.5 6q11 8 15 8.5t12 11.5q5 5 8.5 10t8.5 2q7 -4 2 -11t-10 -12
q-9 -11 -17.5 -16.5t-17 -8.5t-18 -5t-21.5 -5q-12 -4 -17.5 -8.5t-8.5 -17.5q-8 -30 -23 -58q-13 -24 -31.5 -45.5t-44.5 -32.5q-14.5455 -5.81818 -30.6777 -5.81818q-6.04959 0 -12.3223 0.818182q-23 3 -41 14q-22 14 -32.5 39.5t-13.5 49.5
q-1.66667 10.6667 -1.66667 21q0 20.6667 6.66667 40q10 29 27 55q5 6 9 12.5t9 13.5q3 5 1.5 12t-3.5 12q-1.66667 10.3333 -1.66667 20q0 19.3333 6.66667 36q9 25 29 41t47 16q1.85714 0.0714286 3.68622 0.0714286q23.7781 0 42.8138 -12.0714q20.5 -13 34.5 -35
q13 -20 19 -39.5t8.5 -38.5t2.5 -38.5t2 -40.5zM168 361q-14 6 -30 7t-30 -4q-17 -6 -23.5 -24.5t-7.5 -35.5q-1 -7 -0.5 -15t3.5 -15q4 -8 11 -10t11 -9q5 -8 4.5 -13t-2.5 -13q-2 -9 7.5 -15.5t15.5 -11.5q32 -25 73 -26q6 -1 16.5 -2.5t11.5 7.5q0.5 12.5 0.5 25.5
t-0.5 26.5q-1 27 -7 51.5t-19 44.5t-34 32zM75 26q11.8182 -13.6364 26.9421 -13.6364q1.5124 0 3.05785 0.136364q17 1.5 32 9.5q35 20 55 55t30 73q2 6 -1.5 8.5t-8.5 3t-11 0t-10 -0.5q-20 2 -39.5 7.5t-37.5 16.5q-2 1 -6 4.5t-9 7t-9.5 5.5t-6.5 0q-5 -5 -9 -14t-6 -16
q-14.2222 -34.6667 -14.2222 -69.3333q0 -4.33333 0.222222 -8.66667q1 -15 6.5 -36t14.5 -32z" />
    <glyph glyph-name="oacute" unicode="&#xf3;" 
d="M212 483q-5 -12 -14 -22t-18.5 -19t-19.5 -17.5t-17 -17.5q-12 -14 -21.5 -10t-7.5 22q10 25 23 45t24 44q6 9 15.5 10t18.5 -3.5t14.5 -13t2.5 -18.5zM243 178q5 -2 10.5 0.5t9.5 4.5q7 3 15.5 4t15.5 6q11 8 15 8.5t12 11.5q5 5 8.5 10t8.5 2q7 -4 2 -11t-10 -12
q-9 -11 -17.5 -16.5t-17 -8.5t-18 -5t-21.5 -5q-12 -4 -17.5 -8.5t-8.5 -17.5q-8 -30 -23 -58q-13 -24 -31.5 -45.5t-44.5 -32.5q-14.5455 -5.81818 -30.6777 -5.81818q-6.04959 0 -12.3223 0.818182q-23 3 -41 14q-22 14 -32.5 39.5t-13.5 49.5
q-1.66667 10.6667 -1.66667 21q0 20.6667 6.66667 40q10 29 27 55q5 6 9 12.5t9 13.5q3 5 1.5 12t-3.5 12q-1.66667 10.3333 -1.66667 20q0 19.3333 6.66667 36q9 25 29 41t47 16q1.85714 0.0714286 3.68622 0.0714286q23.7781 0 42.8138 -12.0714q20.5 -13 34.5 -35
q13 -20 19 -39.5t8.5 -38.5t2.5 -38.5t2 -40.5zM168 361q-14 6 -30 7t-30 -4q-17 -6 -23.5 -24.5t-7.5 -35.5q-1 -7 -0.5 -15t3.5 -15q4 -8 11 -10t11 -9q5 -8 4.5 -13t-2.5 -13q-2 -9 7.5 -15.5t15.5 -11.5q32 -25 73 -26q6 -1 16.5 -2.5t11.5 7.5q0.5 12.5 0.5 25.5
t-0.5 26.5q-1 27 -7 51.5t-19 44.5t-34 32zM75 26q11.8182 -13.6364 26.9421 -13.6364q1.5124 0 3.05785 0.136364q17 1.5 32 9.5q35 20 55 55t30 73q2 6 -1.5 8.5t-8.5 3t-11 0t-10 -0.5q-20 2 -39.5 7.5t-37.5 16.5q-2 1 -6 4.5t-9 7t-9.5 5.5t-6.5 0q-5 -5 -9 -14t-6 -16
q-14.2222 -34.6667 -14.2222 -69.3333q0 -4.33333 0.222222 -8.66667q1 -15 6.5 -36t14.5 -32z" />
    <glyph glyph-name="ocircumflex" unicode="&#xf4;" 
d="M95 413q-11 -7 -15.5 -2t6.5 13q7 6 16 14t31 28q15 13 22.5 11.5t13.5 -10.5t13 -20.5t22 -17.5q10 -8 7.5 -12.5t-13.5 -2.5q-10 4 -19.5 10.5t-26.5 19.5q-14 -10 -23 -15t-15.5 -8t-10.5 -4t-8 -4zM243 178q5 -2 10.5 0.5t9.5 4.5q7 3 15.5 4t15.5 6q11 8 15 8.5
t12 11.5q5 5 8.5 10t8.5 2q7 -4 2 -11t-10 -12q-9 -11 -17.5 -16.5t-17 -8.5t-18 -5t-21.5 -5q-12 -4 -17.5 -8.5t-8.5 -17.5q-8 -30 -23 -58q-13 -24 -31.5 -45.5t-44.5 -32.5q-14.5455 -5.81818 -30.6777 -5.81818q-6.04959 0 -12.3223 0.818182q-23 3 -41 14
q-22 14 -32.5 39.5t-13.5 49.5q-1.66667 10.6667 -1.66667 21q0 20.6667 6.66667 40q10 29 27 55q5 6 9 12.5t9 13.5q3 5 1.5 12t-3.5 12q-1.66667 10.3333 -1.66667 20q0 19.3333 6.66667 36q9 25 29 41t47 16q1.85714 0.0714286 3.68622 0.0714286
q23.7781 0 42.8138 -12.0714q20.5 -13 34.5 -35q13 -20 19 -39.5t8.5 -38.5t2.5 -38.5t2 -40.5zM168 361q-14 6 -30 7t-30 -4q-17 -6 -23.5 -24.5t-7.5 -35.5q-1 -7 -0.5 -15t3.5 -15q4 -8 11 -10t11 -9q5 -8 4.5 -13t-2.5 -13q-2 -9 7.5 -15.5t15.5 -11.5q32 -25 73 -26
q6 -1 16.5 -2.5t11.5 7.5q0.5 12.5 0.5 25.5t-0.5 26.5q-1 27 -7 51.5t-19 44.5t-34 32zM75 26q11.8182 -13.6364 26.9421 -13.6364q1.5124 0 3.05785 0.136364q17 1.5 32 9.5q35 20 55 55t30 73q2 6 -1.5 8.5t-8.5 3t-11 0t-10 -0.5q-20 2 -39.5 7.5t-37.5 16.5
q-2 1 -6 4.5t-9 7t-9.5 5.5t-6.5 0q-5 -5 -9 -14t-6 -16q-14.2222 -34.6667 -14.2222 -69.3333q0 -4.33333 0.222222 -8.66667q1 -15 6.5 -36t14.5 -32z" />
    <glyph glyph-name="otilde" unicode="&#xf5;" 
d="M77 452q-8 0 -6 9.5t9.5 22t18.5 23t22 11.5q17 1 29 -8t23 -19t23.5 -16.5t29.5 0.5q10 8 16 16.5t19 12.5q6 -2 7 -12t-4 -22t-17 -22t-32 -11q-14 -1 -26.5 6.5t-24.5 17t-23 17t-20 6.5q-14 -2 -23.5 -13t-20.5 -19zM243 178q5 -2 10.5 0.5t9.5 4.5q7 3 15.5 4
t15.5 6q11 8 15 8.5t12 11.5q5 5 8.5 10t8.5 2q7 -4 2 -11t-10 -12q-9 -11 -17.5 -16.5t-17 -8.5t-18 -5t-21.5 -5q-12 -4 -17.5 -8.5t-8.5 -17.5q-8 -30 -23 -58q-13 -24 -31.5 -45.5t-44.5 -32.5q-14.5455 -5.81818 -30.6777 -5.81818q-6.04959 0 -12.3223 0.818182
q-23 3 -41 14q-22 14 -32.5 39.5t-13.5 49.5q-1.66667 10.6667 -1.66667 21q0 20.6667 6.66667 40q10 29 27 55q5 6 9 12.5t9 13.5q3 5 1.5 12t-3.5 12q-1.66667 10.3333 -1.66667 20q0 19.3333 6.66667 36q9 25 29 41t47 16q1.85714 0.0714286 3.68622 0.0714286
q23.7781 0 42.8138 -12.0714q20.5 -13 34.5 -35q13 -20 19 -39.5t8.5 -38.5t2.5 -38.5t2 -40.5zM168 361q-14 6 -30 7t-30 -4q-17 -6 -23.5 -24.5t-7.5 -35.5q-1 -7 -0.5 -15t3.5 -15q4 -8 11 -10t11 -9q5 -8 4.5 -13t-2.5 -13q-2 -9 7.5 -15.5t15.5 -11.5q32 -25 73 -26
q6 -1 16.5 -2.5t11.5 7.5q0.5 12.5 0.5 25.5t-0.5 26.5q-1 27 -7 51.5t-19 44.5t-34 32zM75 26q11.8182 -13.6364 26.9421 -13.6364q1.5124 0 3.05785 0.136364q17 1.5 32 9.5q35 20 55 55t30 73q2 6 -1.5 8.5t-8.5 3t-11 0t-10 -0.5q-20 2 -39.5 7.5t-37.5 16.5
q-2 1 -6 4.5t-9 7t-9.5 5.5t-6.5 0q-5 -5 -9 -14t-6 -16q-14.2222 -34.6667 -14.2222 -69.3333q0 -4.33333 0.222222 -8.66667q1 -15 6.5 -36t14.5 -32z" />
    <glyph glyph-name="odieresis" unicode="&#xf6;" 
d="M107 462q10 -12 7.5 -24t-11 -19t-20.5 -7t-21 12q-8 11 -5 21.5t11 16.5t19 6.5t20 -6.5zM219 459q8 -9 7.5 -20.5t-7 -19.5t-16.5 -10.5t-22 5.5q-12 9 -12 20.5t7 20.5t19 11.5t24 -7.5zM243 178q5 -2 10.5 0.5t9.5 4.5q7 3 15.5 4t15.5 6q11 8 15 8.5t12 11.5
q5 5 8.5 10t8.5 2q7 -4 2 -11t-10 -12q-9 -11 -17.5 -16.5t-17 -8.5t-18 -5t-21.5 -5q-12 -4 -17.5 -8.5t-8.5 -17.5q-8 -30 -23 -58q-13 -24 -31.5 -45.5t-44.5 -32.5q-14.5455 -5.81818 -30.6777 -5.81818q-6.04959 0 -12.3223 0.818182q-23 3 -41 14q-22 14 -32.5 39.5
t-13.5 49.5q-1.66667 10.6667 -1.66667 21q0 20.6667 6.66667 40q10 29 27 55q5 6 9 12.5t9 13.5q3 5 1.5 12t-3.5 12q-1.66667 10.3333 -1.66667 20q0 19.3333 6.66667 36q9 25 29 41t47 16q1.85714 0.0714286 3.68622 0.0714286q23.7781 0 42.8138 -12.0714
q20.5 -13 34.5 -35q13 -20 19 -39.5t8.5 -38.5t2.5 -38.5t2 -40.5zM168 361q-14 6 -30 7t-30 -4q-17 -6 -23.5 -24.5t-7.5 -35.5q-1 -7 -0.5 -15t3.5 -15q4 -8 11 -10t11 -9q5 -8 4.5 -13t-2.5 -13q-2 -9 7.5 -15.5t15.5 -11.5q32 -25 73 -26q6 -1 16.5 -2.5t11.5 7.5
q0.5 12.5 0.5 25.5t-0.5 26.5q-1 27 -7 51.5t-19 44.5t-34 32zM75 26q11.8182 -13.6364 26.9421 -13.6364q1.5124 0 3.05785 0.136364q17 1.5 32 9.5q35 20 55 55t30 73q2 6 -1.5 8.5t-8.5 3t-11 0t-10 -0.5q-20 2 -39.5 7.5t-37.5 16.5q-2 1 -6 4.5t-9 7t-9.5 5.5t-6.5 0
q-5 -5 -9 -14t-6 -16q-14.2222 -34.6667 -14.2222 -69.3333q0 -4.33333 0.222222 -8.66667q1 -15 6.5 -36t14.5 -32z" />
    <glyph glyph-name="oslash" unicode="&#xf8;" 
d="M243 178q5 -2 10.5 0.5t9.5 4.5q7 3 15.5 4t15.5 6q11 8 15 8.5t12 11.5q5 5 8.5 10t8.5 2q7 -4 2 -11t-10 -12q-9 -11 -17.5 -16.5t-17 -8.5t-18 -5t-21.5 -5q-12 -4 -17.5 -8.5t-8.5 -17.5q-8 -30 -23 -58q-13 -24 -31.5 -45.5t-44.5 -32.5
q-14.5459 -5.81836 -30.6777 -5.81836q-6.0498 0 -12.3223 0.818359q-23 3 -41 14q-22 14 -32.5 39.5t-13.5 49.5q-1.66699 10.667 -1.66699 21q0 20.667 6.66699 40q10 29 27 55q5 6 9 12.5t9 13.5q3 5 1.5 12t-3.5 12q-1.66699 10.333 -1.66699 20q0 19.333 6.66699 36
q9 25 29 41t47 16q1.85742 0.0712891 3.68652 0.0712891q23.7773 0 42.8135 -12.0713q20.5 -13 34.5 -35q13 -20 19 -39.5t8.5 -38.5t2.5 -38.5t2 -40.5zM168 361q-14 6 -30 7t-30 -4q-17 -6 -23.5 -24.5t-7.5 -35.5q-1 -7 -0.5 -15t3.5 -15q4 -8 11 -10t11 -9q5 -8 4.5 -13
t-2.5 -13q-2 -9 7.5 -15.5t15.5 -11.5q32 -25 73 -26q6 -1 16.5 -2.5t11.5 7.5q0.5 12.5 0.5 25.5t-0.5 26.5q-1 27 -7 51.5t-19 44.5t-34 32zM75 26q11.8184 -13.6367 26.9424 -13.6367q1.51172 0 3.05762 0.136719q17 1.5 32 9.5q35 20 55 55t30 73q2 6 -1.5 8.5t-8.5 3
t-11 0t-10 -0.5q-20 2 -39.5 7.5t-37.5 16.5q-2 1 -6 4.5t-9 7t-9.5 5.5t-6.5 0q-5 -5 -9 -14t-6 -16q-14.2227 -34.667 -14.2227 -69.333q0 -4.33398 0.222656 -8.66699q1 -15 6.5 -36t14.5 -32z" />
    <glyph glyph-name="ugrave" unicode="&#xf9;" horiz-adv-x="356" 
d="M178 121q-11 -10 -18 -24.5t-15 -26.5q-9 -12 -18.5 -23.5t-21.5 -22.5q-8 -8 -20.5 -15.5t-25.5 -7.5t-24.5 7t-19.5 17q-8 12 -11.5 26.5t-3.5 29.5t1.5 30.5t3.5 28.5q5 32 12 64.5t18 62.5q4 11 10 26.5t17 21.5q9 5 21.5 1.5t14.5 -14.5q2 -6 0.5 -13t-3.5 -13
q-2 -8 -3.5 -15.5t-3.5 -15.5q-3 -17 -6.5 -33.5t-8.5 -33.5q-8 -32 -12 -63q-3 -16 -7 -34.5q-2.66667 -12.3333 -2.66667 -23.5556q0 -5.61111 0.666667 -10.9444q2 -11 8.5 -20.5t19.5 -1.5t23.5 18.5t20.5 22.5q9 12 17.5 25t16.5 26q9 13 16.5 25.5t12.5 28.5
q4 14 6 28.5t6 28.5q3 16 8 31.5t11 31.5q10 23 24 46t42 29q9 2 18 0.5t7 -13.5q-2 -14 -11.5 -28.5t-17.5 -25.5q-9 -13 -16 -25t-12 -27q-5 -17 -8.5 -33.5t-7.5 -33.5q-6 -31 -11.5 -64.5q-2.88095 -17.5476 -2.88095 -34.6837q0 -15.5782 2.38095 -30.8163
q2 -12 7.5 -26t15.5 -22q11 -8 23.5 -3t21.5 12q11 9 19.5 21t16.5 24q8 14 16 29t15 30q3 6 6 15.5t6.5 18t7 14t6.5 4.5q5 -2 4 -6t-4 -10q-3 -7 -6 -13.5t-6 -14.5q-5 -12 -10.5 -24.5t-12.5 -24.5q-11 -21 -25 -42.5t-34 -35.5q-16.4706 -11.5294 -34.9758 -11.5294
q-3.9654 0 -8.02422 0.529412q-23 3 -40 21q-8 9 -13.5 20t-9.5 22q-8 21 -8.5 42.5q-0.1 4.3 -0.1 8.14q0 15.36 1.6 23.36zM288 338l-12 -24q1 -1 5.5 4.5t8.5 12t7 13.5t2 9q-2 0 -5.5 -5.5t-5.5 -9.5zM74 483q-3 10 2.5 18.5t14.5 13t18.5 3.5t15.5 -10q11 -24 24 -44
t23 -45q2 -18 -7.5 -22t-21.5 10q-7 9 -17 17.5t-19.5 17.5t-18.5 19t-14 22z" />
    <glyph glyph-name="uacute" unicode="&#xfa;" horiz-adv-x="356" 
d="M247 483q-5 -12 -14 -22t-18.5 -19t-19.5 -17.5t-17 -17.5q-12 -14 -21.5 -10t-7.5 22q10 25 23 45t24 44q6 9 15.5 10t18.5 -3.5t14.5 -13t2.5 -18.5zM178 121q-11 -10 -18 -24.5t-15 -26.5q-9 -12 -18.5 -23.5t-21.5 -22.5q-8 -8 -20.5 -15.5t-25.5 -7.5t-24.5 7
t-19.5 17q-8 12 -11.5 26.5t-3.5 29.5t1.5 30.5t3.5 28.5q5 32 12 64.5t18 62.5q4 11 10 26.5t17 21.5q9 5 21.5 1.5t14.5 -14.5q2 -6 0.5 -13t-3.5 -13q-2 -8 -3.5 -15.5t-3.5 -15.5q-3 -17 -6.5 -33.5t-8.5 -33.5q-8 -32 -12 -63q-3 -16 -7 -34.5
q-2.66667 -12.3333 -2.66667 -23.5556q0 -5.61111 0.666667 -10.9444q2 -11 8.5 -20.5t19.5 -1.5t23.5 18.5t20.5 22.5q9 12 17.5 25t16.5 26q9 13 16.5 25.5t12.5 28.5q4 14 6 28.5t6 28.5q3 16 8 31.5t11 31.5q10 23 24 46t42 29q9 2 18 0.5t7 -13.5q-2 -14 -11.5 -28.5
t-17.5 -25.5q-9 -13 -16 -25t-12 -27q-5 -17 -8.5 -33.5t-7.5 -33.5q-6 -31 -11.5 -64.5q-2.88095 -17.5476 -2.88095 -34.6837q0 -15.5782 2.38095 -30.8163q2 -12 7.5 -26t15.5 -22q11 -8 23.5 -3t21.5 12q11 9 19.5 21t16.5 24q8 14 16 29t15 30q3 6 6 15.5t6.5 18t7 14
t6.5 4.5q5 -2 4 -6t-4 -10q-3 -7 -6 -13.5t-6 -14.5q-5 -12 -10.5 -24.5t-12.5 -24.5q-11 -21 -25 -42.5t-34 -35.5q-16.4706 -11.5294 -34.9758 -11.5294q-3.9654 0 -8.02422 0.529412q-23 3 -40 21q-8 9 -13.5 20t-9.5 22q-8 21 -8.5 42.5q-0.1 4.3 -0.1 8.14
q0 15.36 1.6 23.36zM288 338l-12 -24q1 -1 5.5 4.5t8.5 12t7 13.5t2 9q-2 0 -5.5 -5.5t-5.5 -9.5z" />
    <glyph glyph-name="ucircumflex" unicode="&#xfb;" horiz-adv-x="356" 
d="M144 422q-11 -7 -15.5 -2t6.5 13q7 6 16 14t31 28q15 13 22.5 11.5t13.5 -10.5t13 -20.5t22 -17.5q10 -8 7.5 -12.5t-13.5 -2.5q-10 4 -19.5 10.5t-26.5 19.5q-14 -10 -23 -15t-15.5 -8t-10.5 -4t-8 -4zM178 121q-11 -10 -18 -24.5t-15 -26.5q-9 -12 -18.5 -23.5
t-21.5 -22.5q-8 -8 -20.5 -15.5t-25.5 -7.5t-24.5 7t-19.5 17q-8 12 -11.5 26.5t-3.5 29.5t1.5 30.5t3.5 28.5q5 32 12 64.5t18 62.5q4 11 10 26.5t17 21.5q9 5 21.5 1.5t14.5 -14.5q2 -6 0.5 -13t-3.5 -13q-2 -8 -3.5 -15.5t-3.5 -15.5q-3 -17 -6.5 -33.5t-8.5 -33.5
q-8 -32 -12 -63q-3 -16 -7 -34.5q-2.66667 -12.3333 -2.66667 -23.5556q0 -5.61111 0.666667 -10.9444q2 -11 8.5 -20.5t19.5 -1.5t23.5 18.5t20.5 22.5q9 12 17.5 25t16.5 26q9 13 16.5 25.5t12.5 28.5q4 14 6 28.5t6 28.5q3 16 8 31.5t11 31.5q10 23 24 46t42 29
q9 2 18 0.5t7 -13.5q-2 -14 -11.5 -28.5t-17.5 -25.5q-9 -13 -16 -25t-12 -27q-5 -17 -8.5 -33.5t-7.5 -33.5q-6 -31 -11.5 -64.5q-2.88095 -17.5476 -2.88095 -34.6837q0 -15.5782 2.38095 -30.8163q2 -12 7.5 -26t15.5 -22q11 -8 23.5 -3t21.5 12q11 9 19.5 21t16.5 24
q8 14 16 29t15 30q3 6 6 15.5t6.5 18t7 14t6.5 4.5q5 -2 4 -6t-4 -10q-3 -7 -6 -13.5t-6 -14.5q-5 -12 -10.5 -24.5t-12.5 -24.5q-11 -21 -25 -42.5t-34 -35.5q-16.4706 -11.5294 -34.9758 -11.5294q-3.9654 0 -8.02422 0.529412q-23 3 -40 21q-8 9 -13.5 20t-9.5 22
q-8 21 -8.5 42.5q-0.1 4.3 -0.1 8.14q0 15.36 1.6 23.36zM288 338l-12 -24q1 -1 5.5 4.5t8.5 12t7 13.5t2 9q-2 0 -5.5 -5.5t-5.5 -9.5z" />
    <glyph glyph-name="udieresis" unicode="&#xfc;" horiz-adv-x="356" 
d="M151 466q10 -12 7.5 -24t-11 -19t-20.5 -7t-21 12q-8 11 -5 21.5t11 16.5t19 6.5t20 -6.5zM263 463q8 -9 7.5 -20.5t-7 -19.5t-16.5 -10.5t-22 5.5q-12 9 -12 20.5t7 20.5t19 11.5t24 -7.5zM178 121q-11 -10 -18 -24.5t-15 -26.5q-9 -12 -18.5 -23.5t-21.5 -22.5
q-8 -8 -20.5 -15.5t-25.5 -7.5t-24.5 7t-19.5 17q-8 12 -11.5 26.5t-3.5 29.5t1.5 30.5t3.5 28.5q5 32 12 64.5t18 62.5q4 11 10 26.5t17 21.5q9 5 21.5 1.5t14.5 -14.5q2 -6 0.5 -13t-3.5 -13q-2 -8 -3.5 -15.5t-3.5 -15.5q-3 -17 -6.5 -33.5t-8.5 -33.5q-8 -32 -12 -63
q-3 -16 -7 -34.5q-2.66667 -12.3333 -2.66667 -23.5556q0 -5.61111 0.666667 -10.9444q2 -11 8.5 -20.5t19.5 -1.5t23.5 18.5t20.5 22.5q9 12 17.5 25t16.5 26q9 13 16.5 25.5t12.5 28.5q4 14 6 28.5t6 28.5q3 16 8 31.5t11 31.5q10 23 24 46t42 29q9 2 18 0.5t7 -13.5
q-2 -14 -11.5 -28.5t-17.5 -25.5q-9 -13 -16 -25t-12 -27q-5 -17 -8.5 -33.5t-7.5 -33.5q-6 -31 -11.5 -64.5q-2.88095 -17.5476 -2.88095 -34.6837q0 -15.5782 2.38095 -30.8163q2 -12 7.5 -26t15.5 -22q11 -8 23.5 -3t21.5 12q11 9 19.5 21t16.5 24q8 14 16 29t15 30
q3 6 6 15.5t6.5 18t7 14t6.5 4.5q5 -2 4 -6t-4 -10q-3 -7 -6 -13.5t-6 -14.5q-5 -12 -10.5 -24.5t-12.5 -24.5q-11 -21 -25 -42.5t-34 -35.5q-16.4706 -11.5294 -34.9758 -11.5294q-3.9654 0 -8.02422 0.529412q-23 3 -40 21q-8 9 -13.5 20t-9.5 22q-8 21 -8.5 42.5
q-0.1 4.3 -0.1 8.14q0 15.36 1.6 23.36zM288 338l-12 -24q1 -1 5.5 4.5t8.5 12t7 13.5t2 9q-2 0 -5.5 -5.5t-5.5 -9.5z" />
    <glyph glyph-name="yacute" unicode="&#xfd;" horiz-adv-x="319" 
d="M301 370q-7 -2 -10.5 -9t-6.5 -14l-6 -12t-3 -13q4 6 14 20.5t12 27.5zM155 -15q-10 -5 -17.5 -14t-15.5 -17q-9 -9 -17.5 -18t-16.5 -19q-17 -20 -32.5 -40t-29.5 -41q-14 -20 -24.5 -42t-18.5 -45q-3 -8 -6 -19.5t-3.5 -23t2.5 -22t12 -16.5q10 -7 21 -8t22 1.5t20.5 9
t17.5 14.5q17 17 25 39t15 44q7 25 15.5 56.5t15.5 62t11.5 56.5q3.68182 21.2727 3.68182 35.8512q0 3.23967 -0.181818 6.14876zM247 483q-5 -12 -14 -22t-18.5 -19t-19.5 -17.5t-17 -17.5q-12 -14 -21.5 -10t-7.5 22q10 25 23 45t24 44q6 9 15.5 10t18.5 -3.5t14.5 -13
t2.5 -18.5zM6 -353q-2.75278 0.917592 -3.29537 1.2037q-12.0726 4.51003 -22.2046 9.7963q-11.5 6 -16.5 22q-3.33333 10.6667 -3.33333 22.2222q0 5.77778 0.833333 11.7778q2.5 18 7.5 33q11 37 31.5 70t43.5 63q11 14 23 28.5t24 28.5t24.5 28.5t28.5 25.5
q14 11 17 27.5t6 33.5q2 18 7 38q3.57143 14.2857 3.57143 27.551q0 5.30612 -0.571429 10.449q-19 -24 -34.5 -49.5t-38.5 -46.5q-9 -8 -21 -14.5t-25 -7.5q-14 -1 -25.5 7.5t-18.5 19.5q-6 10 -9 21.5t-4 23.5q-1 8 -1 16.375t1 17.125q2 17.5 4 33.5q5 32 13 64t18 63
q4 12 7.5 25t14.5 21q8 5 20 4.5t18 -8.5q6 -10 1.5 -25t-6.5 -25q-4 -17 -7.5 -34t-7.5 -34q-6 -35 -15 -67.5t-9 -63.5q0 -4 0.5 -11t2.5 -13.5t6 -11t10 -4.5q12 2 25 15.5t20 21.5q17 17 30 37l26 40q11 19 16 41.5t10 43.5q4 19 9.5 42.5t14.5 45.5t22.5 39.5
t35.5 24.5q5 2 15.5 3.5t13.5 -6.5q4 -11 -1.5 -20.5t-10.5 -17.5q-13 -20 -25 -38t-19 -41q-7 -24 -11 -48.5t-9 -49.5l-9 -54q-2 -13 -4.5 -25.5t-1.5 -24.5q10 7 18.5 15.5t17.5 16.5q11 11 22 21t22 21q11 10 21 20l21 21q3 2 8 4t4 -5q0 -5 -6.5 -11t-9.5 -9
q-20 -20 -41.5 -39.5t-41.5 -39.5q-8 -8 -17.5 -15.5t-16.5 -17.5q-6 -8 -8 -18.5t-4 -20.5q-11 -57 -24.5 -114t-37.5 -109q-10 -21 -23 -44.5t-29.5 -42.5t-38 -31.5t-48.5 -12.5z" />
    <glyph glyph-name="ydieresis" unicode="&#xff;" horiz-adv-x="319" 
d="M301 370q-7 -2 -10.5 -9t-6.5 -14l-6 -12t-3 -13q4 6 14 20.5t12 27.5zM155 -15q-10 -5 -17.5 -14t-15.5 -17q-9 -9 -17.5 -18t-16.5 -19q-17 -20 -32.5 -40t-29.5 -41q-14 -20 -24.5 -42t-18.5 -45q-3 -8 -6 -19.5t-3.5 -23t2.5 -22t12 -16.5q10 -7 21 -8t22 1.5t20.5 9
t17.5 14.5q17 17 25 39t15 44q7 25 15.5 56.5t15.5 62t11.5 56.5q3.68182 21.2727 3.68182 35.8512q0 3.23967 -0.181818 6.14876zM263 463q8 -9 7.5 -20.5t-7 -19.5t-16.5 -10.5t-22 5.5q-12 9 -12 20.5t7 20.5t19 11.5t24 -7.5zM151 466q10 -12 7.5 -24t-11 -19t-20.5 -7
t-21 12q-8 11 -5 21.5t11 16.5t19 6.5t20 -6.5zM6 -353q-2.75278 0.917592 -3.29537 1.2037q-12.0726 4.51003 -22.2046 9.7963q-11.5 6 -16.5 22q-3.33333 10.6667 -3.33333 22.2222q0 5.77778 0.833333 11.7778q2.5 18 7.5 33q11 37 31.5 70t43.5 63q11 14 23 28.5
t24 28.5t24.5 28.5t28.5 25.5q14 11 17 27.5t6 33.5q2 18 7 38q3.57143 14.2857 3.57143 27.551q0 5.30612 -0.571429 10.449q-19 -24 -34.5 -49.5t-38.5 -46.5q-9 -8 -21 -14.5t-25 -7.5q-14 -1 -25.5 7.5t-18.5 19.5q-6 10 -9 21.5t-4 23.5q-1 8 -1 16.375t1 17.125
q2 17.5 4 33.5q5 32 13 64t18 63q4 12 7.5 25t14.5 21q8 5 20 4.5t18 -8.5q6 -10 1.5 -25t-6.5 -25q-4 -17 -7.5 -34t-7.5 -34q-6 -35 -15 -67.5t-9 -63.5q0 -4 0.5 -11t2.5 -13.5t6 -11t10 -4.5q12 2 25 15.5t20 21.5q17 17 30 37l26 40q11 19 16 41.5t10 43.5
q4 19 9.5 42.5t14.5 45.5t22.5 39.5t35.5 24.5q5 2 15.5 3.5t13.5 -6.5q4 -11 -1.5 -20.5t-10.5 -17.5q-13 -20 -25 -38t-19 -41q-7 -24 -11 -48.5t-9 -49.5l-9 -54q-2 -13 -4.5 -25.5t-1.5 -24.5q10 7 18.5 15.5t17.5 16.5q11 11 22 21t22 21q11 10 21 20l21 21q3 2 8 4
t4 -5q0 -5 -6.5 -11t-9.5 -9q-20 -20 -41.5 -39.5t-41.5 -39.5q-8 -8 -17.5 -15.5t-16.5 -17.5q-6 -8 -8 -18.5t-4 -20.5q-11 -57 -24.5 -114t-37.5 -109q-10 -21 -23 -44.5t-29.5 -42.5t-38 -31.5t-48.5 -12.5z" />
    <glyph glyph-name="Agrave" unicode="&#xc0;" horiz-adv-x="939" 
d="M894 57q2 5 6.5 7.5t4.5 -7.5q-8 -16 -18 -29.5t-29 -17.5q-8.28571 -1.42857 -15.7551 -1.42857q-18.6735 0 -32.2449 8.92857q-19 12.5 -40 34.5q-23 29 -36 63.5t-19 71.5q-3 26 -5 50.5t-4 50.5q0 5 -3 6.5l-7 3.5q-22 7 -44 13.5t-44 14.5q-5 2 -9.5 2t-9.5 -7
q-5 -9 -11.5 -18t-13.5 -18q-38 -56 -79 -104.5t-89 -99.5q-15 -14 -34.5 -28t-39.5 -23q-26 -11 -51.5 -19.5t-53.5 -10.5q-7.66667 -0.666667 -15.4444 -0.666667q-15.5556 0 -31.5556 2.66667q-24 4 -46 12q-35 17 -62 42t-44 61q-10 17 -16.5 40.5
q-4.02381 14.5476 -4.02381 33.5023q0 11.6644 1.52381 24.9977q1 9 4 18.5t7 18.5q12 29 31.5 57t51.5 46q14 8 28 11.5t32 3.5q19 -1 39 -7.5t37 -20.5q10 -8 16.5 -19.5t13.5 -22.5q5 -8 7.5 -17t0.5 -19q-3 -17 -16 -14q-6 0 -8.5 4t-4.5 9q-5 14 -10 28.5t-13 27.5
q-5 7 -13.5 15t-19.5 13.5t-23.5 8.5t-23.5 1q-42 -5 -72.5 -36t-40.5 -71q-8.22857 -29.4857 -8.22857 -57.7959q0 -12.9755 1.72857 -25.7041q5.5 -40.5 32.5 -78.5q20 -28 51 -50.5t69 -27.5q9.2 -0.8 17.92 -0.8q13.08 0 25.08 1.8q20 3 43 6q42 9 78 31.5t67.5 52
t60 63.5t55.5 66q16 24 32 46t31 48q1 2 0 4.5t-2 2.5q-25 8 -50 13q-20.8333 4.16667 -42.3611 4.16667q-4.30556 0 -8.63889 -0.166667q-13 -1 -21 -5.5t-16 -13.5q-5 -7 -7 -5t-2 9q3 11 12 15t17 7q12.8 3.2 25.6 3.2l6.4 -0.2q16 -1 31.5 -5t31.5 -7.5t34 -3.5
q5 0 11.5 9t13 21t12.5 24.5t10 18.5q35 60 71.5 119.5t72.5 126.5q4 9 8 17.5t8 17.5q3 12 14 7q13 -2 11 -14q-7 -38 -15 -76t-13 -77q-7 -49 -12.5 -98t-12.5 -100q-1 -10 -1 -20v-21q0 -2 2 -4t4 -2q16 0 31.5 2.5t29.5 11.5q4 2 6 5.5t5 6.5q5 2 8 -1t0 -8
q-9 -9 -18 -13.5t-18.5 -6.5t-20.5 -3t-23 -3q-3 0 -5 -3t-2 -5q0 -24 0.5 -51.5t4.5 -55.5t13 -54t26 -47q9 -11 19.5 -20t24.5 -14t25.5 2.5t16.5 21.5zM718 447q1 10 2.5 22.5t2.5 25.5t2.5 24t3.5 19q-6 -9 -12.5 -18.5t-12.5 -19.5q-6 -11 -12.5 -21t-12.5 -21
q-17 -28 -36.5 -62t-42.5 -58q23 -8 46 -15t50 -16q13 -5 13 9q-0.727273 11.6364 -0.727273 23.2727q0 20.3636 2.22727 40.7273q3.5 32 7.5 67zM729 856q-3 10 2.5 18.5t14.5 13t18.5 3.5t15.5 -10q11 -24 24 -44t23 -45q2 -18 -7.5 -22t-21.5 10q-7 9 -17 17.5
t-19.5 17.5t-18.5 19t-14 22z" />
    <glyph glyph-name="Aacute" unicode="&#xc1;" horiz-adv-x="939" 
d="M894 57q2 5 6.5 7.5t4.5 -7.5q-8 -16 -18 -29.5t-29 -17.5q-8.28571 -1.42857 -15.7551 -1.42857q-18.6735 0 -32.2449 8.92857q-19 12.5 -40 34.5q-23 29 -36 63.5t-19 71.5q-3 26 -5 50.5t-4 50.5q0 5 -3 6.5l-7 3.5q-22 7 -44 13.5t-44 14.5q-5 2 -9.5 2t-9.5 -7
q-5 -9 -11.5 -18t-13.5 -18q-38 -56 -79 -104.5t-89 -99.5q-15 -14 -34.5 -28t-39.5 -23q-26 -11 -51.5 -19.5t-53.5 -10.5q-7.66667 -0.666667 -15.4444 -0.666667q-15.5556 0 -31.5556 2.66667q-24 4 -46 12q-35 17 -62 42t-44 61q-10 17 -16.5 40.5
q-4.02381 14.5476 -4.02381 33.5023q0 11.6644 1.52381 24.9977q1 9 4 18.5t7 18.5q12 29 31.5 57t51.5 46q14 8 28 11.5t32 3.5q19 -1 39 -7.5t37 -20.5q10 -8 16.5 -19.5t13.5 -22.5q5 -8 7.5 -17t0.5 -19q-3 -17 -16 -14q-6 0 -8.5 4t-4.5 9q-5 14 -10 28.5t-13 27.5
q-5 7 -13.5 15t-19.5 13.5t-23.5 8.5t-23.5 1q-42 -5 -72.5 -36t-40.5 -71q-8.22857 -29.4857 -8.22857 -57.7959q0 -12.9755 1.72857 -25.7041q5.5 -40.5 32.5 -78.5q20 -28 51 -50.5t69 -27.5q9.2 -0.8 17.92 -0.8q13.08 0 25.08 1.8q20 3 43 6q42 9 78 31.5t67.5 52
t60 63.5t55.5 66q16 24 32 46t31 48q1 2 0 4.5t-2 2.5q-25 8 -50 13q-20.8333 4.16667 -42.3611 4.16667q-4.30556 0 -8.63889 -0.166667q-13 -1 -21 -5.5t-16 -13.5q-5 -7 -7 -5t-2 9q3 11 12 15t17 7q12.8 3.2 25.6 3.2l6.4 -0.2q16 -1 31.5 -5t31.5 -7.5t34 -3.5
q5 0 11.5 9t13 21t12.5 24.5t10 18.5q35 60 71.5 119.5t72.5 126.5q4 9 8 17.5t8 17.5q3 12 14 7q13 -2 11 -14q-7 -38 -15 -76t-13 -77q-7 -49 -12.5 -98t-12.5 -100q-1 -10 -1 -20v-21q0 -2 2 -4t4 -2q16 0 31.5 2.5t29.5 11.5q4 2 6 5.5t5 6.5q5 2 8 -1t0 -8
q-9 -9 -18 -13.5t-18.5 -6.5t-20.5 -3t-23 -3q-3 0 -5 -3t-2 -5q0 -24 0.5 -51.5t4.5 -55.5t13 -54t26 -47q9 -11 19.5 -20t24.5 -14t25.5 2.5t16.5 21.5zM718 447q1 10 2.5 22.5t2.5 25.5t2.5 24t3.5 19q-6 -9 -12.5 -18.5t-12.5 -19.5q-6 -11 -12.5 -21t-12.5 -21
q-17 -28 -36.5 -62t-42.5 -58q23 -8 46 -15t50 -16q13 -5 13 9q-0.727273 11.6364 -0.727273 23.2727q0 20.3636 2.22727 40.7273q3.5 32 7.5 67zM877 856q-5 -12 -14 -22t-18.5 -19t-19.5 -17.5t-17 -17.5q-12 -14 -21.5 -10t-7.5 22q10 25 23 45t24 44q6 9 15.5 10
t18.5 -3.5t14.5 -13t2.5 -18.5z" />
    <glyph glyph-name="Acircumflex" unicode="&#xc2;" horiz-adv-x="939" 
d="M894 57q2 5 6.5 7.5t4.5 -7.5q-8 -16 -18 -29.5t-29 -17.5q-8.28571 -1.42857 -15.7551 -1.42857q-18.6735 0 -32.2449 8.92857q-19 12.5 -40 34.5q-23 29 -36 63.5t-19 71.5q-3 26 -5 50.5t-4 50.5q0 5 -3 6.5l-7 3.5q-22 7 -44 13.5t-44 14.5q-5 2 -9.5 2t-9.5 -7
q-5 -9 -11.5 -18t-13.5 -18q-38 -56 -79 -104.5t-89 -99.5q-15 -14 -34.5 -28t-39.5 -23q-26 -11 -51.5 -19.5t-53.5 -10.5q-7.66667 -0.666667 -15.4444 -0.666667q-15.5556 0 -31.5556 2.66667q-24 4 -46 12q-35 17 -62 42t-44 61q-10 17 -16.5 40.5
q-4.02381 14.5476 -4.02381 33.5023q0 11.6644 1.52381 24.9977q1 9 4 18.5t7 18.5q12 29 31.5 57t51.5 46q14 8 28 11.5t32 3.5q19 -1 39 -7.5t37 -20.5q10 -8 16.5 -19.5t13.5 -22.5q5 -8 7.5 -17t0.5 -19q-3 -17 -16 -14q-6 0 -8.5 4t-4.5 9q-5 14 -10 28.5t-13 27.5
q-5 7 -13.5 15t-19.5 13.5t-23.5 8.5t-23.5 1q-42 -5 -72.5 -36t-40.5 -71q-8.22857 -29.4857 -8.22857 -57.7959q0 -12.9755 1.72857 -25.7041q5.5 -40.5 32.5 -78.5q20 -28 51 -50.5t69 -27.5q9.2 -0.8 17.92 -0.8q13.08 0 25.08 1.8q20 3 43 6q42 9 78 31.5t67.5 52
t60 63.5t55.5 66q16 24 32 46t31 48q1 2 0 4.5t-2 2.5q-25 8 -50 13q-20.8333 4.16667 -42.3611 4.16667q-4.30556 0 -8.63889 -0.166667q-13 -1 -21 -5.5t-16 -13.5q-5 -7 -7 -5t-2 9q3 11 12 15t17 7q12.8 3.2 25.6 3.2l6.4 -0.2q16 -1 31.5 -5t31.5 -7.5t34 -3.5
q5 0 11.5 9t13 21t12.5 24.5t10 18.5q35 60 71.5 119.5t72.5 126.5q4 9 8 17.5t8 17.5q3 12 14 7q13 -2 11 -14q-7 -38 -15 -76t-13 -77q-7 -49 -12.5 -98t-12.5 -100q-1 -10 -1 -20v-21q0 -2 2 -4t4 -2q16 0 31.5 2.5t29.5 11.5q4 2 6 5.5t5 6.5q5 2 8 -1t0 -8
q-9 -9 -18 -13.5t-18.5 -6.5t-20.5 -3t-23 -3q-3 0 -5 -3t-2 -5q0 -24 0.5 -51.5t4.5 -55.5t13 -54t26 -47q9 -11 19.5 -20t24.5 -14t25.5 2.5t16.5 21.5zM718 447q1 10 2.5 22.5t2.5 25.5t2.5 24t3.5 19q-6 -9 -12.5 -18.5t-12.5 -19.5q-6 -11 -12.5 -21t-12.5 -21
q-17 -28 -36.5 -62t-42.5 -58q23 -8 46 -15t50 -16q13 -5 13 9q-0.727273 11.6364 -0.727273 23.2727q0 20.3636 2.22727 40.7273q3.5 32 7.5 67zM752 753q-11 -7 -15.5 -2t6.5 13q7 6 16 14t31 28q15 13 22.5 11.5t13.5 -10.5t13 -20.5t22 -17.5q10 -8 7.5 -12.5
t-13.5 -2.5q-10 4 -19.5 10.5t-26.5 19.5q-14 -10 -23 -15t-15.5 -8t-10.5 -4t-8 -4z" />
    <glyph glyph-name="Atilde" unicode="&#xc3;" horiz-adv-x="939" 
d="M894 57q2 5 6.5 7.5t4.5 -7.5q-8 -16 -18 -29.5t-29 -17.5q-8.28571 -1.42857 -15.7551 -1.42857q-18.6735 0 -32.2449 8.92857q-19 12.5 -40 34.5q-23 29 -36 63.5t-19 71.5q-3 26 -5 50.5t-4 50.5q0 5 -3 6.5l-7 3.5q-22 7 -44 13.5t-44 14.5q-5 2 -9.5 2t-9.5 -7
q-5 -9 -11.5 -18t-13.5 -18q-38 -56 -79 -104.5t-89 -99.5q-15 -14 -34.5 -28t-39.5 -23q-26 -11 -51.5 -19.5t-53.5 -10.5q-7.66667 -0.666667 -15.4444 -0.666667q-15.5556 0 -31.5556 2.66667q-24 4 -46 12q-35 17 -62 42t-44 61q-10 17 -16.5 40.5
q-4.02381 14.5476 -4.02381 33.5023q0 11.6644 1.52381 24.9977q1 9 4 18.5t7 18.5q12 29 31.5 57t51.5 46q14 8 28 11.5t32 3.5q19 -1 39 -7.5t37 -20.5q10 -8 16.5 -19.5t13.5 -22.5q5 -8 7.5 -17t0.5 -19q-3 -17 -16 -14q-6 0 -8.5 4t-4.5 9q-5 14 -10 28.5t-13 27.5
q-5 7 -13.5 15t-19.5 13.5t-23.5 8.5t-23.5 1q-42 -5 -72.5 -36t-40.5 -71q-8.22857 -29.4857 -8.22857 -57.7959q0 -12.9755 1.72857 -25.7041q5.5 -40.5 32.5 -78.5q20 -28 51 -50.5t69 -27.5q9.2 -0.8 17.92 -0.8q13.08 0 25.08 1.8q20 3 43 6q42 9 78 31.5t67.5 52
t60 63.5t55.5 66q16 24 32 46t31 48q1 2 0 4.5t-2 2.5q-25 8 -50 13q-20.8333 4.16667 -42.3611 4.16667q-4.30556 0 -8.63889 -0.166667q-13 -1 -21 -5.5t-16 -13.5q-5 -7 -7 -5t-2 9q3 11 12 15t17 7q12.8 3.2 25.6 3.2l6.4 -0.2q16 -1 31.5 -5t31.5 -7.5t34 -3.5
q5 0 11.5 9t13 21t12.5 24.5t10 18.5q35 60 71.5 119.5t72.5 126.5q4 9 8 17.5t8 17.5q3 12 14 7q13 -2 11 -14q-7 -38 -15 -76t-13 -77q-7 -49 -12.5 -98t-12.5 -100q-1 -10 -1 -20v-21q0 -2 2 -4t4 -2q16 0 31.5 2.5t29.5 11.5q4 2 6 5.5t5 6.5q5 2 8 -1t0 -8
q-9 -9 -18 -13.5t-18.5 -6.5t-20.5 -3t-23 -3q-3 0 -5 -3t-2 -5q0 -24 0.5 -51.5t4.5 -55.5t13 -54t26 -47q9 -11 19.5 -20t24.5 -14t25.5 2.5t16.5 21.5zM718 447q1 10 2.5 22.5t2.5 25.5t2.5 24t3.5 19q-6 -9 -12.5 -18.5t-12.5 -19.5q-6 -11 -12.5 -21t-12.5 -21
q-17 -28 -36.5 -62t-42.5 -58q23 -8 46 -15t50 -16q13 -5 13 9q-0.727273 11.6364 -0.727273 23.2727q0 20.3636 2.22727 40.7273q3.5 32 7.5 67zM713 766q-8 0 -6 9.5t9.5 22t18.5 23t22 11.5q17 1 29 -8t23 -19t23.5 -16.5t29.5 0.5q10 8 16 16.5t19 12.5q6 -2 7 -12
t-4 -22t-17 -22t-32 -11q-14 -1 -26.5 6.5t-24.5 17t-23 17t-20 6.5q-14 -2 -23.5 -13t-20.5 -19z" />
    <glyph glyph-name="Adieresis" unicode="&#xc4;" horiz-adv-x="939" 
d="M894 57q2 5 6.5 7.5t4.5 -7.5q-8 -16 -18 -29.5t-29 -17.5q-8.28571 -1.42857 -15.7551 -1.42857q-18.6735 0 -32.2449 8.92857q-19 12.5 -40 34.5q-23 29 -36 63.5t-19 71.5q-3 26 -5 50.5t-4 50.5q0 5 -3 6.5l-7 3.5q-22 7 -44 13.5t-44 14.5q-5 2 -9.5 2t-9.5 -7
q-5 -9 -11.5 -18t-13.5 -18q-38 -56 -79 -104.5t-89 -99.5q-15 -14 -34.5 -28t-39.5 -23q-26 -11 -51.5 -19.5t-53.5 -10.5q-7.66667 -0.666667 -15.4444 -0.666667q-15.5556 0 -31.5556 2.66667q-24 4 -46 12q-35 17 -62 42t-44 61q-10 17 -16.5 40.5
q-4.02381 14.5476 -4.02381 33.5023q0 11.6644 1.52381 24.9977q1 9 4 18.5t7 18.5q12 29 31.5 57t51.5 46q14 8 28 11.5t32 3.5q19 -1 39 -7.5t37 -20.5q10 -8 16.5 -19.5t13.5 -22.5q5 -8 7.5 -17t0.5 -19q-3 -17 -16 -14q-6 0 -8.5 4t-4.5 9q-5 14 -10 28.5t-13 27.5
q-5 7 -13.5 15t-19.5 13.5t-23.5 8.5t-23.5 1q-42 -5 -72.5 -36t-40.5 -71q-8.22857 -29.4857 -8.22857 -57.7959q0 -12.9755 1.72857 -25.7041q5.5 -40.5 32.5 -78.5q20 -28 51 -50.5t69 -27.5q9.2 -0.8 17.92 -0.8q13.08 0 25.08 1.8q20 3 43 6q42 9 78 31.5t67.5 52
t60 63.5t55.5 66q16 24 32 46t31 48q1 2 0 4.5t-2 2.5q-25 8 -50 13q-20.8333 4.16667 -42.3611 4.16667q-4.30556 0 -8.63889 -0.166667q-13 -1 -21 -5.5t-16 -13.5q-5 -7 -7 -5t-2 9q3 11 12 15t17 7q12.8 3.2 25.6 3.2l6.4 -0.2q16 -1 31.5 -5t31.5 -7.5t34 -3.5
q5 0 11.5 9t13 21t12.5 24.5t10 18.5q35 60 71.5 119.5t72.5 126.5q4 9 8 17.5t8 17.5q3 12 14 7q13 -2 11 -14q-7 -38 -15 -76t-13 -77q-7 -49 -12.5 -98t-12.5 -100q-1 -10 -1 -20v-21q0 -2 2 -4t4 -2q16 0 31.5 2.5t29.5 11.5q4 2 6 5.5t5 6.5q5 2 8 -1t0 -8
q-9 -9 -18 -13.5t-18.5 -6.5t-20.5 -3t-23 -3q-3 0 -5 -3t-2 -5q0 -24 0.5 -51.5t4.5 -55.5t13 -54t26 -47q9 -11 19.5 -20t24.5 -14t25.5 2.5t16.5 21.5zM718 447q1 10 2.5 22.5t2.5 25.5t2.5 24t3.5 19q-6 -9 -12.5 -18.5t-12.5 -19.5q-6 -11 -12.5 -21t-12.5 -21
q-17 -28 -36.5 -62t-42.5 -58q23 -8 46 -15t50 -16q13 -5 13 9q-0.727273 11.6364 -0.727273 23.2727q0 20.3636 2.22727 40.7273q3.5 32 7.5 67zM771 804q10 -12 7.5 -24t-11 -19t-20.5 -7t-21 12q-8 11 -5 21.5t11 16.5t19 6.5t20 -6.5zM883 801q8 -9 7.5 -20.5t-7 -19.5
t-16.5 -10.5t-22 5.5q-12 9 -12 20.5t7 20.5t19 11.5t24 -7.5z" />
    <glyph glyph-name="Aring" unicode="&#xc5;" horiz-adv-x="939" 
d="M894 57q2 5 6.5 7.5t4.5 -7.5q-8 -16 -18 -29.5t-29 -17.5q-8.28571 -1.42857 -15.7551 -1.42857q-18.6735 0 -32.2449 8.92857q-19 12.5 -40 34.5q-23 29 -36 63.5t-19 71.5q-3 26 -5 50.5t-4 50.5q0 5 -3 6.5l-7 3.5q-22 7 -44 13.5t-44 14.5q-5 2 -9.5 2t-9.5 -7
q-5 -9 -11.5 -18t-13.5 -18q-38 -56 -79 -104.5t-89 -99.5q-15 -14 -34.5 -28t-39.5 -23q-26 -11 -51.5 -19.5t-53.5 -10.5q-7.66667 -0.666667 -15.4444 -0.666667q-15.5556 0 -31.5556 2.66667q-24 4 -46 12q-35 17 -62 42t-44 61q-10 17 -16.5 40.5
q-4.02381 14.5476 -4.02381 33.5023q0 11.6644 1.52381 24.9977q1 9 4 18.5t7 18.5q12 29 31.5 57t51.5 46q14 8 28 11.5t32 3.5q19 -1 39 -7.5t37 -20.5q10 -8 16.5 -19.5t13.5 -22.5q5 -8 7.5 -17t0.5 -19q-3 -17 -16 -14q-6 0 -8.5 4t-4.5 9q-5 14 -10 28.5t-13 27.5
q-5 7 -13.5 15t-19.5 13.5t-23.5 8.5t-23.5 1q-42 -5 -72.5 -36t-40.5 -71q-8.22857 -29.4857 -8.22857 -57.7959q0 -12.9755 1.72857 -25.7041q5.5 -40.5 32.5 -78.5q20 -28 51 -50.5t69 -27.5q9.2 -0.8 17.92 -0.8q13.08 0 25.08 1.8q20 3 43 6q42 9 78 31.5t67.5 52
t60 63.5t55.5 66q16 24 32 46t31 48q1 2 0 4.5t-2 2.5q-25 8 -50 13q-20.8333 4.16667 -42.3611 4.16667q-4.30556 0 -8.63889 -0.166667q-13 -1 -21 -5.5t-16 -13.5q-5 -7 -7 -5t-2 9q3 11 12 15t17 7q12.8 3.2 25.6 3.2l6.4 -0.2q16 -1 31.5 -5t31.5 -7.5t34 -3.5
q5 0 11.5 9t13 21t12.5 24.5t10 18.5q35 60 71.5 119.5t72.5 126.5q4 9 8 17.5t8 17.5q3 12 14 7q13 -2 11 -14q-7 -38 -15 -76t-13 -77q-7 -49 -12.5 -98t-12.5 -100q-1 -10 -1 -20v-21q0 -2 2 -4t4 -2q16 0 31.5 2.5t29.5 11.5q4 2 6 5.5t5 6.5q5 2 8 -1t0 -8
q-9 -9 -18 -13.5t-18.5 -6.5t-20.5 -3t-23 -3q-3 0 -5 -3t-2 -5q0 -24 0.5 -51.5t4.5 -55.5t13 -54t26 -47q9 -11 19.5 -20t24.5 -14t25.5 2.5t16.5 21.5zM718 447q1 10 2.5 22.5t2.5 25.5t2.5 24t3.5 19q-6 -9 -12.5 -18.5t-12.5 -19.5q-6 -11 -12.5 -21t-12.5 -21
q-17 -28 -36.5 -62t-42.5 -58q23 -8 46 -15t50 -16q13 -5 13 9q-0.727273 11.6364 -0.727273 23.2727q0 20.3636 2.22727 40.7273q3.5 32 7.5 67zM799 871q35 -1 51 -20.5q17.08 -20.8162 17.08 -45.5712q0 -20.3688 -10.58 -36.9288q-10.35 -16.2 -27.585 -16.2
q-1.915 0 -3.915 0.2q-30 2 -50.5 18.5t-26.5 37q-2.05714 7.02857 -2.05714 13.822q0 13.0208 7.55714 25.178q11.5 18.5 45.5 24.5zM829 778q6 1 10.5 10.5t3.5 20.5t-9.5 21.5t-29.5 15.5q-23 -4 -29.5 -17t-0.5 -26t21 -21.5q9.44444 -5.35185 20.4746 -5.35185
q6.48834 0 13.5254 1.85185z" />
    <glyph glyph-name="Ccedilla" unicode="&#xc7;" horiz-adv-x="554" 
d="M387 44q29 20 45.5 39t25.5 48q5 11 8.5 22.5t13.5 16.5q9 7 15 -1q5 -5 4 -11.5t-4 -12.5q-4 -13 -9.5 -24.5t-12.5 -24.5q-6 -12 -15.5 -21t-17.5 -18q-20 -18 -43.5 -31t-50.5 -19q-26.4 -6.4 -52.16 -6.4q-6.44 0 -12.84 0.4q-4 -9 -9 -17q6 1 13 2t10 -6
q6.89655 -14.4828 6.89655 -27.3008q0 -5.76813 -1.39655 -11.1992q-4.5 -17.5 -14.5 -29t-22 -14.5t-18 4q-3 3 -6.5 8t-5 9t-0.5 6t8 0q10 -3 21.5 0.5t19 10t8.5 16t-9 18.5q-3 3 -6.5 2t-7.5 -3.5l-8 -5t-8 -2.5q-5 2 -7.5 4t-0.5 7q8 17 13.5 21.5t9.5 9.5q-16 1 -34 8
q-26 7 -48.5 20.5t-41.5 31.5q-21 19 -37 43.5t-26.5 52t-15.5 55.5q-4.16667 23.3333 -4.16667 45.2778q0 4.38889 0.166667 8.72222q1 30 7.5 58.5t14.5 58.5q3 8 0.5 11t-10.5 7q-19 9 -33 25.5t-23 36t-11.5 40.5q-1.13636 9.54545 -1.13636 18.6777
q0 10.9587 1.63636 21.3223q1 8 8 26.5t17.5 37t23 32t25.5 10.5q5 -1 6.5 -5.5t-0.5 -9.5q-3 -5 -8 -9.5t-10 -9.5q-25 -29 -38.5 -60q-8.47674 -19.4651 -8.47674 -41.6901q0 -13.1704 2.97674 -27.3099q5 -26 20 -47.5t38 -32.5q4 -2 7.5 3t6.5 12.5t5.5 14.5t3.5 10
q18 45 42.5 82t57.5 66q22 21 44 38t48 31q27 12 55 20t59 12q8.44444 0.888889 17.284 0.888889q11.0494 0 22.716 -1.38889q21 -2.5 41 -9.5t37.5 -18t28.5 -25q16 -23 22 -48q3.27273 -14.1818 3.27273 -28.6612q0 -12.0661 -2.27273 -24.3388q-5 -27 -18 -51.5
t-32.5 -44.5t-42.5 -32q-12 -7 -28.5 -12t-33 -5.5q-1.65 -0.05 -3.285 -0.05q-14.715 0 -28.215 4.05q-15 4.5 -24 17.5q-6 9 -8 17.5t-5 18.5q-19 -11 -35.5 -24.5t-34.5 -23.5q-27 -14 -58.5 -23t-59.5 -9q-11 1 -14.5 0.5t-6.5 -11.5q-10 -42 -15 -86
q-1.63636 -24 -1.63636 -48.2975q0 -20.2479 1.13636 -40.7025q2.5 -45 20.5 -82q17 -39 50 -59q45 -26 93.5 -28.5q4.11017 -0.211864 8.17366 -0.211864q43.8857 0 82.3263 24.7119zM511 466q7 9 15 21t15 24.5t12.5 25.5t6.5 23q2.94118 12.9412 2.94118 26.4014
q0 9.42215 -1.44118 19.0986q-3.5 23.5 -20.5 39.5q-19 18 -45.5 26.5t-49.5 8.5q-29 -2 -55 -13.5t-51 -25.5q-54 -32 -91.5 -78t-64.5 -99q-6 -13 -11.5 -26.5t-10.5 -27.5l-4.5 -9t0.5 -10q5 -5 23 -2.5t39 7.5t39.5 11.5t24.5 9.5q7 4 19 11.5t24 16t21 17.5t11 16
q1 3 2 9.5t3.5 13t6 10.5t8.5 3q7 -2 7.5 -7t-2 -11t-6.5 -12t-5 -9q-5.37778 -12.7111 -5.37778 -24.1077q0 -11.9146 5.87778 -22.3923q11.5 -20.5 39.5 -20.5q9 0 23 6t28 15t26.5 19t20.5 18z" />
    <glyph glyph-name="Egrave" unicode="&#xc8;" horiz-adv-x="471" 
d="M144 598q15 33 40 57.5t59 35.5q22 7 46 10q10.2857 1.28571 20.5714 1.28571l27.4286 -2.28571q24 -4 45.5 -14.5t38.5 -28.5q15 -17 22 -37q6.125 -17.5 6.125 -35.7656q0 -2.60938 -0.125 -5.23438q-1 -21 -9.5 -41.5t-23.5 -36.5q-14 -16 -30 -25q-9 -5 -21 -9.5
t-23 -2.5q-23 4 -30.5 24.5q-4.16667 11.3889 -4.16667 22.6235q0 8.98765 2.66667 17.8765q2 8 7.5 19.5t13.5 15.5q12 5 13.5 -2.5t-3.5 -15.5q-6 -10 -10.5 -18t-5.5 -20q-1 -11 2 -19t14 -12q10 -4 20 -1t19 7q11 5 19.5 14t15.5 18q14 18 22 40.5
q5.33333 15 5.33333 30.2222q0 7.61111 -1.33333 15.2778q-5 24 -19 39t-33 24t-41 11.5q-12.2222 1.38889 -24.1358 1.38889q-9.53086 0 -18.8642 -0.888889q-21 -2 -42.5 -12.5t-38.5 -24.5q-17 -15 -31 -39.5t-18 -44.5q-3.33333 -15.3333 -3.33333 -31.1111
q0 -7.88889 0.833333 -15.8889q2.5 -24 14.5 -46q9 -16 16 -23.5t13.5 -11.5t12.5 -7.5t14 -12.5q6 -8 1 -15q-3 -3 -11.5 -5t-18 -3.5l-19 -3t-14.5 -4.5q-27 -15 -45.5 -31t-30.5 -34t-19.5 -39.5t-11.5 -46.5q-2 -13 -2.5 -25.5t0.5 -25.5q2 -25 10 -48t23 -41
q8 -10 22.5 -24t34.5 -25t45.5 -15.5q8.5 -1.5 17.5 -1.5q18 0 38 6q24 9 41.5 19t36.5 27q18 13 31.5 33.5t20.5 43q6.125 19.6875 6.125 39.7578q0 2.86719 -0.125 5.74219q-1 23 -13 43q-11 21 -32.5 25q-7.16667 1.33333 -14.1667 1.33333q-14 0 -27.3333 -5.33333
q-5 -2 -8 -2.5t-7 3.5t-0.5 8.5t9.5 8.5t12.5 6.5t9.5 2.5q7.77778 1.85185 14.8011 1.85185q11.9396 0 21.6989 -5.35185q15.5 -8.5 26.5 -25.5q10 -15 14 -33t4 -37t-4.5 -36.5t-11.5 -32.5q-14 -32 -39.5 -56.5t-56.5 -37.5q-25 -10 -49.5 -16.5t-51.5 -6.5q-53 0 -95 24
q-20 12 -38 27.5t-30 35.5q-8 12 -15.5 29t-12.5 35t-6.5 35t1.5 30l4 24t7 24q9 21 21.5 40t30.5 33q16 13 31.5 24t33.5 19q20 8 40 13t37 14q-11 18 -25.5 32t-25.5 32q-10 20 -15 40.5q-3.57143 14.6429 -3.57143 30.5612q0 6.36735 0.571429 12.9388q2 14 3 24t5 20z
M240 856q-3 10 2.5 18.5t14.5 13t18.5 3.5t15.5 -10q11 -24 24 -44t23 -45q2 -18 -7.5 -22t-21.5 10q-7 9 -17 17.5t-19.5 17.5t-18.5 19t-14 22z" />
    <glyph glyph-name="Eacute" unicode="&#xc9;" horiz-adv-x="471" 
d="M144 598q15 33 40 57.5t59 35.5q22 7 46 10q10.2857 1.28571 20.5714 1.28571l27.4286 -2.28571q24 -4 45.5 -14.5t38.5 -28.5q15 -17 22 -37q6.125 -17.5 6.125 -35.7656q0 -2.60938 -0.125 -5.23438q-1 -21 -9.5 -41.5t-23.5 -36.5q-14 -16 -30 -25q-9 -5 -21 -9.5
t-23 -2.5q-23 4 -30.5 24.5q-4.16667 11.3889 -4.16667 22.6235q0 8.98765 2.66667 17.8765q2 8 7.5 19.5t13.5 15.5q12 5 13.5 -2.5t-3.5 -15.5q-6 -10 -10.5 -18t-5.5 -20q-1 -11 2 -19t14 -12q10 -4 20 -1t19 7q11 5 19.5 14t15.5 18q14 18 22 40.5
q5.33333 15 5.33333 30.2222q0 7.61111 -1.33333 15.2778q-5 24 -19 39t-33 24t-41 11.5q-12.2222 1.38889 -24.1358 1.38889q-9.53086 0 -18.8642 -0.888889q-21 -2 -42.5 -12.5t-38.5 -24.5q-17 -15 -31 -39.5t-18 -44.5q-3.33333 -15.3333 -3.33333 -31.1111
q0 -7.88889 0.833333 -15.8889q2.5 -24 14.5 -46q9 -16 16 -23.5t13.5 -11.5t12.5 -7.5t14 -12.5q6 -8 1 -15q-3 -3 -11.5 -5t-18 -3.5l-19 -3t-14.5 -4.5q-27 -15 -45.5 -31t-30.5 -34t-19.5 -39.5t-11.5 -46.5q-2 -13 -2.5 -25.5t0.5 -25.5q2 -25 10 -48t23 -41
q8 -10 22.5 -24t34.5 -25t45.5 -15.5q8.5 -1.5 17.5 -1.5q18 0 38 6q24 9 41.5 19t36.5 27q18 13 31.5 33.5t20.5 43q6.125 19.6875 6.125 39.7578q0 2.86719 -0.125 5.74219q-1 23 -13 43q-11 21 -32.5 25q-7.16667 1.33333 -14.1667 1.33333q-14 0 -27.3333 -5.33333
q-5 -2 -8 -2.5t-7 3.5t-0.5 8.5t9.5 8.5t12.5 6.5t9.5 2.5q7.77778 1.85185 14.8011 1.85185q11.9396 0 21.6989 -5.35185q15.5 -8.5 26.5 -25.5q10 -15 14 -33t4 -37t-4.5 -36.5t-11.5 -32.5q-14 -32 -39.5 -56.5t-56.5 -37.5q-25 -10 -49.5 -16.5t-51.5 -6.5q-53 0 -95 24
q-20 12 -38 27.5t-30 35.5q-8 12 -15.5 29t-12.5 35t-6.5 35t1.5 30l4 24t7 24q9 21 21.5 40t30.5 33q16 13 31.5 24t33.5 19q20 8 40 13t37 14q-11 18 -25.5 32t-25.5 32q-10 20 -15 40.5q-3.57143 14.6429 -3.57143 30.5612q0 6.36735 0.571429 12.9388q2 14 3 24t5 20z
M334 856q-5 -12 -14 -22t-18.5 -19t-19.5 -17.5t-17 -17.5q-12 -14 -21.5 -10t-7.5 22q10 25 23 45t24 44q6 9 15.5 10t18.5 -3.5t14.5 -13t2.5 -18.5z" />
    <glyph glyph-name="Ecircumflex" unicode="&#xca;" horiz-adv-x="471" 
d="M144 598q15 33 40 57.5t59 35.5q22 7 46 10q10.2857 1.28571 20.5714 1.28571l27.4286 -2.28571q24 -4 45.5 -14.5t38.5 -28.5q15 -17 22 -37q6.125 -17.5 6.125 -35.7656q0 -2.60938 -0.125 -5.23438q-1 -21 -9.5 -41.5t-23.5 -36.5q-14 -16 -30 -25q-9 -5 -21 -9.5
t-23 -2.5q-23 4 -30.5 24.5q-4.16667 11.3889 -4.16667 22.6235q0 8.98765 2.66667 17.8765q2 8 7.5 19.5t13.5 15.5q12 5 13.5 -2.5t-3.5 -15.5q-6 -10 -10.5 -18t-5.5 -20q-1 -11 2 -19t14 -12q10 -4 20 -1t19 7q11 5 19.5 14t15.5 18q14 18 22 40.5
q5.33333 15 5.33333 30.2222q0 7.61111 -1.33333 15.2778q-5 24 -19 39t-33 24t-41 11.5q-12.2222 1.38889 -24.1358 1.38889q-9.53086 0 -18.8642 -0.888889q-21 -2 -42.5 -12.5t-38.5 -24.5q-17 -15 -31 -39.5t-18 -44.5q-3.33333 -15.3333 -3.33333 -31.1111
q0 -7.88889 0.833333 -15.8889q2.5 -24 14.5 -46q9 -16 16 -23.5t13.5 -11.5t12.5 -7.5t14 -12.5q6 -8 1 -15q-3 -3 -11.5 -5t-18 -3.5l-19 -3t-14.5 -4.5q-27 -15 -45.5 -31t-30.5 -34t-19.5 -39.5t-11.5 -46.5q-2 -13 -2.5 -25.5t0.5 -25.5q2 -25 10 -48t23 -41
q8 -10 22.5 -24t34.5 -25t45.5 -15.5q8.5 -1.5 17.5 -1.5q18 0 38 6q24 9 41.5 19t36.5 27q18 13 31.5 33.5t20.5 43q6.125 19.6875 6.125 39.7578q0 2.86719 -0.125 5.74219q-1 23 -13 43q-11 21 -32.5 25q-7.16667 1.33333 -14.1667 1.33333q-14 0 -27.3333 -5.33333
q-5 -2 -8 -2.5t-7 3.5t-0.5 8.5t9.5 8.5t12.5 6.5t9.5 2.5q7.77778 1.85185 14.8011 1.85185q11.9396 0 21.6989 -5.35185q15.5 -8.5 26.5 -25.5q10 -15 14 -33t4 -37t-4.5 -36.5t-11.5 -32.5q-14 -32 -39.5 -56.5t-56.5 -37.5q-25 -10 -49.5 -16.5t-51.5 -6.5q-53 0 -95 24
q-20 12 -38 27.5t-30 35.5q-8 12 -15.5 29t-12.5 35t-6.5 35t1.5 30l4 24t7 24q9 21 21.5 40t30.5 33q16 13 31.5 24t33.5 19q20 8 40 13t37 14q-11 18 -25.5 32t-25.5 32q-10 20 -15 40.5q-3.57143 14.6429 -3.57143 30.5612q0 6.36735 0.571429 12.9388q2 14 3 24t5 20z
M269 753q-11 -7 -15.5 -2t6.5 13q7 6 16 14t31 28q15 13 22.5 11.5t13.5 -10.5t13 -20.5t22 -17.5q10 -8 7.5 -12.5t-13.5 -2.5q-10 4 -19.5 10.5t-26.5 19.5q-14 -10 -23 -15t-15.5 -8t-10.5 -4t-8 -4z" />
    <glyph glyph-name="Edieresis" unicode="&#xcb;" horiz-adv-x="471" 
d="M144 598q15 33 40 57.5t59 35.5q22 7 46 10q10.2857 1.28571 20.5714 1.28571l27.4286 -2.28571q24 -4 45.5 -14.5t38.5 -28.5q15 -17 22 -37q6.125 -17.5 6.125 -35.7656q0 -2.60938 -0.125 -5.23438q-1 -21 -9.5 -41.5t-23.5 -36.5q-14 -16 -30 -25q-9 -5 -21 -9.5
t-23 -2.5q-23 4 -30.5 24.5q-4.16667 11.3889 -4.16667 22.6235q0 8.98765 2.66667 17.8765q2 8 7.5 19.5t13.5 15.5q12 5 13.5 -2.5t-3.5 -15.5q-6 -10 -10.5 -18t-5.5 -20q-1 -11 2 -19t14 -12q10 -4 20 -1t19 7q11 5 19.5 14t15.5 18q14 18 22 40.5
q5.33333 15 5.33333 30.2222q0 7.61111 -1.33333 15.2778q-5 24 -19 39t-33 24t-41 11.5q-12.2222 1.38889 -24.1358 1.38889q-9.53086 0 -18.8642 -0.888889q-21 -2 -42.5 -12.5t-38.5 -24.5q-17 -15 -31 -39.5t-18 -44.5q-3.33333 -15.3333 -3.33333 -31.1111
q0 -7.88889 0.833333 -15.8889q2.5 -24 14.5 -46q9 -16 16 -23.5t13.5 -11.5t12.5 -7.5t14 -12.5q6 -8 1 -15q-3 -3 -11.5 -5t-18 -3.5l-19 -3t-14.5 -4.5q-27 -15 -45.5 -31t-30.5 -34t-19.5 -39.5t-11.5 -46.5q-2 -13 -2.5 -25.5t0.5 -25.5q2 -25 10 -48t23 -41
q8 -10 22.5 -24t34.5 -25t45.5 -15.5q8.5 -1.5 17.5 -1.5q18 0 38 6q24 9 41.5 19t36.5 27q18 13 31.5 33.5t20.5 43q6.125 19.6875 6.125 39.7578q0 2.86719 -0.125 5.74219q-1 23 -13 43q-11 21 -32.5 25q-7.16667 1.33333 -14.1667 1.33333q-14 0 -27.3333 -5.33333
q-5 -2 -8 -2.5t-7 3.5t-0.5 8.5t9.5 8.5t12.5 6.5t9.5 2.5q7.77778 1.85185 14.8011 1.85185q11.9396 0 21.6989 -5.35185q15.5 -8.5 26.5 -25.5q10 -15 14 -33t4 -37t-4.5 -36.5t-11.5 -32.5q-14 -32 -39.5 -56.5t-56.5 -37.5q-25 -10 -49.5 -16.5t-51.5 -6.5q-53 0 -95 24
q-20 12 -38 27.5t-30 35.5q-8 12 -15.5 29t-12.5 35t-6.5 35t1.5 30l4 24t7 24q9 21 21.5 40t30.5 33q16 13 31.5 24t33.5 19q20 8 40 13t37 14q-11 18 -25.5 32t-25.5 32q-10 20 -15 40.5q-3.57143 14.6429 -3.57143 30.5612q0 6.36735 0.571429 12.9388q2 14 3 24t5 20z
M279 804q10 -12 7.5 -24t-11 -19t-20.5 -7t-21 12q-8 11 -5 21.5t11 16.5t19 6.5t20 -6.5zM391 801q8 -9 7.5 -20.5t-7 -19.5t-16.5 -10.5t-22 5.5q-12 9 -12 20.5t7 20.5t19 11.5t24 -7.5z" />
    <glyph glyph-name="Igrave" unicode="&#xcc;" horiz-adv-x="482" 
d="M49 303q21 18 48.5 27.5q14.9286 5.15714 30.0045 5.15714q12.6955 0 25.4955 -3.65714q14 -4 25 -7.5t22 -12.5t19 -20t12 -24q4 -14 1.5 -26.5t-5.5 -24.5q-2 -5 -4.5 -12.5t-7 -14t-10.5 -10t-13 -1.5q-5 1 -4 6.5t4 11.5t7 12t6 8q7 13 11 26.5t1 27.5q-4 14 -13 24
t-21.5 17t-26.5 10t-27 3q-32 0 -56 -16t-40 -41t-22 -55q-3.27273 -16.3636 -3.27273 -32.1322q0 -13.1405 2.27273 -25.8678q5 -30 21 -56t39.5 -43.5t52 -25.5q17.5385 -4.92308 36.0237 -4.92308q11.5533 0 23.4763 1.92308q14 3 28 6.5t26 11.5t23.5 17t21.5 20
q20 20 32 45t21 51q45 120 72 250q8 33 16 65.5t15 65.5q6 30 15 61q1 3 3.5 9t4 12t1 10.5t-6.5 4.5q-9.71429 0.285714 -19.4286 0.285714l-48.5714 -1.78571q-34 -2.5 -67 -4.5q-33 -3 -65 -7t-63 -16q-26 -9 -47 -19t-32 -37q-4 -11 -4 -23.5t4.5 -23.5t13 -19.5
t21.5 -10.5q11 -2 21 0t18 9q6 5 11 10t11 10q7 5 12 5.5t8 -7.5q5 -14 -4.5 -22t-19.5 -13q-13 -8 -25.5 -11.5t-28.5 0.5q-29 7 -43 29q-10.3158 16.2105 -10.3158 36.2216q0 7.14681 1.31579 14.7784q5 29 24.5 47t45.5 29q30 12 62 17.5t64 10.5q35 3 68.5 4t66.5 4
q10 1 23.5 -0.5t19.5 10.5q6 14 13 26.5t17 24.5q16 21 39 35.5q21.5161 13.5645 47.4079 13.5645q1.78564 0 3.59209 -0.0645161q27 -2 46 -19q4 -3 9 -8t4 -11q0 -14 -3 -27q-4 -15 -13.5 -24t-22 -14t-26.5 -7.5t-27 -3.5q-8 -2 -16.5 -2.5t-16.5 -1.5q-13 0 -15 -8
q-4 -15 -7 -30.5t-6 -30.5q-6 -34 -12 -64.5t-14 -61.5q-7 -30 -13 -60t-14 -59q-4 -14 -7.5 -29t-8.5 -29t-10.5 -28t-10.5 -28q-10 -29 -22.5 -55.5t-28.5 -52.5q-15 -24 -32.5 -45.5t-40.5 -38.5q-45 -32 -101 -35q-5.25 -0.28125 -10.4297 -0.28125
q-50.0703 0 -93.5703 26.2812q-46 29 -66 81q-5 12 -8 25t-5 26q-1 7 -2 13t-1 13q0 19 5.5 37t13.5 33.5t17 27t16 17.5zM581 676q11 2 21 4t18 10q6 6 12 14t8 17t0.5 17.5t-10.5 14.5q-13 9.38889 -28.8688 9.38889q-6.1034 0 -12.6312 -1.38889q-23.5 -5 -38.5 -19
q-14 -14 -20.5 -33t-10.5 -38zM378 856q-3 10 2.5 18.5t14.5 13t18.5 3.5t15.5 -10q11 -24 24 -44t23 -45q2 -18 -7.5 -22t-21.5 10q-7 9 -17 17.5t-19.5 17.5t-18.5 19t-14 22z" />
    <glyph glyph-name="Iacute" unicode="&#xcd;" horiz-adv-x="482" 
d="M49 303q21 18 48.5 27.5q14.9286 5.15714 30.0045 5.15714q12.6955 0 25.4955 -3.65714q14 -4 25 -7.5t22 -12.5t19 -20t12 -24q4 -14 1.5 -26.5t-5.5 -24.5q-2 -5 -4.5 -12.5t-7 -14t-10.5 -10t-13 -1.5q-5 1 -4 6.5t4 11.5t7 12t6 8q7 13 11 26.5t1 27.5q-4 14 -13 24
t-21.5 17t-26.5 10t-27 3q-32 0 -56 -16t-40 -41t-22 -55q-3.27273 -16.3636 -3.27273 -32.1322q0 -13.1405 2.27273 -25.8678q5 -30 21 -56t39.5 -43.5t52 -25.5q17.5385 -4.92308 36.0237 -4.92308q11.5533 0 23.4763 1.92308q14 3 28 6.5t26 11.5t23.5 17t21.5 20
q20 20 32 45t21 51q45 120 72 250q8 33 16 65.5t15 65.5q6 30 15 61q1 3 3.5 9t4 12t1 10.5t-6.5 4.5q-9.71429 0.285714 -19.4286 0.285714l-48.5714 -1.78571q-34 -2.5 -67 -4.5q-33 -3 -65 -7t-63 -16q-26 -9 -47 -19t-32 -37q-4 -11 -4 -23.5t4.5 -23.5t13 -19.5
t21.5 -10.5q11 -2 21 0t18 9q6 5 11 10t11 10q7 5 12 5.5t8 -7.5q5 -14 -4.5 -22t-19.5 -13q-13 -8 -25.5 -11.5t-28.5 0.5q-29 7 -43 29q-10.3158 16.2105 -10.3158 36.2216q0 7.14681 1.31579 14.7784q5 29 24.5 47t45.5 29q30 12 62 17.5t64 10.5q35 3 68.5 4t66.5 4
q10 1 23.5 -0.5t19.5 10.5q6 14 13 26.5t17 24.5q16 21 39 35.5q21.5161 13.5645 47.4079 13.5645q1.78564 0 3.59209 -0.0645161q27 -2 46 -19q4 -3 9 -8t4 -11q0 -14 -3 -27q-4 -15 -13.5 -24t-22 -14t-26.5 -7.5t-27 -3.5q-8 -2 -16.5 -2.5t-16.5 -1.5q-13 0 -15 -8
q-4 -15 -7 -30.5t-6 -30.5q-6 -34 -12 -64.5t-14 -61.5q-7 -30 -13 -60t-14 -59q-4 -14 -7.5 -29t-8.5 -29t-10.5 -28t-10.5 -28q-10 -29 -22.5 -55.5t-28.5 -52.5q-15 -24 -32.5 -45.5t-40.5 -38.5q-45 -32 -101 -35q-5.25 -0.28125 -10.4297 -0.28125
q-50.0703 0 -93.5703 26.2812q-46 29 -66 81q-5 12 -8 25t-5 26q-1 7 -2 13t-1 13q0 19 5.5 37t13.5 33.5t17 27t16 17.5zM581 676q11 2 21 4t18 10q6 6 12 14t8 17t0.5 17.5t-10.5 14.5q-13 9.38889 -28.8688 9.38889q-6.1034 0 -12.6312 -1.38889q-23.5 -5 -38.5 -19
q-14 -14 -20.5 -33t-10.5 -38zM472 856q-5 -12 -14 -22t-18.5 -19t-19.5 -17.5t-17 -17.5q-12 -14 -21.5 -10t-7.5 22q10 25 23 45t24 44q6 9 15.5 10t18.5 -3.5t14.5 -13t2.5 -18.5z" />
    <glyph glyph-name="Icircumflex" unicode="&#xce;" horiz-adv-x="482" 
d="M49 303q21 18 48.5 27.5q14.9286 5.15714 30.0045 5.15714q12.6955 0 25.4955 -3.65714q14 -4 25 -7.5t22 -12.5t19 -20t12 -24q4 -14 1.5 -26.5t-5.5 -24.5q-2 -5 -4.5 -12.5t-7 -14t-10.5 -10t-13 -1.5q-5 1 -4 6.5t4 11.5t7 12t6 8q7 13 11 26.5t1 27.5q-4 14 -13 24
t-21.5 17t-26.5 10t-27 3q-32 0 -56 -16t-40 -41t-22 -55q-3.27273 -16.3636 -3.27273 -32.1322q0 -13.1405 2.27273 -25.8678q5 -30 21 -56t39.5 -43.5t52 -25.5q17.5385 -4.92308 36.0237 -4.92308q11.5533 0 23.4763 1.92308q14 3 28 6.5t26 11.5t23.5 17t21.5 20
q20 20 32 45t21 51q45 120 72 250q8 33 16 65.5t15 65.5q6 30 15 61q1 3 3.5 9t4 12t1 10.5t-6.5 4.5q-9.71429 0.285714 -19.4286 0.285714l-48.5714 -1.78571q-34 -2.5 -67 -4.5q-33 -3 -65 -7t-63 -16q-26 -9 -47 -19t-32 -37q-4 -11 -4 -23.5t4.5 -23.5t13 -19.5
t21.5 -10.5q11 -2 21 0t18 9q6 5 11 10t11 10q7 5 12 5.5t8 -7.5q5 -14 -4.5 -22t-19.5 -13q-13 -8 -25.5 -11.5t-28.5 0.5q-29 7 -43 29q-10.3158 16.2105 -10.3158 36.2216q0 7.14681 1.31579 14.7784q5 29 24.5 47t45.5 29q30 12 62 17.5t64 10.5q35 3 68.5 4t66.5 4
q10 1 23.5 -0.5t19.5 10.5q6 14 13 26.5t17 24.5q16 21 39 35.5q21.5161 13.5645 47.4079 13.5645q1.78564 0 3.59209 -0.0645161q27 -2 46 -19q4 -3 9 -8t4 -11q0 -14 -3 -27q-4 -15 -13.5 -24t-22 -14t-26.5 -7.5t-27 -3.5q-8 -2 -16.5 -2.5t-16.5 -1.5q-13 0 -15 -8
q-4 -15 -7 -30.5t-6 -30.5q-6 -34 -12 -64.5t-14 -61.5q-7 -30 -13 -60t-14 -59q-4 -14 -7.5 -29t-8.5 -29t-10.5 -28t-10.5 -28q-10 -29 -22.5 -55.5t-28.5 -52.5q-15 -24 -32.5 -45.5t-40.5 -38.5q-45 -32 -101 -35q-5.25 -0.28125 -10.4297 -0.28125
q-50.0703 0 -93.5703 26.2812q-46 29 -66 81q-5 12 -8 25t-5 26q-1 7 -2 13t-1 13q0 19 5.5 37t13.5 33.5t17 27t16 17.5zM581 676q11 2 21 4t18 10q6 6 12 14t8 17t0.5 17.5t-10.5 14.5q-13 9.38889 -28.8688 9.38889q-6.1034 0 -12.6312 -1.38889q-23.5 -5 -38.5 -19
q-14 -14 -20.5 -33t-10.5 -38zM355 753q-11 -7 -15.5 -2t6.5 13q7 6 16 14t31 28q15 13 22.5 11.5t13.5 -10.5t13 -20.5t22 -17.5q10 -8 7.5 -12.5t-13.5 -2.5q-10 4 -19.5 10.5t-26.5 19.5q-14 -10 -23 -15t-15.5 -8t-10.5 -4t-8 -4z" />
    <glyph glyph-name="Idieresis" unicode="&#xcf;" horiz-adv-x="482" 
d="M368 804q10 -12 7.5 -24t-11 -19t-20.5 -7t-21 12q-8 11 -5 21.5t11 16.5t19 6.5t20 -6.5zM480 801q8 -9 7.5 -20.5t-7 -19.5t-16.5 -10.5t-22 5.5q-12 9 -12 20.5t7 20.5t19 11.5t24 -7.5zM49 303q21 18 48.5 27.5q14.9286 5.15714 30.0045 5.15714
q12.6955 0 25.4955 -3.65714q14 -4 25 -7.5t22 -12.5t19 -20t12 -24q4 -14 1.5 -26.5t-5.5 -24.5q-2 -5 -4.5 -12.5t-7 -14t-10.5 -10t-13 -1.5q-5 1 -4 6.5t4 11.5t7 12t6 8q7 13 11 26.5t1 27.5q-4 14 -13 24t-21.5 17t-26.5 10t-27 3q-32 0 -56 -16t-40 -41t-22 -55
q-3.27273 -16.3636 -3.27273 -32.1322q0 -13.1405 2.27273 -25.8678q5 -30 21 -56t39.5 -43.5t52 -25.5q17.5385 -4.92308 36.0237 -4.92308q11.5533 0 23.4763 1.92308q14 3 28 6.5t26 11.5t23.5 17t21.5 20q20 20 32 45t21 51q45 120 72 250q8 33 16 65.5t15 65.5
q6 30 15 61q1 3 3.5 9t4 12t1 10.5t-6.5 4.5q-9.71429 0.285714 -19.4286 0.285714l-48.5714 -1.78571q-34 -2.5 -67 -4.5q-33 -3 -65 -7t-63 -16q-26 -9 -47 -19t-32 -37q-4 -11 -4 -23.5t4.5 -23.5t13 -19.5t21.5 -10.5q11 -2 21 0t18 9q6 5 11 10t11 10q7 5 12 5.5
t8 -7.5q5 -14 -4.5 -22t-19.5 -13q-13 -8 -25.5 -11.5t-28.5 0.5q-29 7 -43 29q-10.3158 16.2105 -10.3158 36.2216q0 7.14681 1.31579 14.7784q5 29 24.5 47t45.5 29q30 12 62 17.5t64 10.5q35 3 68.5 4t66.5 4q10 1 23.5 -0.5t19.5 10.5q6 14 13 26.5t17 24.5
q16 21 39 35.5q21.5161 13.5645 47.4079 13.5645q1.78564 0 3.59209 -0.0645161q27 -2 46 -19q4 -3 9 -8t4 -11q0 -14 -3 -27q-4 -15 -13.5 -24t-22 -14t-26.5 -7.5t-27 -3.5q-8 -2 -16.5 -2.5t-16.5 -1.5q-13 0 -15 -8q-4 -15 -7 -30.5t-6 -30.5q-6 -34 -12 -64.5
t-14 -61.5q-7 -30 -13 -60t-14 -59q-4 -14 -7.5 -29t-8.5 -29t-10.5 -28t-10.5 -28q-10 -29 -22.5 -55.5t-28.5 -52.5q-15 -24 -32.5 -45.5t-40.5 -38.5q-45 -32 -101 -35q-5.25 -0.28125 -10.4297 -0.28125q-50.0703 0 -93.5703 26.2812q-46 29 -66 81q-5 12 -8 25t-5 26
q-1 7 -2 13t-1 13q0 19 5.5 37t13.5 33.5t17 27t16 17.5zM581 676q11 2 21 4t18 10q6 6 12 14t8 17t0.5 17.5t-10.5 14.5q-13 9.38889 -28.8688 9.38889q-6.1034 0 -12.6312 -1.38889q-23.5 -5 -38.5 -19q-14 -14 -20.5 -33t-10.5 -38z" />
    <glyph glyph-name="Ntilde" unicode="&#xd1;" horiz-adv-x="608" 
d="M454 766q-8 0 -6 9.5t9.5 22t18.5 23t22 11.5q17 1 29 -8t23 -19t23.5 -16.5t29.5 0.5q10 8 16 16.5t19 12.5q6 -2 7 -12t-4 -22t-17 -22t-32 -11q-14 -1 -26.5 6.5t-24.5 17t-23 17t-20 6.5q-14 -2 -23.5 -13t-20.5 -19zM641 601q-8 -14 -14 -29t-11 -30
q-16 -50 -33.5 -97t-31.5 -96q-9 -32 -16.5 -64t-16.5 -64q-2 -7 -4.5 -14t-2.5 -14q1 -8 3.5 -14.5t4.5 -12.5l12 -32t12 -31q5 -11 10 -25.5t6.5 -28.5t-2.5 -26.5t-17 -19.5q-15 -8 -27 -5t-20.5 12t-14 22.5t-8.5 26.5q-3.84615 18.4615 -3.84615 37.2189
q0 5.62722 0.346154 11.2811q1.5 24.5 5.5 48.5q2 13 4.5 25.5t4.5 25.5q2 14 -2 23t-9 20q-10 23 -20 45t-21 45q-5 11 -10.5 23t-11.5 24q-5 10 -10.5 24t-13.5 22q-7 -11 -8 -27.5t-3 -29.5q-11 -51 -24 -100t-33 -94q-12 -29 -25.5 -58.5t-31.5 -54.5q-9 -12 -19 -22.5
t-21 -20.5t-22.5 -21t-25.5 -18q-29 -13 -57 -19q-7.30435 -1.56522 -14.6767 -1.56522q-20.8885 0 -42.3233 12.5652q-23 14 -37.5 38.5t-18.5 50.5q-0.486486 4.21622 -0.486486 8.37984q0 21.5121 12.9865 41.6202q15.5 24 41.5 32q10.3871 3.16129 21.3861 3.16129
q13.3559 0 27.6139 -4.66129q26 -8.5 34 -33.5q1 -2 2 -8t0.5 -12t-2.5 -10t-8 -2t-7 8.5t-2 11.5q-1 8 -2.5 14.5t-6.5 12.5q-8 11 -19.5 13.5t-23.5 -0.5t-23 -10t-18 -15q-10 -12 -13 -25t-1.5 -26.5t7 -27t13.5 -24.5q14 -21 35 -30q11.8125 -5.0625 24.8906 -5.0625
q10.1719 0 21.1094 3.0625q23 6 44 23.5t33 34.5q18 24 31 49t25 52q13 29 22 59t19 60q10 32 19 64.5t17 64.5q7 25 11 50t12 50q2.25 8.625 2.25 16.6875q0 13.4375 -6.25 25.3125q-6 13 -10.5 25.5t-9.5 25.5t-9 24t-5 25q-1 9 -1 23.5t8 21.5q8 9 17 8.5t17.5 -6.5
t15 -14.5t10.5 -15.5q11 -20 14 -48.5t3 -49.5q-1 -26 -5.5 -52.5q-1.62 -9.54 -1.62 -19.0152q0 -16.8448 5.12 -33.4848q4 -12 10.5 -23.5t11.5 -22.5q13 -26 24.5 -51.5t24.5 -51.5q5 -12 10.5 -25.5t13.5 -24.5q6 14 9.5 29t7.5 29l18 66q17 56 33.5 96t30.5 78
q11 30 25.5 58t29.5 54q8 12 17 23.5t18 22.5q17 19 41.5 33t51.5 19.5q12.913 2.63043 25.7117 2.63043q13.9622 0 27.7883 -3.13043q26.5 -6 46.5 -25q18 -16 27 -38q7.52941 -16 7.52941 -32.8858q0 -18.526 -6.52941 -38.1142q-6 -18 -16 -33.5t-21 -26.5
q-17 -19 -43.5 -30q-22.4231 -9.30769 -43.0562 -9.30769q-3.75148 0 -7.44379 0.307692q-19 2 -36 16.5t-23 32.5q-2 5 -4 13t2 13q5 8 11 2t8 -11q6 -16 15.5 -30t28.5 -18q9.16667 -2.08333 17.3785 -2.08333q11.4965 0 21.1215 4.08333q16.5 7 33.5 21q22 19 36 41
t16.5 44.5q0.462963 4.16667 0.462963 8.28189q0 18.107 -8.96296 35.2181q-11 21 -38 38q-9 7 -17.5 11t-19.5 6q-3.33333 0.333333 -6.73611 0.333333q-17.0139 0 -35.7639 -8.33333q-22.5 -10 -45 -29.5t-43.5 -47t-36 -61.5zM505 16q12.6 -5.4 20.88 -5.4
q5.52 0 9.12 2.4q9 6 11 19.5t-1.5 29.5t-7.5 28q-3 11 -7 20.5t-8 19.5q-4 8 -7 17.5t-10 15.5q-5 -15 -9.5 -35.5t-6 -41.5q-0.5 -7 -0.5 -13.7778q0 -13.5556 2 -26.2222q3 -19 14 -30zM352 652q-2 5 -4 10.5t-7 7.5q-14 4 -18 -5t-3 -22.5t4.5 -26.5t5.5 -17
q6 -15 11.5 -31t13.5 -30q5 12 5 26.5t1 28.5q0 -2 -0.5 5t-2 16.5t-3 20.5t-3.5 17z" />
    <glyph glyph-name="Ograve" unicode="&#xd2;" horiz-adv-x="595" 
d="M322 856q-3 10 2.5 18.5t14.5 13t18.5 3.5t15.5 -10q11 -24 24 -44t23 -45q2 -18 -7.5 -22t-21.5 10q-7 9 -17 17.5t-19.5 17.5t-18.5 19t-14 22zM191 20q-26 14 -45.5 36t-33.5 47q-8 14 -13.5 28.5t-10.5 28.5q-9.52381 33.3333 -9.52381 63.0385l0.52381 68.9615
q2 36 8.5 68.5t14.5 63.5q3 13 6.5 23.5t-11.5 16.5q-24 10 -42.5 30t-30.5 43q-13 25 -18.5 52.5q-2.88095 14.4048 -2.88095 28.9467q0 13.22 2.38095 26.5533q4 26 16.5 53t35.5 41q11 6 25 10t28 4t27 -5t21 -16q1 -2 4 -7t5 -10.5t2 -10t-6 -5.5t-10 2t-7 7.5t-6 10
t-7 8.5q-13.6216 10.5946 -31.5383 10.5946q-5.75895 0 -11.9617 -1.09459q-25.5 -4.5 -40.5 -20.5q-20 -20 -26 -48.5t-6 -55.5q0 -29 12 -57t32 -48q10 -11 21.5 -19t23.5 -15q6 -4 10.5 0t8.5 11t6 14.5t4 11.5q14 27 30 53t38 47q23 23 47.5 42t53.5 34
q19.1304 10.5217 41.9206 10.5217q1.03592 0 2.0794 -0.0217391q24 -0.5 44 -14.5q18 -14 25 -39q1 -5 1 -10.5t2 -10.5q3 -6 9 -9l12 -6q26 -13 47.5 -32t35.5 -45t23 -58t11 -61q0.4 -9.8 0.4 -19.56q0 -39.04 -6.4 -77.44q-8 -48 -22 -92q-5 -16 -10 -31.5t-12 -30.5
q-26 -57 -68.5 -100t-104.5 -59q-20.1481 -4.74074 -42.0521 -4.74074q-15.059 0 -30.9479 2.24074q-39 5.5 -71 21.5zM178 440q-5 -2 -6 -8t-2 -11q-9 -32 -16 -62t-9 -63q-2 -17 -2.5 -34q-0.166667 -5.66667 -0.166667 -11.3333q0 -11.3333 0.666667 -22.6667
q2 -31 6.5 -62.5t14.5 -60.5t27.5 -53t46.5 -35q24.64 -9.68 50.0544 -9.68q3.4656 0 6.9456 0.18q29 1.5 55.5 12.5t49.5 29.5t40 41.5q19 25 33 50.5t23 56.5q10 31 17 62.5t10 63.5q4 40 6 79q0.363636 7.09091 0.363636 14.2149q0 32.0579 -7.36364 64.7851
q-8 36 -28.5 66t-54.5 46q-5 3 -12 6t-10 -5q-4 -10 -7.5 -19t-8.5 -18q-17 -35 -47 -59q-33 -25 -69 -40q-20 -9 -34 -11.5t-25.5 -3t-23 -0.5t-24.5 -4zM408 617q4 4 1 11.5t-4 12.5q-4 9 -9 16t-14 12q-15 8 -34 8t-34 -8q-27 -14 -46 -35t-33.5 -46t-25.5 -52.5
t-21 -53.5q-1 -3 -3.5 -8.5t-3.5 -11t0.5 -9t8.5 -3.5q13 1 27 2t27 3q12 4 26 9.5t24 11.5q13 8 26 16.5t26 16.5q22 13 37.5 36t22.5 47q2 7 -2 9.5t-10 2.5t-12.5 -2t-10.5 -4q-5 -2 -7 -6t-7 -9t-12 -11t-13 -3q-5 3 -2 7t8 9q4 3 7.5 7t8.5 8q10 8 17 11t12.5 4t11 0.5
t13.5 1.5z" />
    <glyph glyph-name="Oacute" unicode="&#xd3;" horiz-adv-x="595" 
d="M416 856q-5 -12 -14 -22t-18.5 -19t-19.5 -17.5t-17 -17.5q-12 -14 -21.5 -10t-7.5 22q10 25 23 45t24 44q6 9 15.5 10t18.5 -3.5t14.5 -13t2.5 -18.5zM191 20q-26 14 -45.5 36t-33.5 47q-8 14 -13.5 28.5t-10.5 28.5q-9.52381 33.3333 -9.52381 63.0385l0.52381 68.9615
q2 36 8.5 68.5t14.5 63.5q3 13 6.5 23.5t-11.5 16.5q-24 10 -42.5 30t-30.5 43q-13 25 -18.5 52.5q-2.88095 14.4048 -2.88095 28.9467q0 13.22 2.38095 26.5533q4 26 16.5 53t35.5 41q11 6 25 10t28 4t27 -5t21 -16q1 -2 4 -7t5 -10.5t2 -10t-6 -5.5t-10 2t-7 7.5t-6 10
t-7 8.5q-13.6216 10.5946 -31.5383 10.5946q-5.75895 0 -11.9617 -1.09459q-25.5 -4.5 -40.5 -20.5q-20 -20 -26 -48.5t-6 -55.5q0 -29 12 -57t32 -48q10 -11 21.5 -19t23.5 -15q6 -4 10.5 0t8.5 11t6 14.5t4 11.5q14 27 30 53t38 47q23 23 47.5 42t53.5 34
q19.1304 10.5217 41.9206 10.5217q1.03592 0 2.0794 -0.0217391q24 -0.5 44 -14.5q18 -14 25 -39q1 -5 1 -10.5t2 -10.5q3 -6 9 -9l12 -6q26 -13 47.5 -32t35.5 -45t23 -58t11 -61q0.4 -9.8 0.4 -19.56q0 -39.04 -6.4 -77.44q-8 -48 -22 -92q-5 -16 -10 -31.5t-12 -30.5
q-26 -57 -68.5 -100t-104.5 -59q-20.1481 -4.74074 -42.0521 -4.74074q-15.059 0 -30.9479 2.24074q-39 5.5 -71 21.5zM178 440q-5 -2 -6 -8t-2 -11q-9 -32 -16 -62t-9 -63q-2 -17 -2.5 -34q-0.166667 -5.66667 -0.166667 -11.3333q0 -11.3333 0.666667 -22.6667
q2 -31 6.5 -62.5t14.5 -60.5t27.5 -53t46.5 -35q24.64 -9.68 50.0544 -9.68q3.4656 0 6.9456 0.18q29 1.5 55.5 12.5t49.5 29.5t40 41.5q19 25 33 50.5t23 56.5q10 31 17 62.5t10 63.5q4 40 6 79q0.363636 7.09091 0.363636 14.2149q0 32.0579 -7.36364 64.7851
q-8 36 -28.5 66t-54.5 46q-5 3 -12 6t-10 -5q-4 -10 -7.5 -19t-8.5 -18q-17 -35 -47 -59q-33 -25 -69 -40q-20 -9 -34 -11.5t-25.5 -3t-23 -0.5t-24.5 -4zM408 617q4 4 1 11.5t-4 12.5q-4 9 -9 16t-14 12q-15 8 -34 8t-34 -8q-27 -14 -46 -35t-33.5 -46t-25.5 -52.5
t-21 -53.5q-1 -3 -3.5 -8.5t-3.5 -11t0.5 -9t8.5 -3.5q13 1 27 2t27 3q12 4 26 9.5t24 11.5q13 8 26 16.5t26 16.5q22 13 37.5 36t22.5 47q2 7 -2 9.5t-10 2.5t-12.5 -2t-10.5 -4q-5 -2 -7 -6t-7 -9t-12 -11t-13 -3q-5 3 -2 7t8 9q4 3 7.5 7t8.5 8q10 8 17 11t12.5 4t11 0.5
t13.5 1.5z" />
    <glyph glyph-name="Ocircumflex" unicode="&#xd4;" horiz-adv-x="595" 
d="M355 753q-11 -7 -15.5 -2t6.5 13q7 6 16 14t31 28q15 13 22.5 11.5t13.5 -10.5t13 -20.5t22 -17.5q10 -8 7.5 -12.5t-13.5 -2.5q-10 4 -19.5 10.5t-26.5 19.5q-14 -10 -23 -15t-15.5 -8t-10.5 -4t-8 -4zM191 20q-26 14 -45.5 36t-33.5 47q-8 14 -13.5 28.5t-10.5 28.5
q-9.52381 33.3333 -9.52381 63.0385l0.52381 68.9615q2 36 8.5 68.5t14.5 63.5q3 13 6.5 23.5t-11.5 16.5q-24 10 -42.5 30t-30.5 43q-13 25 -18.5 52.5q-2.88095 14.4048 -2.88095 28.9467q0 13.22 2.38095 26.5533q4 26 16.5 53t35.5 41q11 6 25 10t28 4t27 -5t21 -16
q1 -2 4 -7t5 -10.5t2 -10t-6 -5.5t-10 2t-7 7.5t-6 10t-7 8.5q-13.6216 10.5946 -31.5383 10.5946q-5.75895 0 -11.9617 -1.09459q-25.5 -4.5 -40.5 -20.5q-20 -20 -26 -48.5t-6 -55.5q0 -29 12 -57t32 -48q10 -11 21.5 -19t23.5 -15q6 -4 10.5 0t8.5 11t6 14.5t4 11.5
q14 27 30 53t38 47q23 23 47.5 42t53.5 34q19.1304 10.5217 41.9206 10.5217q1.03592 0 2.0794 -0.0217391q24 -0.5 44 -14.5q18 -14 25 -39q1 -5 1 -10.5t2 -10.5q3 -6 9 -9l12 -6q26 -13 47.5 -32t35.5 -45t23 -58t11 -61q0.4 -9.8 0.4 -19.56q0 -39.04 -6.4 -77.44
q-8 -48 -22 -92q-5 -16 -10 -31.5t-12 -30.5q-26 -57 -68.5 -100t-104.5 -59q-20.1481 -4.74074 -42.0521 -4.74074q-15.059 0 -30.9479 2.24074q-39 5.5 -71 21.5zM178 440q-5 -2 -6 -8t-2 -11q-9 -32 -16 -62t-9 -63q-2 -17 -2.5 -34
q-0.166667 -5.66667 -0.166667 -11.3333q0 -11.3333 0.666667 -22.6667q2 -31 6.5 -62.5t14.5 -60.5t27.5 -53t46.5 -35q24.64 -9.68 50.0544 -9.68q3.4656 0 6.9456 0.18q29 1.5 55.5 12.5t49.5 29.5t40 41.5q19 25 33 50.5t23 56.5q10 31 17 62.5t10 63.5q4 40 6 79
q0.363636 7.09091 0.363636 14.2149q0 32.0579 -7.36364 64.7851q-8 36 -28.5 66t-54.5 46q-5 3 -12 6t-10 -5q-4 -10 -7.5 -19t-8.5 -18q-17 -35 -47 -59q-33 -25 -69 -40q-20 -9 -34 -11.5t-25.5 -3t-23 -0.5t-24.5 -4zM408 617q4 4 1 11.5t-4 12.5q-4 9 -9 16t-14 12
q-15 8 -34 8t-34 -8q-27 -14 -46 -35t-33.5 -46t-25.5 -52.5t-21 -53.5q-1 -3 -3.5 -8.5t-3.5 -11t0.5 -9t8.5 -3.5q13 1 27 2t27 3q12 4 26 9.5t24 11.5q13 8 26 16.5t26 16.5q22 13 37.5 36t22.5 47q2 7 -2 9.5t-10 2.5t-12.5 -2t-10.5 -4q-5 -2 -7 -6t-7 -9t-12 -11
t-13 -3q-5 3 -2 7t8 9q4 3 7.5 7t8.5 8q10 8 17 11t12.5 4t11 0.5t13.5 1.5z" />
    <glyph glyph-name="Otilde" unicode="&#xd5;" horiz-adv-x="595" 
d="M295 766q-8 0 -6 9.5t9.5 22t18.5 23t22 11.5q17 1 29 -8t23 -19t23.5 -16.5t29.5 0.5q10 8 16 16.5t19 12.5q6 -2 7 -12t-4 -22t-17 -22t-32 -11q-14 -1 -26.5 6.5t-24.5 17t-23 17t-20 6.5q-14 -2 -23.5 -13t-20.5 -19zM191 20q-26 14 -45.5 36t-33.5 47
q-8 14 -13.5 28.5t-10.5 28.5q-9.52381 33.3333 -9.52381 63.0385l0.52381 68.9615q2 36 8.5 68.5t14.5 63.5q3 13 6.5 23.5t-11.5 16.5q-24 10 -42.5 30t-30.5 43q-13 25 -18.5 52.5q-2.88095 14.4048 -2.88095 28.9467q0 13.22 2.38095 26.5533q4 26 16.5 53t35.5 41
q11 6 25 10t28 4t27 -5t21 -16q1 -2 4 -7t5 -10.5t2 -10t-6 -5.5t-10 2t-7 7.5t-6 10t-7 8.5q-13.6216 10.5946 -31.5383 10.5946q-5.75895 0 -11.9617 -1.09459q-25.5 -4.5 -40.5 -20.5q-20 -20 -26 -48.5t-6 -55.5q0 -29 12 -57t32 -48q10 -11 21.5 -19t23.5 -15
q6 -4 10.5 0t8.5 11t6 14.5t4 11.5q14 27 30 53t38 47q23 23 47.5 42t53.5 34q19.1304 10.5217 41.9206 10.5217q1.03592 0 2.0794 -0.0217391q24 -0.5 44 -14.5q18 -14 25 -39q1 -5 1 -10.5t2 -10.5q3 -6 9 -9l12 -6q26 -13 47.5 -32t35.5 -45t23 -58t11 -61
q0.4 -9.8 0.4 -19.56q0 -39.04 -6.4 -77.44q-8 -48 -22 -92q-5 -16 -10 -31.5t-12 -30.5q-26 -57 -68.5 -100t-104.5 -59q-20.1481 -4.74074 -42.0521 -4.74074q-15.059 0 -30.9479 2.24074q-39 5.5 -71 21.5zM178 440q-5 -2 -6 -8t-2 -11q-9 -32 -16 -62t-9 -63
q-2 -17 -2.5 -34q-0.166667 -5.66667 -0.166667 -11.3333q0 -11.3333 0.666667 -22.6667q2 -31 6.5 -62.5t14.5 -60.5t27.5 -53t46.5 -35q24.64 -9.68 50.0544 -9.68q3.4656 0 6.9456 0.18q29 1.5 55.5 12.5t49.5 29.5t40 41.5q19 25 33 50.5t23 56.5q10 31 17 62.5t10 63.5
q4 40 6 79q0.363636 7.09091 0.363636 14.2149q0 32.0579 -7.36364 64.7851q-8 36 -28.5 66t-54.5 46q-5 3 -12 6t-10 -5q-4 -10 -7.5 -19t-8.5 -18q-17 -35 -47 -59q-33 -25 -69 -40q-20 -9 -34 -11.5t-25.5 -3t-23 -0.5t-24.5 -4zM408 617q4 4 1 11.5t-4 12.5q-4 9 -9 16
t-14 12q-15 8 -34 8t-34 -8q-27 -14 -46 -35t-33.5 -46t-25.5 -52.5t-21 -53.5q-1 -3 -3.5 -8.5t-3.5 -11t0.5 -9t8.5 -3.5q13 1 27 2t27 3q12 4 26 9.5t24 11.5q13 8 26 16.5t26 16.5q22 13 37.5 36t22.5 47q2 7 -2 9.5t-10 2.5t-12.5 -2t-10.5 -4q-5 -2 -7 -6t-7 -9
t-12 -11t-13 -3q-5 3 -2 7t8 9q4 3 7.5 7t8.5 8q10 8 17 11t12.5 4t11 0.5t13.5 1.5z" />
    <glyph glyph-name="Odieresis" unicode="&#xd6;" horiz-adv-x="594" 
d="M368 804q10 -12 7.5 -24t-11 -19t-20.5 -7t-21 12q-8 11 -5 21.5t11 16.5t19 6.5t20 -6.5zM480 801q8 -9 7.5 -20.5t-7 -19.5t-16.5 -10.5t-22 5.5q-12 9 -12 20.5t7 20.5t19 11.5t24 -7.5zM191 20q-26 14 -45.5 36t-33.5 47q-8 14 -13.5 28.5t-10.5 28.5
q-9.52381 33.3333 -9.52381 63.0385l0.52381 68.9615q2 36 8.5 68.5t14.5 63.5q3 13 6.5 23.5t-11.5 16.5q-24 10 -42.5 30t-30.5 43q-13 25 -18.5 52.5q-2.88095 14.4048 -2.88095 28.9467q0 13.22 2.38095 26.5533q4 26 16.5 53t35.5 41q11 6 25 10t28 4t27 -5t21 -16
q1 -2 4 -7t5 -10.5t2 -10t-6 -5.5t-10 2t-7 7.5t-6 10t-7 8.5q-13.6216 10.5946 -31.5383 10.5946q-5.75895 0 -11.9617 -1.09459q-25.5 -4.5 -40.5 -20.5q-20 -20 -26 -48.5t-6 -55.5q0 -29 12 -57t32 -48q10 -11 21.5 -19t23.5 -15q6 -4 10.5 0t8.5 11t6 14.5t4 11.5
q14 27 30 53t38 47q23 23 47.5 42t53.5 34q19.1304 10.5217 41.9206 10.5217q1.03592 0 2.0794 -0.0217391q24 -0.5 44 -14.5q18 -14 25 -39q1 -5 1 -10.5t2 -10.5q3 -6 9 -9l12 -6q26 -13 47.5 -32t35.5 -45t23 -58t11 -61q0.4 -9.8 0.4 -19.56q0 -39.04 -6.4 -77.44
q-8 -48 -22 -92q-5 -16 -10 -31.5t-12 -30.5q-26 -57 -68.5 -100t-104.5 -59q-20.1481 -4.74074 -42.0521 -4.74074q-15.059 0 -30.9479 2.24074q-39 5.5 -71 21.5zM178 440q-5 -2 -6 -8t-2 -11q-9 -32 -16 -62t-9 -63q-2 -17 -2.5 -34
q-0.166667 -5.66667 -0.166667 -11.3333q0 -11.3333 0.666667 -22.6667q2 -31 6.5 -62.5t14.5 -60.5t27.5 -53t46.5 -35q24.64 -9.68 50.0544 -9.68q3.4656 0 6.9456 0.18q29 1.5 55.5 12.5t49.5 29.5t40 41.5q19 25 33 50.5t23 56.5q10 31 17 62.5t10 63.5q4 40 6 79
q0.363636 7.09091 0.363636 14.2149q0 32.0579 -7.36364 64.7851q-8 36 -28.5 66t-54.5 46q-5 3 -12 6t-10 -5q-4 -10 -7.5 -19t-8.5 -18q-17 -35 -47 -59q-33 -25 -69 -40q-20 -9 -34 -11.5t-25.5 -3t-23 -0.5t-24.5 -4zM408 617q4 4 1 11.5t-4 12.5q-4 9 -9 16t-14 12
q-15 8 -34 8t-34 -8q-27 -14 -46 -35t-33.5 -46t-25.5 -52.5t-21 -53.5q-1 -3 -3.5 -8.5t-3.5 -11t0.5 -9t8.5 -3.5q13 1 27 2t27 3q12 4 26 9.5t24 11.5q13 8 26 16.5t26 16.5q22 13 37.5 36t22.5 47q2 7 -2 9.5t-10 2.5t-12.5 -2t-10.5 -4q-5 -2 -7 -6t-7 -9t-12 -11
t-13 -3q-5 3 -2 7t8 9q4 3 7.5 7t8.5 8q10 8 17 11t12.5 4t11 0.5t13.5 1.5z" />
    <glyph glyph-name="Ugrave" unicode="&#xd9;" horiz-adv-x="666" 
d="M394 856q-3 10 2.5 18.5t14.5 13t18.5 3.5t15.5 -10q11 -24 24 -44t23 -45q2 -18 -7.5 -22t-21.5 10q-7 9 -17 17.5t-19.5 17.5t-18.5 19t-14 22zM437 144q-21 -26 -43 -49t-46 -45q-22 -19 -51 -33t-55 -18q-11.6 -1.6 -23.12 -1.6q-17.28 0 -34.38 3.6
q-28.5 6 -52.5 22q-22 15 -38 37q-9 14 -13 28t-7 30q-5.12 20.48 -5.12 41.5744q0 11.8656 1.62 23.9256q4.5 33.5 12.5 65.5t22.5 61t31.5 58t33 57t33 57q8 14 15.5 27.5t15.5 27.5q10 20 21.5 41.5t20.5 43t14.5 44t5.5 44.5q0 13 -0.5 26t-7.5 25q-6 11 -15.5 19.5
t-20.5 14.5q-24.2162 13.8378 -48.4324 13.8378l-7.56757 -0.337838q-28 -2.5 -56 -16.5q-26 -14 -49 -31.5t-40 -42.5q-17 -28 -28.5 -52.5q-8.53226 -18.1774 -8.53226 -40.4834q0 -7.75858 1.03226 -16.0166q2 -27 20 -49t47 -23q26 0 51 16t36 39q5 11 7 24t0 25
q-1 5 2 9t8 5q3 1 5.5 -1.5t4 -6.5t2 -8t0.5 -6q2 -14 -2.5 -27.5t-12.5 -24.5t-20 -22.5t-24 -17.5q-22 -12 -48 -14q-3.71429 -0.285714 -7.34694 -0.285714q-21.7959 0 -40.6531 10.2857q-28 15 -36.5 40.5q-5.78 17.34 -5.78 35.836q0 8.704 1.28 17.664q4 28 17 55
t28 47q16 22 43 41t50 30q28 14 58.5 16q5.08333 0.333333 10.125 0.333333q25.2083 0 49.375 -8.33333q52 -19 73 -72q9 -21.75 9 -45.75q0 -8 -1 -16.25q-4 -33 -10 -59q-13 -57 -30.5 -96t-43.5 -77q-8 -14 -16.5 -28.5t-16.5 -28.5q-17 -29 -31 -57.5t-27 -59.5
q-6 -15 -11.5 -30t-10.5 -30q-5 -17 -8 -33t-7 -33q-3.92 -16.24 -3.92 -31.8528q0 -12.2672 2.42 -24.1472q5.5 -27 26.5 -50q19 -20 49 -25q11.5385 -1.92308 22.3373 -1.92308q17.2781 0 32.6627 4.92308q29 9 54 25.5t46 36.5q21 21 42.5 44t38.5 49q7 12 3.5 23.5
t-2.5 24.5q0 18 -0.5 35.5t-0.5 34.5q0 15 2 29.5t2 29.5q1 18 2.5 35.5t5.5 34.5q13 60 32 120.5t58 109.5q8 10 18.5 18t21.5 13q20 7 30 5.5t18 -18.5q7 -14 8.5 -28.5t0 -29.5t-4.5 -30t-6 -29q-2 -15 -6.5 -29t-9.5 -28q-5 -17 -10.5 -33.5t-11.5 -33.5
q-11 -31 -25 -61t-28 -59q-8 -15 -16 -28.5t-16 -27.5q-7 -14 -16 -27.5t-7 -29.5q2 -32 6 -62t12 -60q7 -27 19 -57t35 -48q9 -6 21 -11.5t23 -2.5q13 2 24 6.5t21 12.5t16 17.5t12 20.5q9 14 11.5 28.5t2.5 31.5q0 3 -2 9t-3.5 11.5t-0.5 10t7 5.5q7 1 11 -4t5 -12t1 -14
v-11q0 -27 -14 -52.5t-31 -43.5q-22 -22 -46.5 -28q-10.5 -2.57143 -20.9082 -2.57143q-13.8776 0 -27.5918 4.57143q-31 11 -49.5 37.5t-30.5 55.5q-8 17 -14 34.5t-10 36.5q-1 2 -2.5 10.5t-3.5 17t-5.5 12.5t-7.5 -3zM610 673q-5 5 -11 2.5t-11.5 -8.5t-10.5 -12.5
t-8 -10.5q-19 -27 -31.5 -58.5t-23.5 -63.5t-17.5 -66.5t-11.5 -69.5q-5 -30 -5 -58t-2 -55q0 -8 -1 -17t2 -17q16 17 27 44t21 46q12 23 21.5 47t19.5 49q11 29 24 66.5t21.5 73.5q9.01852 38.1961 9.01852 67.1276q0 27.3909 -12.5185 40.8724z" />
    <glyph glyph-name="Uacute" unicode="&#xda;" horiz-adv-x="667" 
d="M551 856q-5 -12 -14 -22t-18.5 -19t-19.5 -17.5t-17 -17.5q-12 -14 -21.5 -10t-7.5 22q10 25 23 45t24 44q6 9 15.5 10t18.5 -3.5t14.5 -13t2.5 -18.5zM437 144q-21 -26 -43 -49t-46 -45q-22 -19 -51 -33t-55 -18q-11.6 -1.6 -23.12 -1.6q-17.28 0 -34.38 3.6
q-28.5 6 -52.5 22q-22 15 -38 37q-9 14 -13 28t-7 30q-5.12 20.48 -5.12 41.5744q0 11.8656 1.62 23.9256q4.5 33.5 12.5 65.5t22.5 61t31.5 58t33 57t33 57q8 14 15.5 27.5t15.5 27.5q10 20 21.5 41.5t20.5 43t14.5 44t5.5 44.5q0 13 -0.5 26t-7.5 25q-6 11 -15.5 19.5
t-20.5 14.5q-24.2162 13.8378 -48.4324 13.8378l-7.56757 -0.337838q-28 -2.5 -56 -16.5q-26 -14 -49 -31.5t-40 -42.5q-17 -28 -28.5 -52.5q-8.53226 -18.1774 -8.53226 -40.4834q0 -7.75858 1.03226 -16.0166q2 -27 20 -49t47 -23q26 0 51 16t36 39q5 11 7 24t0 25
q-1 5 2 9t8 5q3 1 5.5 -1.5t4 -6.5t2 -8t0.5 -6q2 -14 -2.5 -27.5t-12.5 -24.5t-20 -22.5t-24 -17.5q-22 -12 -48 -14q-3.71429 -0.285714 -7.34694 -0.285714q-21.7959 0 -40.6531 10.2857q-28 15 -36.5 40.5q-5.78 17.34 -5.78 35.836q0 8.704 1.28 17.664q4 28 17 55
t28 47q16 22 43 41t50 30q28 14 58.5 16q5.08333 0.333333 10.125 0.333333q25.2083 0 49.375 -8.33333q52 -19 73 -72q9 -21.75 9 -45.75q0 -8 -1 -16.25q-4 -33 -10 -59q-13 -57 -30.5 -96t-43.5 -77q-8 -14 -16.5 -28.5t-16.5 -28.5q-17 -29 -31 -57.5t-27 -59.5
q-6 -15 -11.5 -30t-10.5 -30q-5 -17 -8 -33t-7 -33q-3.92 -16.24 -3.92 -31.8528q0 -12.2672 2.42 -24.1472q5.5 -27 26.5 -50q19 -20 49 -25q11.5385 -1.92308 22.3373 -1.92308q17.2781 0 32.6627 4.92308q29 9 54 25.5t46 36.5q21 21 42.5 44t38.5 49q7 12 3.5 23.5
t-2.5 24.5q0 18 -0.5 35.5t-0.5 34.5q0 15 2 29.5t2 29.5q1 18 2.5 35.5t5.5 34.5q13 60 32 120.5t58 109.5q8 10 18.5 18t21.5 13q20 7 30 5.5t18 -18.5q7 -14 8.5 -28.5t0 -29.5t-4.5 -30t-6 -29q-2 -15 -6.5 -29t-9.5 -28q-5 -17 -10.5 -33.5t-11.5 -33.5
q-11 -31 -25 -61t-28 -59q-8 -15 -16 -28.5t-16 -27.5q-7 -14 -16 -27.5t-7 -29.5q2 -32 6 -62t12 -60q7 -27 19 -57t35 -48q9 -6 21 -11.5t23 -2.5q13 2 24 6.5t21 12.5t16 17.5t12 20.5q9 14 11.5 28.5t2.5 31.5q0 3 -2 9t-3.5 11.5t-0.5 10t7 5.5q7 1 11 -4t5 -12t1 -14
v-11q0 -27 -14 -52.5t-31 -43.5q-22 -22 -46.5 -28q-10.5 -2.57143 -20.9082 -2.57143q-13.8776 0 -27.5918 4.57143q-31 11 -49.5 37.5t-30.5 55.5q-8 17 -14 34.5t-10 36.5q-1 2 -2.5 10.5t-3.5 17t-5.5 12.5t-7.5 -3zM610 673q-5 5 -11 2.5t-11.5 -8.5t-10.5 -12.5
t-8 -10.5q-19 -27 -31.5 -58.5t-23.5 -63.5t-17.5 -66.5t-11.5 -69.5q-5 -30 -5 -58t-2 -55q0 -8 -1 -17t2 -17q16 17 27 44t21 46q12 23 21.5 47t19.5 49q11 29 24 66.5t21.5 73.5q9.01852 38.1961 9.01852 67.1276q0 27.3909 -12.5185 40.8724z" />
    <glyph glyph-name="Ucircumflex" unicode="&#xdb;" horiz-adv-x="666" 
d="M420 753q-11 -7 -15.5 -2t6.5 13q7 6 16 14t31 28q15 13 22.5 11.5t13.5 -10.5t13 -20.5t22 -17.5q10 -8 7.5 -12.5t-13.5 -2.5q-10 4 -19.5 10.5t-26.5 19.5q-14 -10 -23 -15t-15.5 -8t-10.5 -4t-8 -4zM437 144q-21 -26 -43 -49t-46 -45q-22 -19 -51 -33t-55 -18
q-11.6 -1.6 -23.12 -1.6q-17.28 0 -34.38 3.6q-28.5 6 -52.5 22q-22 15 -38 37q-9 14 -13 28t-7 30q-5.12 20.48 -5.12 41.5744q0 11.8656 1.62 23.9256q4.5 33.5 12.5 65.5t22.5 61t31.5 58t33 57t33 57q8 14 15.5 27.5t15.5 27.5q10 20 21.5 41.5t20.5 43t14.5 44
t5.5 44.5q0 13 -0.5 26t-7.5 25q-6 11 -15.5 19.5t-20.5 14.5q-24.2162 13.8378 -48.4324 13.8378l-7.56757 -0.337838q-28 -2.5 -56 -16.5q-26 -14 -49 -31.5t-40 -42.5q-17 -28 -28.5 -52.5q-8.53226 -18.1774 -8.53226 -40.4834q0 -7.75858 1.03226 -16.0166
q2 -27 20 -49t47 -23q26 0 51 16t36 39q5 11 7 24t0 25q-1 5 2 9t8 5q3 1 5.5 -1.5t4 -6.5t2 -8t0.5 -6q2 -14 -2.5 -27.5t-12.5 -24.5t-20 -22.5t-24 -17.5q-22 -12 -48 -14q-3.71429 -0.285714 -7.34694 -0.285714q-21.7959 0 -40.6531 10.2857q-28 15 -36.5 40.5
q-5.78 17.34 -5.78 35.836q0 8.704 1.28 17.664q4 28 17 55t28 47q16 22 43 41t50 30q28 14 58.5 16q5.08333 0.333333 10.125 0.333333q25.2083 0 49.375 -8.33333q52 -19 73 -72q9 -21.75 9 -45.75q0 -8 -1 -16.25q-4 -33 -10 -59q-13 -57 -30.5 -96t-43.5 -77
q-8 -14 -16.5 -28.5t-16.5 -28.5q-17 -29 -31 -57.5t-27 -59.5q-6 -15 -11.5 -30t-10.5 -30q-5 -17 -8 -33t-7 -33q-3.92 -16.24 -3.92 -31.8528q0 -12.2672 2.42 -24.1472q5.5 -27 26.5 -50q19 -20 49 -25q11.5385 -1.92308 22.3373 -1.92308q17.2781 0 32.6627 4.92308
q29 9 54 25.5t46 36.5q21 21 42.5 44t38.5 49q7 12 3.5 23.5t-2.5 24.5q0 18 -0.5 35.5t-0.5 34.5q0 15 2 29.5t2 29.5q1 18 2.5 35.5t5.5 34.5q13 60 32 120.5t58 109.5q8 10 18.5 18t21.5 13q20 7 30 5.5t18 -18.5q7 -14 8.5 -28.5t0 -29.5t-4.5 -30t-6 -29
q-2 -15 -6.5 -29t-9.5 -28q-5 -17 -10.5 -33.5t-11.5 -33.5q-11 -31 -25 -61t-28 -59q-8 -15 -16 -28.5t-16 -27.5q-7 -14 -16 -27.5t-7 -29.5q2 -32 6 -62t12 -60q7 -27 19 -57t35 -48q9 -6 21 -11.5t23 -2.5q13 2 24 6.5t21 12.5t16 17.5t12 20.5q9 14 11.5 28.5t2.5 31.5
q0 3 -2 9t-3.5 11.5t-0.5 10t7 5.5q7 1 11 -4t5 -12t1 -14v-11q0 -27 -14 -52.5t-31 -43.5q-22 -22 -46.5 -28q-10.5 -2.57143 -20.9082 -2.57143q-13.8776 0 -27.5918 4.57143q-31 11 -49.5 37.5t-30.5 55.5q-8 17 -14 34.5t-10 36.5q-1 2 -2.5 10.5t-3.5 17t-5.5 12.5
t-7.5 -3zM610 673q-5 5 -11 2.5t-11.5 -8.5t-10.5 -12.5t-8 -10.5q-19 -27 -31.5 -58.5t-23.5 -63.5t-17.5 -66.5t-11.5 -69.5q-5 -30 -5 -58t-2 -55q0 -8 -1 -17t2 -17q16 17 27 44t21 46q12 23 21.5 47t19.5 49q11 29 24 66.5t21.5 73.5q9.01852 38.1961 9.01852 67.1276
q0 27.3909 -12.5185 40.8724z" />
    <glyph glyph-name="Udieresis" unicode="&#xdc;" horiz-adv-x="666" 
d="M454 804q10 -12 7.5 -24t-11 -19t-20.5 -7t-21 12q-8 11 -5 21.5t11 16.5t19 6.5t20 -6.5zM566 801q8 -9 7.5 -20.5t-7 -19.5t-16.5 -10.5t-22 5.5q-12 9 -12 20.5t7 20.5t19 11.5t24 -7.5zM437 144q-21 -26 -43 -49t-46 -45q-22 -19 -51 -33t-55 -18
q-11.6 -1.6 -23.12 -1.6q-17.28 0 -34.38 3.6q-28.5 6 -52.5 22q-22 15 -38 37q-9 14 -13 28t-7 30q-5.12 20.48 -5.12 41.5744q0 11.8656 1.62 23.9256q4.5 33.5 12.5 65.5t22.5 61t31.5 58t33 57t33 57q8 14 15.5 27.5t15.5 27.5q10 20 21.5 41.5t20.5 43t14.5 44
t5.5 44.5q0 13 -0.5 26t-7.5 25q-6 11 -15.5 19.5t-20.5 14.5q-24.2162 13.8378 -48.4324 13.8378l-7.56757 -0.337838q-28 -2.5 -56 -16.5q-26 -14 -49 -31.5t-40 -42.5q-17 -28 -28.5 -52.5q-8.53226 -18.1774 -8.53226 -40.4834q0 -7.75858 1.03226 -16.0166
q2 -27 20 -49t47 -23q26 0 51 16t36 39q5 11 7 24t0 25q-1 5 2 9t8 5q3 1 5.5 -1.5t4 -6.5t2 -8t0.5 -6q2 -14 -2.5 -27.5t-12.5 -24.5t-20 -22.5t-24 -17.5q-22 -12 -48 -14q-3.71429 -0.285714 -7.34694 -0.285714q-21.7959 0 -40.6531 10.2857q-28 15 -36.5 40.5
q-5.78 17.34 -5.78 35.836q0 8.704 1.28 17.664q4 28 17 55t28 47q16 22 43 41t50 30q28 14 58.5 16q5.08333 0.333333 10.125 0.333333q25.2083 0 49.375 -8.33333q52 -19 73 -72q9 -21.75 9 -45.75q0 -8 -1 -16.25q-4 -33 -10 -59q-13 -57 -30.5 -96t-43.5 -77
q-8 -14 -16.5 -28.5t-16.5 -28.5q-17 -29 -31 -57.5t-27 -59.5q-6 -15 -11.5 -30t-10.5 -30q-5 -17 -8 -33t-7 -33q-3.92 -16.24 -3.92 -31.8528q0 -12.2672 2.42 -24.1472q5.5 -27 26.5 -50q19 -20 49 -25q11.5385 -1.92308 22.3373 -1.92308q17.2781 0 32.6627 4.92308
q29 9 54 25.5t46 36.5q21 21 42.5 44t38.5 49q7 12 3.5 23.5t-2.5 24.5q0 18 -0.5 35.5t-0.5 34.5q0 15 2 29.5t2 29.5q1 18 2.5 35.5t5.5 34.5q13 60 32 120.5t58 109.5q8 10 18.5 18t21.5 13q20 7 30 5.5t18 -18.5q7 -14 8.5 -28.5t0 -29.5t-4.5 -30t-6 -29
q-2 -15 -6.5 -29t-9.5 -28q-5 -17 -10.5 -33.5t-11.5 -33.5q-11 -31 -25 -61t-28 -59q-8 -15 -16 -28.5t-16 -27.5q-7 -14 -16 -27.5t-7 -29.5q2 -32 6 -62t12 -60q7 -27 19 -57t35 -48q9 -6 21 -11.5t23 -2.5q13 2 24 6.5t21 12.5t16 17.5t12 20.5q9 14 11.5 28.5t2.5 31.5
q0 3 -2 9t-3.5 11.5t-0.5 10t7 5.5q7 1 11 -4t5 -12t1 -14v-11q0 -27 -14 -52.5t-31 -43.5q-22 -22 -46.5 -28q-10.5 -2.57143 -20.9082 -2.57143q-13.8776 0 -27.5918 4.57143q-31 11 -49.5 37.5t-30.5 55.5q-8 17 -14 34.5t-10 36.5q-1 2 -2.5 10.5t-3.5 17t-5.5 12.5
t-7.5 -3zM610 673q-5 5 -11 2.5t-11.5 -8.5t-10.5 -12.5t-8 -10.5q-19 -27 -31.5 -58.5t-23.5 -63.5t-17.5 -66.5t-11.5 -69.5q-5 -30 -5 -58t-2 -55q0 -8 -1 -17t2 -17q16 17 27 44t21 46q12 23 21.5 47t19.5 49q11 29 24 66.5t21.5 73.5q9.01852 38.1961 9.01852 67.1276
q0 27.3909 -12.5185 40.8724z" />
    <glyph glyph-name="Yacute" unicode="&#xdd;" horiz-adv-x="445" 
d="M416 856q-5 -12 -14 -22t-18.5 -19t-19.5 -17.5t-17 -17.5q-12 -14 -21.5 -10t-7.5 22q10 25 23 45t24 44q6 9 15.5 10t18.5 -3.5t14.5 -13t2.5 -18.5zM246 723q17 -24 17 -54t-5 -57q-3 -16 -7.5 -30t-9.5 -29q-17 -45 -35.5 -94t-28.5 -95q-4 -14 -6.5 -29.5
t-2.5 -30.5q0 -11 4.5 -25t17.5 -18q12 -3 26.5 1t28.5 11t26 15.5t20 14.5l42 34t35 41q8 13 11 26t5 27q6 34 15 69q8 32 17 64t20 64q5 15 10.5 29.5t13.5 28.5q6 11 13.5 21.5t21.5 11.5q17 1 23.5 -8.5t7.5 -24t-2 -30t-5 -24.5q-8 -29 -20.5 -56.5t-26.5 -53.5
q-6 -13 -13.5 -24.5t-14.5 -23.5q-8 -15 -12 -31.5t-8 -33.5q-9 -32 -16.5 -64.5t-18.5 -63.5q-20 -62 -44 -121t-63 -112q-17 -23 -39 -43.5t-48 -32.5t-57.5 -14.5q-6.3 -0.5 -12.42 -0.5q-24.48 0 -46.08 8q-25 9 -43 28t-27 42.5q-8.52632 22.2632 -8.52632 46.3213
q0 27.126 12.5263 52.1787q11 23 33.5 39t48.5 21q5.33333 0.969697 10.7548 0.969697q16.9421 0 34.7452 -9.4697q23.5 -12.5 29.5 -35.5q5.14286 -19.7143 5.14286 -42q0 -3.71429 -0.142857 -7.5q-1 -26.5 -22 -42.5q-11 -9 -24.5 -12t-27.5 -1q-7 2 -13 3.5t-10 6.5
t-1 9.5t8 4.5q7 2 12 -1.5t11 -5.5q9 -3 23 -1q15 4 22 14.5t10 24.5q1.66667 7.66667 1.66667 15.2222q0 15.1111 -6.66667 29.7778q-10 22 -33 32q-12 5 -24.5 4t-24 -6.5t-21 -14.5t-16.5 -18q-20.4545 -30 -20.4545 -63.2541q0 -15.5186 4.45455 -31.7459
q8 -29 27 -47.5t43.5 -25q14.4773 -3.84091 29.6529 -3.84091q10.5062 0 21.3471 1.84091q26.5 4.5 50.5 20.5q25 17 44 36.5t32 46.5q7 14 12.5 27.5t10.5 28.5q5 16 10.5 32t10.5 32q7 19 14 37t13 37q3 11 6 20.5t5 20.5q2 9 6 17t1 17q-13 -9 -24 -19.5l-22 -21
t-22.5 -20t-25.5 -16.5q-12 -7 -26 -14t-29 -11.5t-30 -4t-28 8.5q-28 17 -36 43.5q-7.11111 23.5556 -7.11111 49.8765q0 3.29012 0.111111 6.62346q1 16 5.5 30.5t7.5 29.5q4 16 9 30.5t11 29.5q17 41 30.5 66t26.5 48q13 25 20 52q4.45455 17.1818 4.45455 35.1736
q0 10.281 -1.45455 20.8264q-3 23 -14.5 39.5t-35.5 20.5q-8.27586 1.10345 -16.1332 1.10345q-20.6254 0 -38.3668 -7.60345q-24.5 -10.5 -43.5 -31.5q-28 -30 -46 -71q-16.2 -36.9 -16.2 -76.23q0 -4.37 0.2 -8.77q1 -12 9 -24t24 -11q29 2 47 23.5t25 47.5q2 7 3 13.5
t2 13.5q0 9 5.5 9.5t9.5 -3.5q8 -8 4.5 -26t-9.5 -26q-8 -11 -14 -22t-16 -20q-19 -19 -46 -24q-15 -3 -26.5 3.5t-19 18t-10.5 25.5t-1 27q5 31 14.5 60t27.5 55q17 23 42 40.5t52 24.5q14.7368 3.36842 28.3213 3.36842q18.6787 0 35.1787 -6.36842q28.5 -11 46.5 -34z
M452 514q14 21 25 43t20 45q10 25 15 51q2 9 5 25t-4 24q-3 3 -6.5 -0.5t-6.5 -10t-5.5 -13t-3.5 -8.5q-5 -12 -8.5 -24t-7.5 -25q-6 -26 -10.5 -53.5t-12.5 -53.5z" />
    </font>
</defs>
</svg>
